<?xml version="1.0" standalone="no"?>
<!DOCTYPE svg PUBLIC "-//W3C//DTD SVG 20010904//EN"
 "http://www.w3.org/TR/2001/REC-SVG-20010904/DTD/svg10.dtd">
<svg version="1.0" xmlns="http://www.w3.org/2000/svg"
 width="1070.000000pt" height="1070.000000pt" viewBox="0 0 1070.000000 1070.000000"
 preserveAspectRatio="xMidYMid meet">
<metadata>
Created by potrace 1.11, written by Peter Selinger 2001-2013
</metadata>
<g transform="translate(0.000000,1070.000000) scale(0.100000,-0.100000)"
fill="#000000" stroke="none">
<path d="M5678 9235 c-2 -1 -46 -5 -98 -9 -52 -3 -106 -8 -120 -10 -14 -3 -43
-7 -65 -11 -66 -9 -197 -35 -240 -46 -22 -6 -47 -13 -55 -14 -52 -12 -199 -61
-298 -101 -827 -329 -1445 -1038 -1652 -1899 -33 -135 -37 -157 -46 -235 -3
-30 -8 -58 -10 -61 -10 -16 -19 -191 -19 -359 1 -189 7 -289 26 -395 6 -33 13
-73 15 -90 4 -37 30 -152 50 -225 44 -158 140 -417 150 -407 3 2 -1 17 -7 33
-17 43 -79 255 -85 289 -2 17 -7 38 -10 48 -3 11 -7 29 -9 40 -1 12 -8 51 -14
87 -18 102 -25 222 -25 395 0 196 8 291 40 475 36 201 136 486 242 690 84 160
234 382 332 490 82 90 162 170 230 230 40 36 78 70 84 75 79 72 287 206 442
287 457 237 949 324 1494 262 103 -11 264 -47 410 -91 455 -136 916 -444 1209
-808 40 -49 78 -97 85 -106 80 -98 209 -321 286 -493 50 -111 128 -344 144
-429 1 -6 8 -37 14 -67 13 -64 20 -102 27 -150 3 -19 8 -51 11 -70 13 -75 12
-504 -1 -605 -79 -584 -323 -1083 -725 -1485 -282 -281 -629 -497 -988 -615
-29 -9 -52 -19 -50 -21 6 -6 251 70 353 109 263 101 596 301 795 477 101 90
267 259 320 327 8 10 31 39 50 63 189 238 350 540 448 840 34 105 73 257 88
349 3 18 7 43 10 54 28 150 44 496 29 642 -2 22 -7 67 -10 100 -83 827 -573
1599 -1290 2037 -251 154 -519 265 -795 330 -103 24 -107 25 -156 32 -22 4
-46 8 -54 11 -17 4 -100 15 -175 21 -63 5 -382 13 -387 9z"/>
<path d="M5338 7488 l-3 -413 -410 0 -410 0 0 -252 c0 -247 0 -253 20 -254 11
0 197 -1 414 -1 324 0 395 2 402 13 31 52 156 223 164 226 18 5 36 -13 41 -42
3 -15 21 -94 40 -174 20 -80 36 -154 37 -163 1 -10 4 -18 7 -18 5 0 66 243 84
335 9 45 57 243 67 275 5 19 11 45 12 58 2 30 34 49 52 30 6 -7 38 -174 70
-371 32 -197 62 -354 66 -350 6 7 43 153 63 256 4 15 9 39 12 55 3 15 12 37
20 50 30 45 47 23 64 -83 7 -44 13 -87 15 -95 1 -8 8 -55 15 -105 7 -49 16
-94 20 -98 4 -4 20 36 35 90 16 54 34 105 42 113 12 13 73 15 421 15 l407 0 3
243 c1 133 -1 243 -5 243 -4 1 -190 2 -413 3 l-405 1 -2 400 c-1 220 -2 406
-2 413 -1 9 -102 12 -471 12 l-470 0 -2 -412z"/>
<path d="M5829 6918 c-2 -7 -13 -56 -79 -338 -39 -168 -76 -315 -81 -328 -6
-16 -16 -22 -31 -20 -20 3 -26 16 -45 98 -31 133 -47 202 -59 262 -3 15 -10
46 -17 68 l-12 40 -64 -95 -64 -95 -46 -1 c-25 0 -218 0 -428 0 -211 0 -384
-3 -384 -7 -1 -4 -2 -89 -3 -189 l-2 -182 371 0 c203 0 389 0 413 0 l42 -1 0
-410 0 -410 33 -1 c52 -1 787 -1 852 0 l60 1 -1 410 -1 410 56 1 c31 0 216 1
411 2 l355 2 3 193 c1 105 -1 193 -5 193 -4 1 -180 2 -391 3 -247 1 -386 -2
-392 -9 -4 -5 -10 -19 -13 -30 -16 -59 -79 -263 -87 -282 -19 -45 -59 -22 -65
37 -6 61 -50 310 -55 310 -5 0 -30 -105 -32 -135 0 -5 -4 -20 -9 -33 -5 -13
-11 -37 -14 -53 -10 -55 -33 -147 -40 -158 -8 -15 -30 -14 -43 2 -5 6 -13 30
-16 52 -7 46 -14 87 -21 130 -3 17 -12 75 -21 130 -8 55 -17 111 -20 125 -5
30 -20 129 -29 185 -3 22 -8 54 -11 70 -4 17 -7 36 -7 43 0 10 -6 17 -8 10z"/>
<path d="M3320 5355 c0 -5 5 -17 10 -25 5 -8 10 -10 10 -5 0 6 -5 17 -10 25
-5 8 -10 11 -10 5z"/>
<path d="M7010 5209 c-16 -10 -32 -17 -520 -242 -497 -228 -553 -254 -640
-295 -109 -50 -219 -101 -335 -154 -60 -27 -139 -64 -175 -80 -199 -92 -484
-186 -675 -224 -11 -2 -40 -8 -65 -13 -25 -6 -79 -15 -120 -21 -41 -7 -86 -14
-100 -16 -50 -9 -178 -5 -202 7 -48 21 -62 92 -32 155 9 19 37 53 63 75 56 48
287 163 511 253 270 110 366 169 496 309 81 87 106 127 94 147 -7 11 -21 11
-82 1 -40 -6 -91 -16 -113 -21 -22 -5 -112 -23 -200 -40 -132 -25 -271 -52
-390 -76 -11 -2 -58 -11 -105 -20 -47 -9 -94 -18 -105 -20 -11 -3 -36 -7 -55
-10 -19 -3 -37 -7 -40 -9 -3 -2 -26 -6 -50 -10 -25 -3 -52 -8 -60 -10 -8 -2
-28 -7 -45 -9 -16 -3 -75 -15 -130 -26 -55 -11 -116 -23 -135 -26 -121 -19
-351 -99 -515 -180 -82 -40 -159 -79 -170 -86 -11 -7 -56 -37 -100 -67 -354
-239 -640 -610 -780 -1011 -34 -100 -85 -282 -85 -306 0 -9 22 -5 72 12 40 14
80 27 88 29 8 2 47 13 85 24 91 27 282 71 375 86 25 4 52 9 60 10 8 1 44 6 80
10 36 4 72 9 81 10 65 12 242 19 454 16 660 -8 864 -5 962 13 12 3 43 7 70 11
284 38 747 171 913 262 62 33 238 144 270 170 8 6 62 47 119 90 94 70 345 280
445 372 228 210 498 482 672 676 147 165 184 212 178 229 -7 17 -40 20 -64 5z"/>
<path d="M4768 2779 c-273 -42 -477 -254 -515 -534 -11 -78 -5 -225 11 -306
37 -180 152 -331 308 -407 106 -51 159 -64 284 -67 334 -10 571 169 638 480
19 91 15 307 -8 390 -59 218 -217 376 -432 430 -75 19 -211 26 -286 14z m245
-273 c82 -34 158 -136 186 -249 13 -52 16 -180 6 -240 -31 -190 -170 -310
-345 -301 -192 11 -309 154 -313 384 -2 120 6 169 42 245 31 68 86 127 145
157 73 37 196 39 279 4z"/>
<path d="M7620 2783 c-176 -23 -339 -119 -429 -252 -80 -118 -113 -232 -114
-396 -1 -164 16 -246 78 -363 110 -210 316 -318 587 -307 295 11 502 174 574
450 22 87 25 312 5 395 -61 248 -227 413 -465 462 -52 10 -191 17 -236 11z
m260 -299 c124 -83 185 -265 152 -458 -28 -166 -112 -270 -244 -301 -253 -58
-438 142 -414 445 16 204 121 337 284 358 78 11 168 -7 222 -44z"/>
<path d="M3478 2775 c-2 -1 -57 -5 -123 -9 -66 -3 -129 -8 -140 -10 -11 -2
-39 -7 -62 -11 l-41 -7 -1 -624 0 -624 32 -1 c39 -1 215 -1 240 0 16 1 17 19
17 231 l0 230 70 0 69 0 40 -54 c43 -58 117 -170 149 -226 11 -19 36 -64 56
-98 20 -35 36 -68 36 -73 0 -5 21 -9 48 -10 102 -2 275 1 279 4 9 10 -115 231
-207 369 -91 137 -96 148 -77 154 42 13 129 86 158 132 40 63 52 112 52 207 0
189 -81 304 -261 368 -80 30 -110 35 -217 43 -44 3 -88 7 -97 8 -9 2 -18 3
-20 1z m152 -260 c102 -22 144 -69 144 -162 1 -118 -63 -162 -254 -170 l-120
-6 0 171 c0 120 3 171 12 174 19 7 181 2 218 -7z"/>
<path d="M8907 2774 c-1 -1 -51 -4 -112 -8 -122 -8 -201 -19 -213 -30 -4 -4
-7 -286 -7 -627 l0 -619 67 -1 c85 -1 105 -1 171 0 l52 1 -1 230 -2 230 67 0
c61 0 70 -3 92 -27 34 -38 89 -119 89 -131 0 -5 7 -15 14 -22 8 -6 49 -72 91
-146 73 -127 78 -134 108 -135 124 -2 279 0 284 4 10 10 -118 240 -208 375
-49 73 -89 135 -89 137 0 2 24 16 53 33 125 71 179 177 172 341 -10 218 -139
338 -410 380 -62 10 -212 20 -218 15z m184 -259 c56 -12 105 -42 127 -77 30
-47 25 -147 -9 -184 -50 -53 -83 -64 -235 -71 l-111 -5 0 170 0 171 26 3 c40
5 165 1 202 -7z"/>
<path d="M494 2722 c-141 -296 -244 -549 -409 -1004 l-82 -228 36 -1 c41 -1
191 -1 236 0 30 1 31 3 75 136 41 125 46 135 70 136 220 5 464 -1 470 -12 5
-6 27 -68 50 -136 39 -115 44 -123 69 -124 51 -2 274 1 277 3 2 3 -57 180 -73
218 -3 8 -7 20 -9 25 -4 17 -182 483 -199 522 -10 21 -21 47 -25 58 -45 108
-110 256 -146 333 -24 52 -44 97 -44 101 0 4 -63 8 -139 9 l-139 0 -18 -36z
m166 -304 c7 -18 16 -43 21 -55 5 -13 13 -33 18 -45 5 -13 14 -36 21 -53 7
-16 32 -85 56 -152 l44 -123 -180 0 -180 0 19 48 c10 26 49 129 87 229 38 101
72 183 75 183 4 0 12 -15 19 -32z"/>
<path d="M1274 2726 c9 -49 12 -61 49 -231 63 -285 161 -653 254 -949 l18 -59
127 1 c70 0 132 3 137 6 8 5 138 390 145 429 1 6 14 50 28 97 15 47 36 114 46
150 12 37 23 59 26 50 6 -17 124 -398 130 -420 13 -50 99 -297 107 -304 7 -8
62 -10 225 -7 l40 1 42 133 c37 119 117 400 127 444 2 10 15 63 30 118 32 125
114 488 121 536 l5 36 -148 -1 -148 -1 -6 -35 c-16 -89 -59 -328 -64 -350 -3
-14 -7 -37 -10 -52 -30 -165 -90 -426 -99 -435 -2 -2 -8 13 -14 34 -6 21 -34
112 -62 203 -28 91 -72 237 -97 325 -25 88 -49 165 -53 170 -7 8 -161 12 -236
6 -9 -1 -20 -33 -39 -117 -23 -99 -153 -534 -179 -595 -13 -31 -14 -29 -44 97
-40 166 -112 514 -137 664 -3 19 -8 47 -11 61 l-5 27 -155 -1 -156 0 6 -31z"/>
<path d="M5749 2756 c-1 0 -2 -286 -3 -633 l-1 -633 32 -1 c18 0 71 0 118 0
47 0 96 0 110 0 l25 1 0 412 0 411 25 -29 c114 -129 328 -437 465 -667 l75
-127 58 -1 c69 -1 117 -1 156 0 l29 1 -1 635 0 634 -143 -1 -142 -1 -1 -321
c0 -177 0 -343 -1 -370 l0 -49 -93 134 c-164 237 -308 424 -422 547 l-55 59
-115 1 c-63 0 -116 -1 -116 -2z"/>
<path d="M9799 2756 c-1 -1 -2 -286 -3 -633 l-1 -633 50 -1 c416 -5 845 -2
846 6 1 6 2 61 3 123 l2 112 -307 0 -306 0 0 150 0 150 76 1 c42 0 156 0 254
0 l177 -1 0 120 0 120 -252 2 -253 3 -1 120 -2 120 284 0 284 0 1 52 c0 29 1
71 1 93 0 22 -1 53 -1 69 l-1 28 -425 0 c-234 0 -426 -1 -426 -1z"/>
</g>
</svg>
