<svg id="Layer_1" data-name="Layer 1" xmlns="http://www.w3.org/2000/svg" viewBox="0 0 513.09 373.12"><defs><style>.cls-1{fill:#47c2c6;}.cls-2{fill:#e32b2d;}.cls-3{fill:#1fb463;}</style></defs><title>Awronore</title><path class="cls-1" d="M211.38,483c-.68-2.12-1.4-4.29-2.18-6.52l-2.33-6.66H183.1l-2.31,6.68q-1.17,3.34-2.16,6.5H164.4q3.43-9.84,6.52-18.18t6-15.72q3-7.38,5.82-14t5.95-13h13q3,6.33,5.91,13t5.87,14q3,7.37,6.05,15.72T226.06,483Zm-16.46-47.08c-.31.89-.75,2.09-1.34,3.61s-1.26,3.28-2,5.27-1.6,4.19-2.52,6.59-1.88,4.91-2.84,7.54h17.41q-1.4-4-2.71-7.56t-2.49-6.6c-.78-2-1.47-3.75-2.06-5.27S195.28,436.76,194.92,435.89Z" transform="translate(-164.4 -111.08)"/><path class="cls-1" d="M271.26,428.6c.7,2.4,1.48,5.11,2.32,8.13s1.76,6.13,2.72,9.35,1.95,6.44,2.94,9.66,2,6.21,2.89,9q1.15-4.49,2.34-9.75c.79-3.51,1.55-7.14,2.25-10.89s1.4-7.48,2.08-11.2,1.3-7.3,1.89-10.76h14.24q-3.1,15.28-7.12,31T289.11,483H276.58q-3.07-8.43-6-17.7t-5.7-18.58q-2.82,9.31-5.63,18.58T253.4,483H240.88q-4.68-14.14-8.69-29.86t-7.1-31h14.84q.88,5.19,1.94,10.76t2.21,11.2c.77,3.75,1.54,7.38,2.34,10.89s1.6,6.76,2.43,9.75q1.58-4.31,3.08-9.14c1-3.21,2-6.44,2.9-9.66s1.8-6.32,2.6-9.31,1.51-5.65,2.15-8Z" transform="translate(-164.4 -111.08)"/><path class="cls-1" d="M331.45,421.4q13.69,0,21,4.87t7.29,15.15q0,6.42-2.94,10.41a19.32,19.32,0,0,1-8.48,6.28q1.85,2.29,3.87,5.23c1.34,2,2.68,4,4,6.15s2.59,4.36,3.82,6.67,2.37,4.58,3.43,6.81H348.1c-1.11-2-2.25-4-3.39-6.06s-2.32-4-3.53-6-2.39-3.77-3.57-5.49a58.09,58.09,0,0,0-3.53-4.7h-6.76V483h-13.7V423a80,80,0,0,1,9.27-1.23Q327.67,421.41,331.45,421.4Zm.79,11.68c-1,0-1.89,0-2.68.09l-2.24.18v16.51h3.87q7.72,0,11.06-1.94c2.23-1.28,3.34-3.48,3.34-6.58s-1.13-5.11-3.38-6.37S336.63,433.08,332.24,433.08Z" transform="translate(-164.4 -111.08)"/><path class="cls-1" d="M428.59,452.49a37.55,37.55,0,0,1-2.33,13.75,28.26,28.26,0,0,1-6.37,9.92,26.09,26.09,0,0,1-9.62,6,35,35,0,0,1-12,2,34.21,34.21,0,0,1-11.77-2,27,27,0,0,1-9.66-6,28,28,0,0,1-6.5-9.92A36.91,36.91,0,0,1,368,452.49a35.62,35.62,0,0,1,2.45-13.74,29.09,29.09,0,0,1,6.64-10,27.34,27.34,0,0,1,9.66-6.06,33.1,33.1,0,0,1,11.55-2,33.91,33.91,0,0,1,11.76,2,27,27,0,0,1,9.67,6.06,28.48,28.48,0,0,1,6.49,10A36.62,36.62,0,0,1,428.59,452.49Zm-46.46,0a27.71,27.71,0,0,0,1.09,8.08,18.29,18.29,0,0,0,3.17,6.19,13.88,13.88,0,0,0,5.05,4,17.22,17.22,0,0,0,13.65,0,14,14,0,0,0,5.1-4,18.46,18.46,0,0,0,3.16-6.19,27.7,27.7,0,0,0,1.1-8.08,28.18,28.18,0,0,0-1.1-8.12,18.52,18.52,0,0,0-3.16-6.24,13.94,13.94,0,0,0-5.1-4,15.94,15.94,0,0,0-6.8-1.41,15.43,15.43,0,0,0-6.85,1.45,14.31,14.31,0,0,0-5.05,4,18.4,18.4,0,0,0-3.17,6.23A27.92,27.92,0,0,0,382.13,452.49Z" transform="translate(-164.4 -111.08)"/><path class="cls-2" d="M480.84,483q-5.88-10.46-12.73-20.64a211,211,0,0,0-14.58-19.24V483H440V422.1h11.16q2.89,2.91,6.41,7.12t7.16,9q3.64,4.78,7.24,9.92t6.77,9.88V422.1h13.61V483Z" transform="translate(-164.4 -111.08)"/><path class="cls-2" d="M564.37,452.49A37.55,37.55,0,0,1,562,466.24a28.26,28.26,0,0,1-6.37,9.92,26.13,26.13,0,0,1-9.61,6,35.13,35.13,0,0,1-12,2,34.21,34.21,0,0,1-11.77-2,27,27,0,0,1-9.66-6,28,28,0,0,1-6.5-9.92,36.91,36.91,0,0,1-2.37-13.75,35.62,35.62,0,0,1,2.46-13.74,29.06,29.06,0,0,1,6.63-10,27.34,27.34,0,0,1,9.66-6.06,33.1,33.1,0,0,1,11.55-2,34,34,0,0,1,11.77,2,27,27,0,0,1,9.66,6.06,28.51,28.51,0,0,1,6.5,10A36.82,36.82,0,0,1,564.37,452.49Zm-46.46,0a27.71,27.71,0,0,0,1.09,8.08,18.47,18.47,0,0,0,3.17,6.19,14,14,0,0,0,5.05,4,17.22,17.22,0,0,0,13.65,0,14,14,0,0,0,5.1-4,18.46,18.46,0,0,0,3.16-6.19,27.7,27.7,0,0,0,1.1-8.08,28.18,28.18,0,0,0-1.1-8.12,18.52,18.52,0,0,0-3.16-6.24,13.94,13.94,0,0,0-5.1-4,15.94,15.94,0,0,0-6.8-1.41,15.43,15.43,0,0,0-6.85,1.45,14.4,14.4,0,0,0-5.05,4,18.58,18.58,0,0,0-3.17,6.23A27.92,27.92,0,0,0,517.91,452.49Z" transform="translate(-164.4 -111.08)"/><path class="cls-2" d="M593.61,421.4q13.71,0,21,4.87t7.29,15.15q0,6.42-2.94,10.41a19.29,19.29,0,0,1-8.47,6.28c1.23,1.53,2.51,3.27,3.86,5.23s2.68,4,4,6.15,2.59,4.36,3.82,6.67,2.37,4.58,3.42,6.81H610.27l-3.4-6.06c-1.14-2.05-2.32-4-3.52-6s-2.4-3.77-3.57-5.49-2.36-3.3-3.53-4.7h-6.76V483H575.78V423a80.28,80.28,0,0,1,9.27-1.23C588.24,421.52,591.1,421.4,593.61,421.4Zm.79,11.68q-1.49,0-2.67.09l-2.24.18v16.51h3.86q7.73,0,11.07-1.94c2.22-1.28,3.33-3.48,3.33-6.58s-1.12-5.11-3.38-6.37S598.8,433.08,594.4,433.08Z" transform="translate(-164.4 -111.08)"/><path class="cls-2" d="M634.37,483V422.1h41.1v11.51h-27.4v11.94H672.4V456.8H648.07v14.66h29.42V483Z" transform="translate(-164.4 -111.08)"/><path class="cls-2" d="M505.29,214.81v23.41H466.45a1.41,1.41,0,0,0-.77.22,1.44,1.44,0,0,0-.69.87l-3.16,10.27-3-18.8a1.53,1.53,0,0,0-3-.09l-4.22,18.5L446,214.81l-.14-.84a1.51,1.51,0,0,0-1.45-1.29,1.54,1.54,0,0,0-1.56,1.18l-.23.95L435,247.24l-4.26-18.48a1.55,1.55,0,0,0-1.22-1.16,1.5,1.5,0,0,0-1.54.64l-7.41,10.82h-39.6V214.81h39.6v-39.6h45.14v39.6Z" transform="translate(-164.4 -111.08)"/><path class="cls-3" d="M505.29,241.3V260H465.68v39.6H420.54V260h-39.6V242.15h40.4a1.54,1.54,0,0,0,1.26-.68l5.9-8.59,4.95,21.49a1.56,1.56,0,0,0,1.5,1.19,1.53,1.53,0,0,0,1.5-1.19l7.6-32.27,5.78,35.35a1.54,1.54,0,0,0,1.46,1.3h0a1.53,1.53,0,0,0,1.5-1.2l4.2-18.43,2.79,17.48a1.54,1.54,0,0,0,3,.21l2.86-9.31,1.91-6.2Z" transform="translate(-164.4 -111.08)"/><path class="cls-3" d="M574.57,242.53A131.51,131.51,0,0,1,471.72,370.86a121.76,121.76,0,1,0-146.78-70.69,131.47,131.47,0,1,1,249.63-57.64Z" transform="translate(-164.4 -111.08)"/><path class="cls-1" d="M267.32,402.11a167.85,167.85,0,0,1,30.65-8c20.88-3.36,33.93-2.31,50.21-1.64A163.7,163.7,0,0,0,389.37,389a234.6,234.6,0,0,0,25.3-7.08c24.95-8.47,70.85-54.1,88.94-76.31.76-.94-.44-2.25-1.54-1.75l-80.6,37.15a159.63,159.63,0,0,1-43.34,13c-11.16,1.65-14.66.93-15.52-1.9C360,343.46,373,338.9,380.25,335.36c11.62-5.64,21.15-7.11,31.06-15.95a46.89,46.89,0,0,0,7.74-8.94,1.21,1.21,0,0,0-1.25-1.86L348,322.16a102.73,102.73,0,0,0-54.2,28.92,99.41,99.41,0,0,0-14.29,18.7A101.31,101.31,0,0,0,267.32,402.11Z" transform="translate(-164.4 -111.08)"/></svg>