<svg id="svg8" xmlns="http://www.w3.org/2000/svg" xmlns:xlink="http://www.w3.org/1999/xlink" viewBox="0 0 992.13 274.98"><defs><style>.cls-1,.cls-5,.cls-7{fill:#fff;}.cls-14,.cls-2,.cls-8{fill:#8ad0d5;}.cls-18,.cls-2,.cls-4,.cls-5,.cls-6,.cls-7,.cls-8,.cls-9{stroke:#5fbfc5;}.cls-10,.cls-18,.cls-2,.cls-24,.cls-4,.cls-5,.cls-8,.cls-9{stroke-linecap:round;stroke-linejoin:round;}.cls-2,.cls-4{stroke-width:2px;}.cls-3{fill:#5fbfc5;}.cls-4{fill:url(#linear-gradient);}.cls-10,.cls-11,.cls-5,.cls-6,.cls-7{stroke-width:1.5px;}.cls-10,.cls-22,.cls-24,.cls-6{fill:none;}.cls-6,.cls-7{stroke-dasharray:6 1.5;}.cls-8{stroke-width:3px;}.cls-9{stroke-width:1.5px;fill:url(#linear-gradient-2);}.cls-10{stroke:#fff;}.cls-11{stroke:#ccc;fill:url(#linear-gradient-3);}.cls-12{fill:#93d0a5;}.cls-13{fill:#4caf6a;}.cls-15{fill:#f4cbba;}.cls-16{fill:#e6b699;}.cls-17{fill:#f2f2f2;}.cls-18{fill:#333;}.cls-19{fill:#e6e6e6;}.cls-20{fill:#d8d8d8;}.cls-21{fill:#f9f9f9;}.cls-22{stroke:#d8d8d8;stroke-width:0.26px;}.cls-23{fill:#ccc;}.cls-24{stroke:#4a4f54;stroke-width:1.4px;}.cls-25{fill:url(#linear-gradient-4);}.cls-26{fill:#8cd789;}.cls-27{fill:url(#linear-gradient-5);}.cls-28{fill:#4a4f54;}.cls-29{fill:#999;}.cls-30{fill:#b3b3b3;}.cls-31{fill:#d2d2d2;}.cls-32{fill:#dd544c;}.cls-33{fill:#eda4a0;}.cls-34{fill:#b8b8b8;}.cls-35{fill:#6a7178;}.cls-36{fill:#1bad13;}.cls-37{fill:green;}</style><linearGradient id="linear-gradient" x1="184.58" y1="361.88" x2="184.58" y2="278.57" gradientTransform="matrix(2.83, 0, 0, -2.83, -29.35, 1078.91)" gradientUnits="userSpaceOnUse"><stop offset="0" stop-color="#fff"/><stop offset="1" stop-color="#ececec"/></linearGradient><linearGradient id="linear-gradient-2" x1="245.89" y1="352.86" x2="245.89" y2="284.52" xlink:href="#linear-gradient"/><linearGradient id="linear-gradient-3" x1="312.3" y1="394.06" x2="321.64" y2="394.06" gradientTransform="matrix(0, 2.95, 2.95, 0, -345.16, -734.45)" xlink:href="#linear-gradient"/><linearGradient id="linear-gradient-4" x1="-28.63" y1="363.22" x2="-21.92" y2="363.22" gradientTransform="matrix(1.33, -0.1, -0.18, -1.97, 666.32, 929.88)" gradientUnits="userSpaceOnUse"><stop offset="0" stop-color="#f4cbba"/><stop offset="1" stop-color="#f4a686"/></linearGradient><linearGradient id="linear-gradient-5" x1="-28.63" y1="363.22" x2="-21.92" y2="363.22" gradientTransform="matrix(1.33, -0.1, -0.18, -1.97, 707.8, 929.1)" xlink:href="#linear-gradient-4"/></defs><title>awronore-header</title><g id="layer2"><rect id="rect6301" class="cls-1" y="205.92" width="992.13" height="69.06"/><g id="g4804"><rect id="rect4558" class="cls-2" x="445.59" y="206.25" width="96.54" height="21.5"/><rect id="rect4580" class="cls-2" x="287.15" y="1" width="413.42" height="200.89"/><path id="rect4591" class="cls-3" d="M287.15,37.83V238.72H493.86V37.83ZM445.59,243.08v21.5h48.27v-21.5Z" transform="translate(0 -36.83)"/><rect id="rect4556" class="cls-4" x="300.78" y="9.84" width="386.17" height="183.22"/><rect id="rect4560" class="cls-5" x="388.26" y="80.73" width="211.2" height="29.99"/><path id="path4582" class="cls-6" d="M388.26,147.55l-217.71,36.7" transform="translate(0 -36.83)"/><path id="path4584" class="cls-6" d="M688.27,154.17,829,147.55" transform="translate(0 -36.83)"/><path id="path4586" class="cls-7" d="M171.38,187a61.86,61.86,0,0,1-61.86,61.86h0A61.85,61.85,0,0,1,47.66,187h0a61.86,61.86,0,1,1,123.72,0Z" transform="translate(0 -36.83)"/><path id="path4589" class="cls-7" d="M816.34,146.41a61.86,61.86,0,1,0,123.72,0h0A61.86,61.86,0,0,0,878.2,84.55h0A61.87,61.87,0,0,0,816.34,146.41Z" transform="translate(0 -36.83)"/></g></g><g id="layer1"><g id="g4930"><rect id="rect4916" class="cls-8" x="621.46" y="82.57" width="89.11" height="145.18"/><rect id="rect5212" class="cls-3" x="621.46" y="82.57" width="44.55" height="145.18"/><rect id="rect4924" class="cls-9" x="631.53" y="96" width="72.23" height="109.67"/><rect id="rect4918" class="cls-5" x="643.26" y="117.13" width="45.52" height="15.9"/><path id="path4920" class="cls-10" d="M652.44,126.43H679.6" transform="translate(0 -36.83)"/><circle id="path4922" class="cls-1" cx="666.02" cy="217.77" r="8.15"/><rect id="rect5263" class="cls-11" x="797.08" y="187.8" width="37.35" height="23.09" transform="translate(429.92 908.39) rotate(-76.38)"/><path id="path4767" class="cls-12" d="M789.47,150.62c-.66.95,2-10.61-7.44-20.38,0,0,25.48,7.06,18.81,40.38s-11,33.32-11,33.32-18.84.22-15.51-24.72c6.37-46.29,15.11-28.6,15.11-28.6Z" transform="translate(0 -36.83)"/><path id="path4837" class="cls-12" d="M747.27,150.56c.61,1-1.38-10.71,8.63-19.91,0,0-25.85,5.55-21.15,39.21s9,33.9,9,33.9,18.79,1.33,16.93-23.77c-3.66-46.58-13.42-29.43-13.42-29.43Z" transform="translate(0 -36.83)"/><path id="path4807" class="cls-12" d="M788.88,193.52s14.06,54,2.48,76.88-20.94-19-20.66-35c0,0-1.38,33.62-10.2,38.3s-29.21,3.31-11.57-82.12c14.05,9.37,40,1.93,40,1.93Z" transform="translate(0 -36.83)"/><path id="path6366" class="cls-13" d="M750.78,132.59c-.62.31-1.28.66-2,1.07-3.44,10.08-11.89,39.81-4.51,70.11a15.65,15.65,0,0,0,15.11-11c.56-3.18,1-6.17,1.38-8.74,0-1.26,0-2.59-.11-4-.43-5.44-1-10-1.51-13.82l-3.66-14.63c-3.72-8-7.65-1.95-8.12-1.18a28,28,0,0,1,4.18-14.59Z" transform="translate(0 -36.83)"/><path id="path6361" class="cls-13" d="M748.93,191.59c-15.81,76.56-1.08,85.6,8.5,83.29-7.25-36.52-18.38-75.75,33.86-70.61-1.32-6.5-2.41-10.75-2.41-10.75s-25.9,7.44-40-1.93Z" transform="translate(0 -36.83)"/><path id="path6371" class="cls-13" d="M792.08,200.77a15.64,15.64,0,0,1-15.1-11c-.56-3.18-1-6.17-1.39-8.74,0-1.26,0-2.59.12-4,.43-5.44.94-10,1.51-13.82l3.66-14.63c3.72-8,7.65-1.95,8.11-1.18a44.13,44.13,0,0,0-6-15.81c18.83,9.56,10.5,63,9.1,69.22Z" transform="translate(0 -36.83)"/><path id="path4797" class="cls-14" d="M790.12,184.57s-28.45,7-42.29-2.15l-.19,11.89a62.31,62.31,0,0,0,42.28,1.36Z" transform="translate(0 -36.83)"/><path id="path4877" class="cls-15" d="M756.83,127.79l4.54-9.83,7.56-2.24,8.62,7L780,137.64l-5.15,13.22-21-19.38Z" transform="translate(0 -36.83)"/><path id="path6390" class="cls-16" d="M768.93,115.72,761.37,118l-4.54,9.83-3,3.69,10.47,9.67c.12-.16.23-.33.34-.5,3-5,8.47-10.83,13.3-15.56l-.38-2.34Z" transform="translate(0 -36.83)"/><path id="path4787" class="cls-1" d="M774.91,130.16l-5.54,12.75-2.49-12.75L753.57,126v7.76l8.59,55.16,14.69.55,6.93-42.68-.27-16.08L780.73,126Z" transform="translate(0 -36.83)"/><path id="path6373" class="cls-3" d="M747.83,182.42l-.19,11.89a49.42,49.42,0,0,0,7.9,2.56A19.48,19.48,0,0,1,769.46,195c16.45,3.47,20.49-10.1,20.49-10.1l-.37-.17c-2.76.65-28.65,6.4-41.75-2.27Z" transform="translate(0 -36.83)"/><path id="path6359" class="cls-17" d="M761.79,169.69l3,18.95,13.48.51,2.4-14.83c-7.72,9.61-15.8-.15-18.83-4.63Z" transform="translate(0 -36.83)"/><ellipse id="ellipse4879" class="cls-15" cx="768.15" cy="108.93" rx="13.28" ry="17.84" transform="translate(-6.17 23.6) rotate(-4.49)"/><path id="path4743" class="cls-12" d="M790.82,176.63c5.49,21.16-19.21,12.93-19.21,12.93,13.33-10.58,3.14-51.35,3.14-51.35s6,0,5.29-2.89c-1-3.81,3.63-3.73,2.16-6.13,18.49,22.62,5.93,36.45,8.62,47.44Z" transform="translate(0 -36.83)"/><path id="path4777" class="cls-12" d="M771.61,189.56s-11.11-11.73-7.51-50.26c0,0-4.71-1.11-6.09-3.05s.55-6.37-3.33-6.93-2.77,4.44-2.77,4.44c-7.76,14.21-5.31,21-5.4,35.26-.32,13.64,2,23.94,25.1,20.54Z" transform="translate(0 -36.83)"/><path id="path6378" class="cls-13" d="M773.4,256.84c3.57,15.38,10.28,28.75,18,13.56a30,30,0,0,0,1.35-3.09C781.57,266,776.08,261,773.4,256.84Z" transform="translate(0 -36.83)"/><path id="path6385" class="cls-16" d="M767.48,91.12a9.76,9.76,0,0,0-1.32.09c-7.27,1-12.28,9.77-11.18,19.56a22.74,22.74,0,0,0,2.37,7.91c8.63-31.49,22.78-16.18,22.78-16.18l-.89-2.68c-2.59-5.4-7.06-8.71-11.76-8.7Z" transform="translate(0 -36.83)"/><path id="path4885" class="cls-14" d="M776.59,100.35s16.29-.31,7.65-10.87-30.7-7.76-32.36,0c-12,6.35-2.87,25.42,5.66,25.78C755.21,113.35,754.8,85.41,776.59,100.35Z" transform="translate(0 -36.83)"/><path id="path4895" class="cls-14" d="M756.76,115.11s18.17,15.37,24.38-1.24C773.41,140.65,754,119.62,756.76,115.11Z" transform="translate(0 -36.83)"/><path id="path5281" class="cls-18" d="M811.5,189.71l11.81,2.36" transform="translate(0 -36.83)"/><path id="path5283" class="cls-18" d="M810.32,194.2l11.81,2.36" transform="translate(0 -36.83)"/><path id="path5285" class="cls-18" d="M809.14,198.92,821,201.28" transform="translate(0 -36.83)"/><path id="path6074" class="cls-15" d="M875.17,122.74,867,115.63l-7.82,1.07-5,9.94,3.91,14.57,10.12,9.94,11.19-26.28Z" transform="translate(0 -36.83)"/><path id="path6076" class="cls-16" d="M867,115.63l8.17,7.11,4.26,2.13L873,139.93c-1.93-1.32-3.27-4-2.06-9.31.66-2.93.23-8.65-2.06-7.68-6.31,2.69-8.11,2.32-12.49-.69l2.55-5.1h0l3.57-.91h0Z" transform="translate(0 -36.83)"/><path id="path6078" class="cls-12" d="M880,130.05c-1.15-2.49-11.6,11-25.36,4.66-13.82-1,7.53,17.19,7.53,17.19L877,158.68s13.82-10.05,11.81-12.81S880,130.05,880,130.05Z" transform="translate(0 -36.83)"/><ellipse id="ellipse6080" class="cls-15" cx="860.54" cy="105.68" rx="13.94" ry="16.83" transform="translate(6.96 220.85) rotate(-17.1)"/><path id="path6082" class="cls-16" d="M859.33,89.08a14.43,14.43,0,0,1,9.45,4.17c1.94,3.94,4.13,8.68,5.89,12.55a18.19,18.19,0,0,1,0,3.3C870.32,105,862,98,859.43,102.6c-2.33,4.17-7.82,7.69-11.88,8.13-.12-.31-.23-.63-.34-1-2.73-8.88,1-17.92,8.38-20.18a11.47,11.47,0,0,1,3.74-.52Z" transform="translate(0 -36.83)"/><path id="path6084" class="cls-14" d="M856.39,96.64c-2.33,6.09-7.15,11.62-12,11.3-4.52-.5-11.31-8-7-12.81.12-19.81,30.91-15.66,31.9-11.55,14-2.52,17.12,27.76,6.79,26.37-2.77-.75-7.29-19.59-19.6-13.31Z" transform="translate(0 -36.83)"/><path id="path6086" class="cls-13" d="M878.74,132.82,886,151l-21.26,2.07-.11,0-2.43-1.11a77.74,77.74,0,0,1-9.86-10.17,24.79,24.79,0,0,1,4.76-1.06c20.43-2.89,21.67-7.85,21.67-7.85Z" transform="translate(0 -36.83)"/><ellipse id="ellipse6383" class="cls-15" cx="820.08" cy="181.27" rx="9.35" ry="7.74" transform="translate(53.72 488.07) rotate(-36.62)"/><path id="path6420" class="cls-16" d="M822,172.93a10.41,10.41,0,0,0-6.53,2.13,9.08,9.08,0,0,0-.77.62c1.61,4.81,4.28,10.43,8.41,12.78a10.72,10.72,0,0,0,1.59-1c4.14-3.08,5.43-8.36,2.88-11.79h0a7.14,7.14,0,0,0-5.58-2.77Z" transform="translate(0 -36.83)"/><path id="path6088" class="cls-17" d="M869.21,141.08S860.6,143,854.56,127c0,0-15.27-.36-12.78,12.79s-18.27,34.05-25.37,34.05l12.07,10.3s31.41-12,27.86-24.46c0,0,6.69,33,2.42,40.5a95.15,95.15,0,0,0,17.48,4.69l7.81-16.42-11.11-25.63Z" transform="translate(0 -36.83)"/><path id="path6090" class="cls-19" d="M875.24,123s1,12.06-6,18.09c0,0,9,47.21,6.53,63.79,13.76-.16,18.23-.2,26.29-2.84,0,0-1.68-38.35-5.19-40.86l21.27,32.33c4.61-1.82,6.93-5.91,9.88-9.38,0,0-3-2.35-15.08-37S875.24,123,875.24,123Z" transform="translate(0 -36.83)"/><path id="path6092" class="cls-20" d="M881.48,121.61l5.09,23.31-9.05,2.91-2.68,19.07c1.23,8,4.23,73.69-.72,5.11-2-16-4.91-30.93-4.91-30.93,7-6,6-18.09,6-18.09a23.83,23.83,0,0,1,6.24-1.38Z" transform="translate(0 -36.83)"/><path id="path6106" class="cls-21" d="M877,122.43l3.08,18.2-4.86,1.55-2,22.93c-1.91-13.1-4.07-24-4.07-24,6.23-5.35,6.15-15.38,6-17.61l1.4-1,.35-.09Z" transform="translate(0 -36.83)"/><path id="path6108" class="cls-20" d="M852.74,137.16l5.26,12,8.67-.21-3.2-7-7.63-8.25Z" transform="translate(0 -36.83)"/><path id="path6110" class="cls-21" d="M858.55,144.62h5.1l9.48,20.83c-2.15-13.07-4.08-23.7-4.08-23.7-7.56-3.2-9.64-1.08-14.2-13.61-11,5.14.81-3.89,3.7,16.49Z" transform="translate(0 -36.83)"/><path id="path6114" class="cls-3" d="M866.91,81.79A4.76,4.76,0,0,1,869,83.22C868.34,82.72,867.62,82.26,866.91,81.79Zm4.19,1.64c12.39.4,14.73,27.84,4.89,26.52-2.77-.75-7.29-19.59-19.6-13.31-2.33,6.1-7.15,11.62-12,11.3a6.85,6.85,0,0,1-2.36-.79,40.11,40.11,0,0,0,5.19-6.93c16.3-26.83,26.83,10.11,30.75-1.86,1.8-5.51-2.88-10.76-8.45-14.82a8.33,8.33,0,0,1,1.63-.11Z" transform="translate(0 -36.83)"/><path id="path6116" class="cls-20" d="M900,152.2c5.39.53,16.43,24.83,22.32,38.61a13.52,13.52,0,0,1-4.19,2.69l-20.52-31.19c3,6.88,4.44,39.72,4.44,39.72a53.79,53.79,0,0,1-6,1.62c-9.52-30.13-3.49-47.21,2.93-51.22a1.56,1.56,0,0,1,1-.23Z" transform="translate(0 -36.83)"/><path id="path6118" class="cls-20" d="M855.78,161.55a2.37,2.37,0,0,1,1,1.19,39.16,39.16,0,0,1-26.24,19.37l-2.84-2.43C839.56,180,855.66,162.76,855.78,161.55Z" transform="translate(0 -36.83)"/><path id="path6120" class="cls-22" d="M869,141.49l5.16,28.07" transform="translate(0 -36.83)"/><rect id="rect4867" class="cls-12" x="881.47" y="149.46" width="16.08" height="9.94" transform="translate(-8.55 210.14) rotate(-15.73)"/><path id="path6395" class="cls-3" d="M766.73,82.57c-7.33.06-14,2.79-14.85,6.91-9.18,4.85-6,17.07-.23,22.77-.11-24.41,16.05-27.83,25.78-27.68a27.23,27.23,0,0,0-10.7-2Z" transform="translate(0 -36.83)"/><path id="path6400" class="cls-3" d="M756.76,115.11c-1.07,1.74,1.17,5.93,4.76,8.9a15.11,15.11,0,0,1,1.76-4.7,37.2,37.2,0,0,1-6.52-4.2Z" transform="translate(0 -36.83)"/><path id="path4817" class="cls-14" d="M774.82,275.76s21.29-19.64,24.94-2.65S774.82,275.76,774.82,275.76Z" transform="translate(0 -36.83)"/><path id="path4833" class="cls-14" d="M766.5,276.38s-21.29-19.64-24.94-2.66S766.5,276.38,766.5,276.38Z" transform="translate(0 -36.83)"/><path id="path6405" class="cls-3" d="M748.46,266.81c-3.18.06-5.82,1.87-6.9,6.91-1.32,6.13,1.57,8.17,5.79,8.29-2.38-8.72.65-12.79,4.84-14.61A12,12,0,0,0,748.46,266.81Z" transform="translate(0 -36.83)"/><path id="path6407" class="cls-3" d="M783.05,269.63a57.68,57.68,0,0,0-8.23,6.13s21.45,10.75,24.82,2.59c-7.91-2.62-13.17-5.86-16.59-8.72Z" transform="translate(0 -36.83)"/><path id="path5089" class="cls-13" d="M895.91,147.47l-8.25,2.32c3.39,1.49,6.9,4,8,8.07l2.92-.82Z" transform="translate(0 -36.83)"/></g></g><g id="layer3"><g id="g5056"><path id="rect5181" class="cls-23" d="M368.2,244.25v9h1.69v27.3h9v-27.3h98.53v27.3h9v-27.3h1.69v-9Z" transform="translate(0 -36.83)"/><path id="path4892" class="cls-24" d="M566.57,219.84l-2,57.25" transform="translate(0 -36.83)"/><ellipse id="ellipse4878" class="cls-25" cx="567.26" cy="216.86" rx="4.47" ry="4.08" transform="translate(297.75 724.26) rotate(-84.58)"/><path id="path4754" class="cls-26" d="M575.1,191.85c-.53-2.88-2.49-8,3.75-14.42-23.94,9.27-12,35.82-15.21,37,0,0,5.32,2.72,7.54-8.5C573.59,187.29,575.1,191.85,575.1,191.85Z" transform="translate(0 -36.83)"/><path id="path4882" class="cls-24" d="M609,219.84l2,57.25" transform="translate(0 -36.83)"/><ellipse id="ellipse4870" class="cls-27" cx="608.74" cy="216.09" rx="4.47" ry="4.08" transform="translate(336.08 764.84) rotate(-84.58)"/><path id="path4756" class="cls-12" d="M601.77,190.83c-.4.65.91-7.06-5.69-13.13,0,0,15.89,2.93,14.13,25.27-.78,10-.43,10-.43,10s-2.78,4.84-8.27-16.24c-1.48-27.8.26-5.9.26-5.9Z" transform="translate(0 -36.83)"/><path id="path4758" class="cls-12" d="M574.32,219.16s-9.26,35.61-1.63,50.7,13.81-12.54,13.63-23.08c0,0,.91,22.17,6.72,25.26s19.26,2.18,7.63-54.15c-9.26,6.17-26.35,1.27-26.35,1.27Z" transform="translate(0 -36.83)"/><path id="path4828" class="cls-15" d="M595.65,173.9l-3.27-7.08-5.44-1.61-6.21,5.06L579,181l3.71,9.52,15.12-13.95Z" transform="translate(0 -36.83)"/><path id="path6339" class="cls-16" d="M586.94,165.21l-6.21,5.06-1.18,7.29,6.42,7.59s-6.39-7.16,8.29-14.26l-1.88-4.07Z" transform="translate(0 -36.83)"/><ellipse id="ellipse4830" class="cls-15" cx="585.85" cy="160.87" rx="9.57" ry="12.85" transform="translate(-20.2 166.54) rotate(-19.37)"/><path id="path6334" class="cls-16" d="M583.62,148.35a7.31,7.31,0,0,0-1.62.27c-3.76,1.08-6.18,5.08-6.12,10.12,11.36-4.71,13-4.85,19.83,6.28a16.11,16.11,0,0,0-.65-6.77C593.18,152.28,588.36,148.11,583.62,148.35Z" transform="translate(0 -36.83)"/><path id="path4832" class="cls-14" d="M577.84,156.35s-6,2.8-5.78-5.91c6.22-7.6,11.37-11.1,24.13-3.58,8.67,4.58,5.37,18-.77,18.3C597.1,163.78,593.53,145.58,577.84,156.35Z" transform="translate(0 -36.83)"/><path id="path4762" class="cls-1" d="M583.54,177.38l3.65,8.4,1.65-8.4,8.77-2.75v5.12l-5.67,36.37-9.68.37-4.57-28.15.18-10.6,1.83-3.11Z" transform="translate(0 -36.83)"/><path id="path6302" class="cls-17" d="M576.55,199.35l3,18.94,13.48.51,2.4-14.83C587.66,213.58,579.58,203.83,576.55,199.35Z" transform="translate(0 -36.83)"/><path id="path6304" class="cls-13" d="M600.67,217.89c-8.06,5.37-22,2.36-25.52,1.49l-.87,0c-.21.82-6.37,24.94-4.1,41.63,4.21,1.75,9.44,3.81,9.44,3.81L586,252.32c0-.09,0-.19,0-.29-.91.77-4.34,2.41-7.56-13.21-3-14.57,15.82-15,23.43-14.67-.38-2-.78-4.08-1.23-6.26Z" transform="translate(0 -36.83)"/><path id="path4760" class="cls-14" d="M573.51,213.26s18.76,4.62,27.88-1.42l.13,7.84a41.09,41.09,0,0,1-27.88.9Z" transform="translate(0 -36.83)"/><path id="path6292" class="cls-13" d="M577,178.21a26.26,26.26,0,0,0-4.58,2.66c-3.22,19.47-6.49,17.61-8.45,13.67-1.86,9.62,1.54,19.19-.35,19.89,0,0,5.32,2.72,7.54-8.5,2.41-18.64,3.92-14.08,3.92-14.08-.47-2.56-2.05-6.86,1.95-12.3l0-1.34Z" transform="translate(0 -36.83)"/><path id="path6324" class="cls-3" d="M601.39,211.84c-9.12,6-27.88,1.41-27.88,1.41l.08,7c6.24,1.7,10.83-1.45,27.87-4.26Z" transform="translate(0 -36.83)"/><path id="path4764" class="cls-12" d="M573.05,208c-3.62,14,12.66,8.53,12.66,8.53-8.78-7-2.06-33.86-2.06-33.86s-4,0-3.49-1.91c.64-2.51-2.4-2.46-1.43-4-12.19,14.91-3.91,24-5.68,31.28Z" transform="translate(0 -36.83)"/><path id="path4766" class="cls-12" d="M585.71,216.55s7.33-7.74,4.95-33.14c0,0,3.11-.73,4-2s-.37-4.21,2.19-4.57,1.83,2.92,1.83,2.92c5.11,9.37,3.49,13.85,3.56,23.26.21,9-1.35,15.78-16.56,13.54Z" transform="translate(0 -36.83)"/><path id="path4790" class="cls-23" d="M567.94,246.52s16,7.4,17.91,5.84-3.51,26.09-3.51,26.09c-35,13.42-17.91-14.3-9.73-8.95C572.61,269.5,565.6,250.41,567.94,246.52Z" transform="translate(0 -36.83)"/><path id="path6354" class="cls-3" d="M584.59,142.69c-4.47-.13-7.67,2.22-11,5.92,4.55,2,13.3,4.81,27.67,5.42a9.69,9.69,0,0,0-5.1-7.17c-4.79-2.82-8.5-4.09-11.6-4.17Z" transform="translate(0 -36.83)"/><path id="path4852" class="cls-28" d="M583.18,138.94c-2.91,0-4.7.31-4.76.82a.5.5,0,0,0,.23.36l-.27-.06-4.13,7.16s9.63,6.06,26.16,3.58l-1.65-9.36-.24.13c-.47-.82-4.73-1.83-9.88-2.33-1.92-.19-3.82-.29-5.46-.3Z" transform="translate(0 -36.83)"/><circle id="path4894" class="cls-28" cx="567.45" cy="180.19" r="1.66"/><circle id="circle4896" class="cls-28" cx="608.92" cy="180.19" r="1.66"/><path id="path4898" class="cls-24" d="M562.87,199.59s-3.11,2.53,2.34,6.62" transform="translate(0 -36.83)"/><path id="path4900" class="cls-24" d="M611.07,199.59s3.12,2.53-2.33,6.62" transform="translate(0 -36.83)"/><path id="path6237" class="cls-29" d="M380.1,244.25c-6.92,11.47-6.88,27.13-6.09,36.31h4.88v-27.3h39.84a39,39,0,0,0,3.56-9Z" transform="translate(0 -36.83)"/><path id="path5009" class="cls-30" d="M440.08,227.69s38.67,18.11,21.65,58.64c-9.51-16.25-28.72-62-39.09-9.83-18.29,31.87-25.83-43.18-21.58-50.2C411.1,211.65,440.08,227.69,440.08,227.69Z" transform="translate(0 -36.83)"/><path id="path4937" class="cls-15" d="M409.87,161.49l4.16-9,6.94-2,7.91,6.44,2.21,13.66-4.73,12.13-19.25-17.78Z" transform="translate(0 -36.83)"/><ellipse id="ellipse4939" class="cls-15" cx="420.25" cy="144.2" rx="12.19" ry="16.36" transform="translate(-9.99 -3.51) rotate(-4.49)"/><path id="path6277" class="cls-16" d="M422.43,128.29l-6.51.4c-5.37,2.39-8.6,9.55-7.75,17.19A18.49,18.49,0,0,0,414,157.81c.6.37.8,0,.31-1.51-2.3-7.21,1.45-23.94,11.26-19,2.94,1.47,4.78,1.69,5.93,1.29-1.6-5.17-5-9-9.06-10.26Z" transform="translate(0 -36.83)"/><path id="path4941" class="cls-31" d="M419.57,123c-7.16.07-14.11,3.51-15,7.74-8.35,15.14.18,26.39,5,28.84,1.92,2.18,6.05,3.69,14.2,3.18,20.61-1.29,5.65-4.56,8.39-14.05-4.62,12.35-16.43,5.44-20.75,2.37.52-10.71,2.8-25.33,16.58-14.76,0,0,12.61,1.78,4.69-7.91-3.22-3.93-8.22-5.46-13.12-5.41Z" transform="translate(0 -36.83)"/><path id="path6257" class="cls-29" d="M414.56,220.13c-5.38,0-10.36,1.59-13.5,6.17-3.67,6,1.44,62.73,14.66,57.73,8-7.42,11.25-15.09-6.27-11.77-5.53-11.32-11-25.88-2.94-26.23,13.28-.58.29-28.27,23.37-13,14.4,9.53,21.95,8.63,25.59,6.61a53.57,53.57,0,0,0-15.39-12s-13.7-7.58-25.52-7.56Z" transform="translate(0 -36.83)"/><path id="path4971" class="cls-32" d="M439.49,215.52s-26.1,6.44-38.79-2l-.18,10.9a57.19,57.19,0,0,0,38.79,1.25Z" transform="translate(0 -36.83)"/><circle id="path5142" class="cls-15" cx="447.69" cy="195.61" r="6.62"/><path id="path5138" class="cls-30" d="M434.11,168.12s30.38,13.25,16,63.23c-1.28,3.52-16.64-18.6-15.91-29.84Z" transform="translate(0 -36.83)"/><path id="path4973" class="cls-1" d="M425.54,165.61l-5.08,11.7-2.29-11.7L406,161.8v7.12l7.88,50.6,13.48.5,6.36-39.15-.26-14.75-2.54-4.32Z" transform="translate(0 -36.83)"/><path id="path6247" class="cls-17" d="M410.89,200.57l2.95,19,13.48.5,2.41-14.82C422,214.81,413.92,205.05,410.89,200.57Z" transform="translate(0 -36.83)"/><path id="path6287" class="cls-29" d="M434.11,168.12v1.11c6.4,14.49,3.58,33.64,1.93,41.75a65.45,65.45,0,0,0,4.71,9.86c3.21-6.61,1.76-14.17,3.31-19.59,4-14-4.19-27.05-8.77-32.52-.73-.4-1.18-.61-1.18-.61Z" transform="translate(0 -36.83)"/><path id="path4976" class="cls-30" d="M440.13,208.24c5,19.42-17.62,11.87-17.62,11.87,12.23-9.71,2.88-47.11,2.88-47.11s5.52,0,4.85-2.65c-.9-3.49,3.34-3.42,2-5.62,17,20.74,5.45,33.43,7.91,43.51Z" transform="translate(0 -36.83)"/><circle id="circle5152" class="cls-15" cx="400.59" cy="197.79" r="6.62"/><path id="path5128" class="cls-30" d="M407.14,168.12s-32.39,19.52-10.69,62.72c0,0,12.23-20.12,12.23-29.33Z" transform="translate(0 -36.83)"/><path id="path4978" class="cls-30" d="M422.51,220.11s-10.19-10.77-6.89-46.11c0,0-4.32-1-5.59-2.8s.51-5.84-3-6.35-2.54,4.07-2.54,4.07c-7.12,13-4.87,19.26-5,32.34C399.19,213.77,401.35,223.22,422.51,220.11Z" transform="translate(0 -36.83)"/><path id="path5038" class="cls-24" d="M397.39,243.41s-27.15-17.63-.2,59.5" transform="translate(0 -36.83)"/><path id="path6262" class="cls-29" d="M442.72,256c7.22,7,14.3,22.31,19,30.35a60.08,60.08,0,0,0,2.17-6c-1.68-2.6-4.42-6.63-8.92-12.95-4.62-6.5-8.83-9.8-12.26-11.4Z" transform="translate(0 -36.83)"/><path id="path6242" class="cls-29" d="M406.36,164.81c-2.82.08-1.92,4.11-1.92,4.11-7.12,13-4.87,19.26-5,32.35-.27,11.81,1.65,20.89,19.7,19.23-28-8.89-14.46-46.06-11.31-55.4a3.7,3.7,0,0,0-1.51-.29Z" transform="translate(0 -36.83)"/><path id="path6252" class="cls-29" d="M392.34,186.09c-4.42,10.25-5.8,25,4.11,44.75,0,0,3.56-5.86,6.84-12.7-.37-.33-.76-.66-1.19-1C388.49,220.67,391.51,194.92,392.34,186.09Z" transform="translate(0 -36.83)"/><path id="path5118" class="cls-33" d="M428,287s-.57-13.06-8.18-12.36-11.78,4.88-11.46,12.14Z" transform="translate(0 -36.83)"/><path id="path6267" class="cls-32" d="M415.92,275.39c-5.13,1.61-7.85,5.48-7.59,11.4l11.07.12c-3.4-5.14-4-8.87-3.48-11.52Z" transform="translate(0 -36.83)"/><path id="path5100" class="cls-33" d="M451.28,286.42s.58-13.07,8.18-12.37,11.79,4.88,11.47,12.14Z" transform="translate(0 -36.83)"/><path id="path6272" class="cls-32" d="M458.77,274c-6.95.13-7.49,12.39-7.49,12.39l15-.17c-6.08-4.72-6.37-9-5.29-12-.49-.08-1-.15-1.51-.2a5.4,5.4,0,0,0-.69,0Z" transform="translate(0 -36.83)"/><path id="path6282" class="cls-34" d="M408.85,125.8c-2.29,1.34-3.89,3.06-4.3,5-8.34,15.14.19,26.39,5,28.84,1.54,1.75,4.52,3.07,9.87,3.26-20-12-14.27-29.63-10.6-37Z" transform="translate(0 -36.83)"/><path id="path6297" class="cls-13" d="M573.3,205.62a9.55,9.55,0,0,1-.25,2.4c-3.62,14,12.66,8.53,12.66,8.53a6.32,6.32,0,0,1-.6-.56c-9.08-1.78-11.28-7.64-11.81-10.37Z" transform="translate(0 -36.83)"/><path id="path6309" class="cls-29" d="M477.42,261.4v19.16h4.84a49.06,49.06,0,0,0-4.84-19.16Z" transform="translate(0 -36.83)"/><path id="path6314" class="cls-29" d="M567.93,246.52c-2.33,3.89,4.68,23,4.68,23-6.12-4-17.21,10.5-7.77,12.45-3.82-13.65,14.47-1.43,10.88-14.61-2.28-8.34,1.08-13.39,4-16C574.47,249.54,567.93,246.52,567.93,246.52Z" transform="translate(0 -36.83)"/><path id="path6319" class="cls-13" d="M587.88,260.43c1,5.22,2.61,10.25,5.16,11.61,3,1.59,8,2.1,10.6-5.49C595.74,268.33,590.56,263.85,587.88,260.43Z" transform="translate(0 -36.83)"/><path id="path4770" class="cls-14" d="M589.71,275.56s15.48-16.36,18.13-2.21S589.71,275.56,589.71,275.56Z" transform="translate(0 -36.83)"/><path id="path6329" class="cls-13" d="M601.21,190.83c.08,1.74.17,3.41.3,5.9.89,3.4,1.7,6.08,2.44,8.26A16.18,16.18,0,0,0,601.21,190.83Z" transform="translate(0 -36.83)"/><path id="path6346" class="cls-35" d="M583.18,138.94c-2.91,0-4.7.31-4.76.82a.5.5,0,0,0,.23.36l-.27-.06-4.13,7.16a25,25,0,0,0,5.27,2.24c-3.66-7.89,6.5-7.79,6.5-7.79-2.85-1.06-2.43-2-.84-2.68-.7,0-1.37,0-2-.05Z" transform="translate(0 -36.83)"/><path id="path6415" class="cls-3" d="M596.4,270a42.33,42.33,0,0,0-6.69,5.57s17.23,9.9,18.31,1A29.09,29.09,0,0,1,596.4,270Z" transform="translate(0 -36.83)"/></g></g><g id="layer4"><g id="g5224"><path id="path5185" class="cls-15" d="M219.11,261.8l-9,2.4s-2.13,18.37,2.33,15.43,6.63-17.83,6.63-17.83Zm1.55,0s2.16,14.9,6.63,17.83,2.34-15.43,2.34-15.43Z" transform="translate(0 -36.83)"/><path id="path5169" class="cls-15" d="M273.05,172.88l-12.69,5.46s.36,12.45,2.4,19a22.21,22.21,0,0,0-1.6,9.33c.12,6.5,2.25,11.72,4.75,11.68s4.44-5.35,4.33-11.84a24.09,24.09,0,0,0-1.44-8.15c4.25-7.59,4.25-25.47,4.25-25.47Z" transform="translate(0 -36.83)"/><path id="path4621" class="cls-15" d="M117.49,164.28l8.17-7.1,7.82,1.06,5,9.95-3.91,14.56-10.12,9.95-11.19-26.29Z" transform="translate(0 -36.83)"/><path id="path5918" class="cls-16" d="M125.66,157.18l-8.17,7.1-4.26,2.13,6.41,15.07c1.93-1.32,3.27-4,2.06-9.32-.66-2.92-.23-8.64,2.06-7.67,6.31,2.68,8.11,2.31,12.49-.69l-2.55-5.11h0l-3.57-.9h0Z" transform="translate(0 -36.83)"/><path id="path4619" class="cls-36" d="M112.65,171.59c1.16-2.49,11.6,11,25.37,4.66,13.82-1-7.53,17.19-7.53,17.19l-14.82,6.79s-13.82-10-11.81-12.81S112.65,171.59,112.65,171.59Z" transform="translate(0 -36.83)"/><ellipse id="path4631" class="cls-15" cx="132.12" cy="147.23" rx="16.83" ry="13.94" transform="translate(-47.44 193.39) rotate(-72.9)"/><path id="path5913" class="cls-16" d="M133.32,130.63a14.38,14.38,0,0,0-9.44,4.17c-1.95,3.93-4.14,8.68-5.9,12.55a19.13,19.13,0,0,0,0,3.3c4.35-4.12,12.69-11.08,15.24-6.5,2.33,4.17,7.82,7.69,11.88,8.13.12-.32.23-.63.33-.95,2.74-8.89-1-17.92-8.37-20.19a11.84,11.84,0,0,0-3.75-.51Z" transform="translate(0 -36.83)"/><path id="path4641" class="cls-14" d="M136.26,138.18c2.33,6.1,7.16,11.63,12.06,11.31,4.52-.51,11.3-8,7-12.81-.11-19.82-30.9-15.67-31.9-11.56-14-2.51-17.11,27.76-6.78,26.38,2.76-.76,7.29-19.6,19.59-13.32Z" transform="translate(0 -36.83)"/><ellipse id="ellipse5222" class="cls-15" cx="165.16" cy="233.34" rx="5.13" ry="13.3" transform="translate(-103.46 294.35) rotate(-74.72)"/><path id="path5931" class="cls-37" d="M113.92,174.37l-7.23,18.16L128,194.59l.11,0,2.43-1.11a77.36,77.36,0,0,0,9.86-10.16,24.63,24.63,0,0,0-4.77-1.07c-20.43-2.89-21.66-7.84-21.66-7.84Z" transform="translate(0 -36.83)"/><path id="path5967" class="cls-16" d="M159,227.28c-3.75,0-6.26.92-6.71,2.56-.74,2.73,4.4,6.52,11.48,8.46s13.44,1.28,14.18-1.45a2.14,2.14,0,0,0,0-1c-6.87,3.95-23.8.69-17.14-8.44-.63-.05-1.24-.09-1.83-.09Z" transform="translate(0 -36.83)"/><path id="path4609" class="cls-17" d="M123.45,182.62s8.61,1.91,14.64-14.07c0,0,15.28-.36,12.79,12.78s6,45.48,13.13,45.48l-12.08,10.31s-19.16-23.46-15.61-35.89c0,0-6.69,33-2.43,40.49a95,95,0,0,1-17.47,4.7L108.61,230l11.1-25.63Z" transform="translate(0 -36.83)"/><path id="path4599" class="cls-19" d="M117.42,164.54s-1,12.05,6,18.08c0,0-9,47.22-6.53,63.8-13.76-.16-18.23-.21-26.29-2.84,0,0,1.67-38.35,5.19-40.86L74.55,235c-4.61-1.81-6.94-5.9-9.89-9.37,0,0,3-2.36,15.08-37s37.68-24.11,37.68-24.11Z" transform="translate(0 -36.83)"/><path id="path5941" class="cls-20" d="M111.17,163.15l-5.08,23.31,9,2.92,2.69,19.07c-1.23,8-4.23,73.68.72,5.11,2-16,4.91-30.94,4.91-30.94-7-6-6-18.08-6-18.08a24.07,24.07,0,0,0-6.25-1.39Z" transform="translate(0 -36.83)"/><path id="path4703" class="cls-3" d="M115.09,163.08a1.44,1.44,0,0,0-.87.33,7.41,7.41,0,0,0-1,1.16,16.06,16.06,0,0,0-1.87,3.49c-1.26,3.15-2.39,8.18-2.26,15.86a4.41,4.41,0,1,0,2.84.47c-.19-7.69.93-12.47,2.06-15.28a13.46,13.46,0,0,1,1.52-2.87,3.64,3.64,0,0,1,.55-.65,1.41,1.41,0,0,0-.94-2.51Zm-5.28,23.61a1.57,1.57,0,1,1-1.56,1.56A1.55,1.55,0,0,1,109.81,186.69Z" transform="translate(0 -36.83)"/><path id="path5948" class="cls-20" d="M130.53,189.74s-.93,7.54.2,8.36c0,0-1.34,3.72,1.14,5s4.13-2.69,4.13-2.69l-2.89-3.61,1.44-6.5,3.72-5.16s3.92,1.14,3.5,10.84c0,0-2.16,4.33.83,5.36s2.17-3.09,2.17-3.09l-.83-11.87-3.82-3.1Z" transform="translate(0 -36.83)"/><path id="path4720" class="cls-21" d="M115.64,164l-3.07,18.21,4.86,1.54,1.95,22.94c1.91-13.1,4.07-24,4.07-24-6.23-5.34-6.15-15.38-6-17.6l-1.4-1-.36-.1Z" transform="translate(0 -36.83)"/><path id="path5946" class="cls-20" d="M139.92,178.7l-5.27,12-8.66-.2,3.2-7,7.63-8.25Z" transform="translate(0 -36.83)"/><path id="path4733" class="cls-21" d="M134.1,186.16H129L119.53,207c2.15-13.06,4.07-23.7,4.07-23.7,7.56-3.2,9.65-1.07,14.21-13.61C148.79,174.82,137,165.79,134.1,186.16Z" transform="translate(0 -36.83)"/><path id="path5039" class="cls-15" d="M234.36,214s2.16,14.91,6.62,17.84,2.34-15.43,2.34-15.43Z" transform="translate(0 -36.83)"/><ellipse id="ellipse5041" class="cls-15" cx="242.06" cy="235.65" rx="3.23" ry="8.36" transform="translate(-25.45 -7.48) rotate(-6.59)"/><path id="path5047" class="cls-33" d="M227.88,196.29s2.62,19.82,8.64,22.89c1.91,1,6.59-.84,6.76-3.51.37-5.77-3.8-17.6-3.8-17.6Z" transform="translate(0 -36.83)"/><path id="path5025" class="cls-15" d="M192,207.12s-9.09,6.39-12,11.55a18.65,18.65,0,0,0-5,.7c-4.46,1.22-7.69,3.59-7.22,5.31s4.46,2.13,8.92.91h0c3.06-.83,5.67-2.27,6.74-3.7a69.81,69.81,0,0,0,10.47-5.68Z" transform="translate(0 -36.83)"/><path id="path5008" class="cls-15" d="M228.89,197.29,225,189.63l-6.09-1.53-6.2,8.35-1.83,9.43,4.53,10.34,16-16.1Z" transform="translate(0 -36.83)"/><path id="path6182" class="cls-16" d="M193.16,212.77c-2.88,3.77-11,7.44-11,7.44-.6,2.55-9.13,4.55-13.61,5.42,1.51.9,4.74.88,8.1,0,3.06-.83,5.67-2.27,6.74-3.7a69.81,69.81,0,0,0,10.47-5.68Z" transform="translate(0 -36.83)"/><path id="path4936" class="cls-33" d="M206.43,195.08s-17.64,9.4-18.41,16.11c-.24,2.13,3.09,5.88,5.66,5.1,5.53-1.67,15.15-9.72,15.15-9.72Z" transform="translate(0 -36.83)"/><path id="path5962" class="cls-16" d="M218.87,188.1l-3.13,4.22c2,6.57,18.48-1.79-1.09,8.11-3.36,3.65,6.88,5.49,12.85,3.61l3.91-3.92-2.52-2.83L225,189.63Z" transform="translate(0 -36.83)"/><path id="path6044" class="cls-16" d="M219.11,261.8l-9,2.4a84.35,84.35,0,0,0-.51,8.88,36.09,36.09,0,0,1,7.31-1.66,73.64,73.64,0,0,0,2.16-9.62Zm1.55,0a73.85,73.85,0,0,0,2.07,9.31,54,54,0,0,1,7.39.63c-.07-3.82-.49-7.54-.49-7.54Z" transform="translate(0 -36.83)"/><path id="path4926" class="cls-33" d="M201.67,199.31c.43-4.46,11.06-3.61,11.06-3.61s-1.56,9.23,12.55,1.06c0,0,9.79-3.19,12.76,1.7,0,0-7.65,10.64-5.1,21.49,0,0,6.17,33.82,5.32,45.94,0,0-14.26,2.77-14.47.85,0,0-14.68,5.11-15.31,1.07,0,0-8.72,1.27-8.3-1.28,0,0,13.61-51,1.49-67.22Z" transform="translate(0 -36.83)"/><path id="path6008" class="cls-32" d="M211.77,223.81l-5.2,2.78c-.87,19.22-6.39,39.94-6.39,39.94-.25,1.51,2.67,1.67,5.12,1.56C205.81,257.35,207.67,226.71,211.77,223.81Z" transform="translate(0 -36.83)"/><path id="path6013" class="cls-32" d="M206.23,195.19c-.4.22-2.62,1.42-5.52,3.28-.77,5.16-3,12.62-9.18,17.58a3,3,0,0,0,2.15.24c3.61-1.09,8.93-4.88,12.21-7.39Z" transform="translate(0 -36.83)"/><path id="path4975" class="cls-3" d="M212.17,195.53c-6.74,5.23-2.53,24.65.6,31l-6.81,3C206.1,228.37,195.31,187.92,212.17,195.53Z" transform="translate(0 -36.83)"/><path id="path6028" class="cls-32" d="M232.54,196.41l-7.26.35h0a35.89,35.89,0,0,1-4,2c1.32,4.51,3.82,16.87-3.77,29.06l14.71,2Z" transform="translate(0 -36.83)"/><path id="path4989" class="cls-14" d="M223.16,197.71c6.74,5.22,1,22.34-2.14,28.73l12.19,3.76C232.87,216.42,245.41,183.85,223.16,197.71Z" transform="translate(0 -36.83)"/><ellipse id="ellipse5010" class="cls-15" cx="221.6" cy="181.65" rx="11.84" ry="9.81" transform="translate(22.28 350.68) rotate(-85.27)"/><path id="path5957" class="cls-16" d="M221.59,169.83c-5,.19-9.14,4.81-9.74,10.76,10.15-13.89,18.61-.65,15.64,10.28a13.05,13.05,0,0,0,3.88-8.41c.54-6.52-3.4-12.16-8.8-12.61a8,8,0,0,0-1,0Z" transform="translate(0 -36.83)"/><path id="path5994" class="cls-3" d="M231.79,194.35c-2,0-4.8,1-8.63,3.36,6.74,5.22,1,22.34-2.14,28.73l5.95,1.83c-.47-22.75,6.05-26.89,9.41-27.51a12.65,12.65,0,0,0-.56-3.19l-2.25-2.84A4.28,4.28,0,0,0,231.79,194.35Z" transform="translate(0 -36.83)"/><path id="path5051" class="cls-14" d="M221.44,171.16c9.51-2.1,11.59,10.86,6,26.5-3.54,9.92,16.14,4.87,15.12-2.82s-6.92-32-12-31c-21.75-11-29.29,25.74-19.22,31.26C213.28,196.52,205,174.77,221.44,171.16Z" transform="translate(0 -36.83)"/><path id="path5103" class="cls-15" d="M310.76,169.48s.46,21.78,6.2,27.92c-1.37,2.12-2.22,5.92-2.25,10,0,6.49,1.94,11.78,4.44,11.8h0c2.51,0,4.58-5.23,4.63-11.73,0-4.72-1-9-2.68-10.84,2.74-5.67,2.86-21.8,2.86-21.8Z" transform="translate(0 -36.83)"/><path id="path5107" class="cls-33" d="M303.85,148s3.45,26,11.36,30.07c2.51,1.28,8.65-1.1,8.88-4.62.49-7.57-5-23.11-5-23.11Z" transform="translate(0 -36.83)"/><path id="path5111" class="cls-15" d="M305.88,149.5l-5.44-10.61L292,136.78c-3.92,2.57-7.38,5.22-9.16,11l-2,13.6,6.28,14.32,22.21-22.29Z" transform="translate(0 -36.83)"/><path id="path5115" class="cls-33" d="M270.81,149.35s-13.16,22.72-9.37,30.74c1.21,2.54,7.53,4.41,9.85,1.77,5-5.7,10.16-21.35,10.16-21.35Z" transform="translate(0 -36.83)"/><path id="path5117" class="cls-33" d="M268.19,152.31c.58-6.19,15.31-5,15.31-5-.19.07-2.16,12.78,17.39,1.47,0,0,13.55-4.42,17.67,2.36,0,0-10.6,14.73-7.07,29.75,0,0,11.77,93.34,10.59,110.14,0,0-24.46,3.83-24.76,1.17,0,0-20.32,7.07-21.21,1.48,0,0-19.63-.12-19-3.66,0,0,31.92-74.57,11.12-137.7Z" transform="translate(0 -36.83)"/><path id="path6223" class="cls-16" d="M273.05,172.88l-7.41,3.19c.07.4,3.21,17.86.39,21.49-2.51,3.23-.09,17.13.56,20.62,2.2-.91,3.75-5.87,3.65-11.68a24.09,24.09,0,0,0-1.44-8.15c4.25-7.59,4.25-25.47,4.25-25.47Z" transform="translate(0 -36.83)"/><path id="path6198" class="cls-32" d="M273.67,153c0-1-5.91-2.42-8.65,8,0,7.61.2,16.93,1.17,22,1.95.39,4,.17,5.1-1.1,2.17-2.47,4.37-6.81,6.16-10.94V156.31Z" transform="translate(0 -36.83)"/><path id="path5119" class="cls-14" d="M283.22,147c-8.85,6.87-3.33,32.38.79,40.78l-8.95,3.92c.19-1.56-14-54.69,8.16-44.7Z" transform="translate(0 -36.83)"/><path id="path6193" class="cls-16" d="M292,136.78c-3,2-5.79,4-7.71,7.55.39,4,14.62-6.5,16.93,6.89,1.21-4.11,7.41-8.22-.79-12.33Z" transform="translate(0 -36.83)"/><path id="path6203" class="cls-32" d="M298.87,150.78c-2.36,19.33-3.84,30.48-10.81,42.71L308.87,198l3.95-6.24c-.63-5.19-1.33-10.85-1.33-10.85a27.21,27.21,0,0,1-.6-3.85Z" transform="translate(0 -36.83)"/><path id="path5121" class="cls-14" d="M297.66,149.84c8.85,6.86,1.31,29.35-2.81,37.74l16,4.94c-.45-18.09,16-60.88-13.2-42.68Z" transform="translate(0 -36.83)"/><ellipse id="ellipse5123" class="cls-15" cx="289.1" cy="126.51" rx="13.58" ry="16.4" transform="translate(-23.46 46.19) rotate(-15.71)"/><path id="path6177" class="cls-3" d="M309,145.43c-2.64,0-6.32,1.28-11.34,4.41,7,5.4,3.78,20.44.1,30.71,7.42-1.72,12.36-4.78,15.55-8.51,2.16-13.36,3.84-26.49-4.31-26.61Z" transform="translate(0 -36.83)"/><path id="path6188" class="cls-16" d="M288.32,110.31a11.57,11.57,0,0,0-3.66.41c-2.38.68-3.67-3.18-5.29-1.11,2.77,6.12,7.64,15.07,12,15.33,6.79.39,7.18,11.73.62,17.66a11,11,0,0,0,1.6-.31c7.22-2,11.08-10.74,8.63-19.46-2-7.09-7.66-12.21-13.86-12.52Z" transform="translate(0 -36.83)"/><path id="path5151" class="cls-14" d="M286.91,112.75s6,9.35,9.68,9.35-1.33,3.34,1.67,7.68-5,6.68,1,10.69-5,11,1.33,14.69-4.34,8.35,4,8,8.68.33,10-6.68,6.35-14,2.34-17.37-4-18.7-5.35-18.37-12-20.37-15.36-16-24.38-6-23.05,2.67-9.35,14.36-5,19-1,19.71,4.35,21-2.34,11.69,3.34,11.36,3-16.7,5.34-17.37-5.68-8.68-4.68-15.36,0-2.68,1.67-7,8.35-8.35,8.69-6.34Z" transform="translate(0 -36.83)"/><path id="path5189" class="cls-14" d="M221.31,279.85s10.89-11.52,12.76-1.56S221.31,279.85,221.31,279.85Z" transform="translate(0 -36.83)"/><path id="path5191" class="cls-14" d="M217.05,280.21s-10.89-11.52-12.76-1.56S217.05,280.21,217.05,280.21Z" transform="translate(0 -36.83)"/><path id="path5226" class="cls-14" d="M169.34,230c-2.21,0-4,.9-4,2a.28.28,0,0,0,0,.09h0V234a.13.13,0,0,0,0,.06v0h0c.09,1.07,1.85,1.92,4,1.92s3.91-.85,4-1.92h0V234a.13.13,0,0,0,0-.06v-1.86h0s0-.06,0-.09c0-1.1-1.8-2-4-2Z" transform="translate(0 -36.83)"/><path id="path5926" class="cls-3" d="M125.75,123.34a4.7,4.7,0,0,0-2.13,1.43C124.32,124.27,125,123.8,125.75,123.34Zm-4.2,1.64c-12.39.39-14.72,27.84-4.88,26.52,2.76-.76,7.29-19.59,19.59-13.32,2.33,6.1,7.16,11.63,12.06,11.31a7.14,7.14,0,0,0,2.36-.79,39.84,39.84,0,0,1-5.19-6.94c-16.3-26.82-26.83,10.12-30.75-1.85-1.81-5.52,2.87-10.77,8.44-14.83a9.09,9.09,0,0,0-1.63-.1Z" transform="translate(0 -36.83)"/><path id="path5936" class="cls-20" d="M92.68,193.74c-5.39.54-16.43,24.84-22.32,38.62A13.26,13.26,0,0,0,74.55,235l20.52-31.18c-3,6.87-4.44,39.72-4.44,39.72a53.05,53.05,0,0,0,6,1.61c9.51-30.13,3.49-47.2-2.93-51.21A1.57,1.57,0,0,0,92.68,193.74Z" transform="translate(0 -36.83)"/><path id="path5950" class="cls-20" d="M136.88,203.1a2.37,2.37,0,0,0-1,1.19c-.28,12.85,16,32.83,16,32.83l2.85-2.43C142,226.46,136.88,203.1,136.88,203.1Z" transform="translate(0 -36.83)"/><path id="path5955" class="cls-22" d="M123.61,183l-5.16,28.06" transform="translate(0 -36.83)"/><path id="path5974" class="cls-3" d="M168.16,230.07c-1.68.26-2.83,1-2.83,1.91a.28.28,0,0,0,0,.09h0V234a.13.13,0,0,0,0,.06v0h0c.09,1.07,1.82,1.91,3.95,1.92-1.57-2.3,1.22-3.56,1.22-3.56-2.89-.54-3-1.52-2.35-2.36Z" transform="translate(0 -36.83)"/><path id="path5989" class="cls-3" d="M220.38,162c-13.72,2.75-17.38,28.52-9.08,33.07,1,.69-.46-4-.35-9.48C209.45,181.35,209.87,173.77,220.38,162Z" transform="translate(0 -36.83)"/><path id="path5999" class="cls-14" d="M208.12,194.59c-10.88.57-2,33.89-2.16,35l2.4-1.06c-6.35-25.35-.61-31.72,3-33.3A8,8,0,0,0,208.12,194.59Z" transform="translate(0 -36.83)"/><path id="path6018" class="cls-32" d="M223.89,237.66l-3.81,30.21c1-.29,1.93-.55,2.58-.76l.65-.59Z" transform="translate(0 -36.83)"/><path id="path6023" class="cls-32" d="M212.06,246.61,206.24,268c1.25-.1,2.24-.23,2.24-.23a1.45,1.45,0,0,0,.73,1Z" transform="translate(0 -36.83)"/><path id="path6033" class="cls-3" d="M215.92,279.12c-6,1-9.58.81-11.71.08-1.22,9.08,12.84,1,12.84,1s-.48-.48-1.13-1.09Z" transform="translate(0 -36.83)"/><path id="path6038" class="cls-3" d="M234.21,279.34c-4.48,2.93-9.39,1.52-12.45.05-.28.27-.45.46-.45.46S234.84,287.62,234.21,279.34Z" transform="translate(0 -36.83)"/><path id="path6172" class="cls-3" d="M269.81,118.07c-2.06,3.24-3.86,5.94-1.61,8.37,4.35,4.68-1,19.71,4.35,21s-2.34,11.69,3.34,11.36,3-16.7,5.34-17.37c1.56-.45-1.49-4.18-3.4-8.6-6-3.5-7.83-9.47-8-14.8Z" transform="translate(0 -36.83)"/><path id="path6208" class="cls-32" d="M280.23,187.79c-1.78-.06-3.53,1-5.23,2.81,2.56,51.52-17.93,99.41-17.93,99.41-.21,1.21,2,2,4.9,2.55,4.63-14.08,21.15-65.89,18.34-80.31-3.26-16.72,1.63-24.07,1.63-24.07A4.82,4.82,0,0,0,280.23,187.79Z" transform="translate(0 -36.83)"/><path id="path6213" class="cls-32" d="M286.84,233.47l-14.1,60.11c1.27.05,1.65.05,2.22.06l.86-1.41Z" transform="translate(0 -36.83)"/><path id="path6218" class="cls-32" d="M299.89,241.22,293.1,293.5c2.44-.7,4.22-1.31,4.22-1.31s0,.09.05.13Z" transform="translate(0 -36.83)"/><path id="circle4711" class="cls-3" d="M139.79,167.26h-.15a1.41,1.41,0,0,0-1.31,1.51h0s.16,2.91.22,6.21a50,50,0,0,1-.38,8.15,9.62,9.62,0,0,0-3.41,3.3,16.7,16.7,0,0,0-2.29,12.23,2.84,2.84,0,0,0-.33,1.29,2.86,2.86,0,1,0,3-2.84,13.15,13.15,0,0,1,2-9.1,9.77,9.77,0,0,1,3.08-3l.16.07s0,0,.29.22a5.21,5.21,0,0,1,1.16,1.57c.83,1.58,1.67,4.55,1.46,9.81a2.84,2.84,0,1,0,4.31,2.43,2.87,2.87,0,0,0-1.48-2.48c.2-5.52-.67-8.95-1.77-11.07a8.3,8.3,0,0,0-1.83-2.41,4.83,4.83,0,0,0-1.13-.72l-.15-.05a60.72,60.72,0,0,0,.17-7.41c0-3.37-.22-6.32-.22-6.32a1.43,1.43,0,0,0-1.37-1.36Z" transform="translate(0 -36.83)"/></g></g></svg>