<svg id="Layer_1" data-name="Layer 1" xmlns="http://www.w3.org/2000/svg" viewBox="0 0 495.29 639.26"><defs><style>.cls-1{fill:#9ddab1;}.cls-2{fill:#fcae88;}.cls-3{fill:#299696;}.cls-4{fill:#a97c50;}.cls-5{fill:#58595b;}.cls-6{fill:#7f5d3c;}.cls-7{fill:#424344;}.cls-8{fill:#9b9b9d;}.cls-9{fill:#866c57;}.cls-10{fill:#474849;}.cls-11{fill:#655141;}.cls-12{fill:#45c2c6;}.cls-13{fill:#f1f2f2;}.cls-14{fill:#85d5d0;opacity:0.4;}.cls-15{fill:#4d9893;opacity:0.47;}.cls-16{fill:#66cac4;opacity:0.66;}.cls-17{fill:#482b0e;}.cls-18{fill:#b06d4d;}.cls-19{fill:#36200b;}.cls-20{fill:#5f4218;}.cls-21{fill:#473212;}.cls-22{fill:#35260e;}.cls-23{fill:#f58d86;opacity:0.6;}.cls-24{fill:#bd8366;}.cls-24,.cls-26{opacity:0.28;}.cls-25,.cls-34{fill:#d1d3d4;}.cls-25{opacity:0.33;}.cls-26,.cls-31{fill:#b5b6b6;}.cls-27{fill:#e5292e;}.cls-28{fill:#414042;}.cls-29{fill:#313032;}.cls-30{fill:#fff;}.cls-32{fill:#808285;}.cls-33{fill:#fdbea0;}.cls-35{fill:#888989;}.cls-36{fill:#89959b;}.cls-37{fill:#5e5f60;}.cls-38{fill:#bcbec0;}.cls-39{fill:#231f20;}.cls-40{fill:#8d8f90;}</style></defs><title>doctor and patient</title><path id="shadow" class="cls-1" d="M813.24,700c0,7.06-107,12.79-238.94,12.79S335.35,707,335.35,700s107-12.79,238.95-12.79S813.24,692.88,813.24,700Z" transform="translate(-335.35 -73.48)"/><g id="broken_leg_man" data-name="broken leg man"><path class="cls-2" d="M495.14,297.18S495.43,339,497.9,351c3.94,19.18,23.7,74.71,23.7,74.71l16.93-5.9s-16.06-51.56-17.48-71.54c-.81-11.34,3.33-50.49,3.33-50.49Z" transform="translate(-335.35 -73.48)"/><path class="cls-2" d="M521.6,425.72s-2.85,5.3-3.32,7.23c-.67,2.74-.48,9.32,1.66,11.17,4.64,4,20.18,4.33,24.52,0,3.54-3.54,2.29-15.57,0-20-.84-1.64-5.93-4.28-5.93-4.28Z" transform="translate(-335.35 -73.48)"/><path class="cls-3" d="M509,225.33c13.08,1.33,29,80.06,29,80.06H510.73S490.41,223.45,509,225.33Z" transform="translate(-335.35 -73.48)"/><rect class="cls-4" x="530.23" y="535.7" width="11.31" height="157.51" transform="translate(-368.64 -42.78) rotate(-3.18)"/><path class="cls-5" d="M550.45,692.51a6,6,0,0,1-5.66,6.33l-8.42.47a6,6,0,0,1-6.32-5.66h0a6,6,0,0,1,5.66-6.33l8.41-.47a6,6,0,0,1,6.33,5.66Z" transform="translate(-335.35 -73.48)"/><polygon class="cls-6" points="199.65 525.15 194 525.47 190.92 470.02 199.65 525.15"/><polygon class="cls-6" points="202.21 469.39 205.29 524.84 199.65 525.15 202.21 469.39"/><path class="cls-4" d="M551,428l.3,5.45c.13,2.29-2.5,4.28-5.86,4.47l-38.57,2.14c-3.36.19-6.19-1.5-6.32-3.79l-.3-5.45c-.13-2.28,2.49-4.28,5.86-4.47l38.57-2.14C548,424,550.84,425.71,551,428Z" transform="translate(-335.35 -73.48)"/><path class="cls-6" d="M509,439.93l-2.19.12c-3.36.19-6.19-1.5-6.32-3.79l-.3-5.45c-.13-2.28,2.49-4.28,5.86-4.47l2-.11.67,11.92Z" transform="translate(-335.35 -73.48)"/><path class="cls-6" d="M551,428l.3,5.45c.13,2.29-2.5,4.28-5.86,4.47l-2.19.12.09-1.8-.67-11.92,2-.11C548,424,550.84,425.71,551,428Z" transform="translate(-335.35 -73.48)"/><polygon class="cls-4" points="199.99 531.38 190.73 531.9 160.99 351.71 153.7 220.6 164.09 220.03 171.33 350.23 199.99 531.38"/><polygon class="cls-4" points="211.56 217.39 218.85 348.5 209.26 530.87 199.99 531.38 208.4 348.17 201.17 217.97 211.56 217.39"/><rect class="cls-6" x="488.73" y="290.67" width="10.61" height="15.81" transform="translate(-351.17 -45.58) rotate(-3.18)"/><rect class="cls-6" x="537.15" y="287.98" width="10.61" height="15.81" transform="translate(-350.93 -42.93) rotate(-3.18)"/><path class="cls-7" d="M564.5,281.69l.56,10.07c.23,4.22-4.63,7.93-10.86,8.28l-71.38,4c-6.23.34-11.47-2.81-11.7-7l-.56-10.07c-.24-4.23,4.62-7.93,10.85-8.28l71.38-4c4.27-.24,8.06,1.16,10.12,3.42A5.88,5.88,0,0,1,564.5,281.69Z" transform="translate(-335.35 -73.48)"/><path class="cls-5" d="M562.91,278.09l.45,8.21c.24,4.22-4.62,7.94-10.85,8.28l-71.38,4c-4.26.24-8.08-1.16-10.12-3.43l-.45-8.21c-.24-4.23,4.62-7.93,10.85-8.28l71.38-4C557.06,274.43,560.85,275.83,562.91,278.09Z" transform="translate(-335.35 -73.48)"/><path class="cls-8" d="M511.77,280.53a1,1,0,0,1-1,1.09l-28.7,1.6a1,1,0,0,1-1.1-1h0a1,1,0,0,1,1-1.1l28.71-1.59a1,1,0,0,1,1.1,1Z" transform="translate(-335.35 -73.48)"/><path class="cls-2" d="M517.94,439.45s16.7-12,24.7,0Z" transform="translate(-335.35 -73.48)"/><path class="cls-2" d="M517.6,684.32a7.2,7.2,0,0,1-7.2,7.2H489.21a7.2,7.2,0,0,1-7.2-7.2h0a7.19,7.19,0,0,1,7.2-7.19H510.4a7.2,7.2,0,0,1,7.2,7.19Z" transform="translate(-335.35 -73.48)"/><polygon class="cls-2" points="171.49 609.52 169.49 563.75 149.84 563.75 151.18 609.52 171.49 609.52"/><path class="cls-9" d="M554.68,694.66c-1.11-3-3.26-6.84-7-6.78-16.17.24-38.19-22.08-42.07-19.47,0,0,3.6,21-25.83,18a6.35,6.35,0,0,0-.5,1.47c-.87,4,.88,10.36.88,10.36h75.57A22.47,22.47,0,0,0,554.68,694.66Z" transform="translate(-335.35 -73.48)"/><rect class="cls-10" x="144.77" y="624.79" width="75.57" height="1.68"/><path class="cls-11" d="M555.69,698.27H480.12s-3.37-12.2,1.56-13.5c0,0,46.17,18.45,73,9.89A22.47,22.47,0,0,1,555.69,698.27Z" transform="translate(-335.35 -73.48)"/><path class="cls-3" d="M522.58,663H470.2L463,463.78h-5.08s1.84,72.67-2.65,86.17c-.05.15-.11.3-.17.44a6.79,6.79,0,0,1-3.53,3.31c-7.76,3.7-25.2,1.38-37.34-.93-7.47-1.41-12.94-2.82-12.94-2.82L400,422.23v-1.32l-.15-14.55H514.09l.29,8.86.76,22.87Z" transform="translate(-335.35 -73.48)"/><polygon class="cls-12" points="164.42 589.54 134.85 589.54 127.64 390.3 142.65 404.8 164.42 589.54"/><path class="cls-3" d="M455.74,552.77a19,19,0,0,1-2.08,6.35A88.78,88.78,0,0,1,445.52,572q-1.27,1.75-2.69,3.59c-3.18,4.14-6.78,8.52-10.61,13q-1.43,1.68-2.9,3.36c-1.16,1.34-2.34,2.67-3.53,4l-3.15,3.52c-3.52,3.88-7.08,7.72-10.56,11.42q-1.54,1.65-3.08,3.25c-3.08,3.24-6.08,6.35-8.9,9.24l-2.44,2.48c-2.25,2.3-4.37,4.43-6.28,6.35l-2.27,2.27c-5.2,5.17-8.48,8.34-8.48,8.34l-18.2-8.57,6.25-13.56,1.08-2.33,10.79-23.42,2.78-6,9.85-21.37,1.81-3.91,2.34-5.09,3.95-8.58s44.86-11.11,53.39-.85a6.14,6.14,0,0,1,.59.85A4.74,4.74,0,0,1,455.74,552.77Z" transform="translate(-335.35 -73.48)"/><path class="cls-3" d="M414.07,667.74c0,1.26-2.86,2.8-4.12,2.91-2.18.19-8.64-.41-16.37-1.92-1.06-.21-2.14-.43-3.24-.67-10.74-2.35-23-6.34-29.67-12.25a18.46,18.46,0,0,1-1.92-1.94c-4.42-5.19-4.52-11.69,3.68-19.64l16.9,7.95,1.3.62,1.76.92c2.23,1.18,6.34,3.4,10.86,6.1,1.48.88,3,1.8,4.52,2.76l2.09,1.34c1.22.81,2.43,1.62,3.59,2.44C409.35,660.53,414.08,664.79,414.07,667.74Z" transform="translate(-335.35 -73.48)"/><path class="cls-13" d="M414.07,667.74c0,1.26-2.86,2.8-4.12,2.91-2.18.19-8.64-.41-16.37-1.92-1.06-.21-2.14-.43-3.24-.67l9.52-14.14c1.22.81,2.43,1.62,3.59,2.44C409.35,660.53,414.08,664.79,414.07,667.74Z" transform="translate(-335.35 -73.48)"/><path class="cls-2" d="M414.07,667.74c0,1.26-2.86,2.8-4.12,2.91-2.18.19-8.64-.41-16.37-1.92a97.72,97.72,0,0,1,9.87-12.37C409.35,660.53,414.08,664.79,414.07,667.74Z" transform="translate(-335.35 -73.48)"/><path class="cls-13" d="M453.66,559.12c-2.58-22.82-56.33-.59-56.33-.59l3.95-8.58s44.86-11.11,53.39-.85a37.27,37.27,0,0,1,1.07,3.67C456.69,556.85,456.23,559.31,453.66,559.12Z" transform="translate(-335.35 -73.48)"/><path class="cls-14" d="M442.83,575.57,403.29,569l28.93,19.53q-1.43,1.68-2.9,3.36l-36.14-24.39,1.81-3.91.38.06,50.15,8.3Q444.25,573.73,442.83,575.57Z" transform="translate(-335.35 -73.48)"/><path class="cls-14" d="M422.64,599.45l-36.42-6,25.86,17.45q-1.54,1.65-3.08,3.25l-28.45-19.2,2.78-6,42.46,7Z" transform="translate(-335.35 -73.48)"/><path class="cls-14" d="M397.66,625.84l-20.79-3.44,14.51,9.79-2.27,2.27-19.71-13.3-.72-.49,1.08-2.33,1.45.24,28.89,4.78Z" transform="translate(-335.35 -73.48)"/><path class="cls-14" d="M397.77,652.58l-36.6,3.19-.5,0a18.46,18.46,0,0,1-1.92-1.94l2.2-1.25,18.38-10.44,1.3.62,1.76.92L367.75,652l25.5-2.21C394.73,650.7,396.25,651.62,397.77,652.58Z" transform="translate(-335.35 -73.48)"/><path class="cls-15" d="M514.38,415.22c-16,28.68-81.24,14.89-114.35,5.69l-.15-14.55H514.09Z" transform="translate(-335.35 -73.48)"/><polygon class="cls-2" points="131.49 137.31 102.74 137.47 101.58 113.72 131.43 113.64 131.49 137.31"/><path class="cls-12" d="M515.3,413.44c-12.08,7.41-42.74,8.41-70.06,7.59-26.63-.8-50.12-3.33-50.12-3.33L395.57,281l3.29-57.47,38.23-15.27,1.63-.63,26.55-.11,2.22.79,43.64,17.16S528.38,405.42,515.3,413.44Z" transform="translate(-335.35 -73.48)"/><polygon class="cls-2" points="132.14 134.82 121.09 170.71 101.73 134.77 103.37 134.14 129.91 134.03 132.14 134.82"/><path class="cls-16" d="M445.24,421c-26.63-.8-50.12-3.33-50.12-3.33L395.57,281C398.49,297.52,415.46,387,445.24,421Z" transform="translate(-335.35 -73.48)"/><path class="cls-17" d="M432.07,95.29s-1.79-15.05,11.52-17.13c-2.43,1.51-10.54,6.6-6.19,16.35C434.14,95,432.07,95.29,432.07,95.29Z" transform="translate(-335.35 -73.48)"/><path class="cls-17" d="M486,103.17c7.78,11,2.58,30.41,2.58,30.41l-18.79-14.51.8-16.64S483.75,100,486,103.17Z" transform="translate(-335.35 -73.48)"/><path class="cls-2" d="M493,143.94v.21c.09,2.36.08,4.78,0,7.22a87.19,87.19,0,0,1-2,14.84c-.32,1.38-.66,2.73-1,4.06v0a73.68,73.68,0,0,1-2.86,8.23c-6.57,15.71-17.81,25.93-30,25.33-12.47-.6-22.8-12.22-27.72-28.94-.55-1.85-1-3.76-1.44-5.73-.13-.64-.26-1.29-.37-1.93h0c-.25-1.35-.45-2.72-.63-4.13a86.74,86.74,0,0,1-.57-15c.12-2.43.34-4.82.64-7.15,3.43-26.39,18.41-46.14,35.32-45.32S492,117.47,493,143.94Z" transform="translate(-335.35 -73.48)"/><path class="cls-17" d="M489.89,170.27v0a73.68,73.68,0,0,1-2.86,8.23c-6.57,15.71-17.81,25.93-30,25.33-12.47-.6-22.8-12.22-27.72-28.94-.55-1.85-1-3.76-1.44-5.73,0,0,8.66-3,11.61-2.6C452,168.15,473.82,184,489.89,170.27Z" transform="translate(-335.35 -73.48)"/><path class="cls-17" d="M414.88,102.1l5,47.28,13.8-5.1,15-37.06s-8.54-15.53-12.86-14.87C433,92.78,414.88,102.1,414.88,102.1Z" transform="translate(-335.35 -73.48)"/><path class="cls-2" d="M419.7,153.73c3.12,7.42,9.15,12,13.45,10.15s5.27-9.3,2.15-16.71-9.15-12-13.45-10.15S416.58,146.32,419.7,153.73Z" transform="translate(-335.35 -73.48)"/><path class="cls-18" d="M429.12,144.06s-15.59-2.8-.6,12.35C428.64,153.79,422.24,151,429.12,144.06Z" transform="translate(-335.35 -73.48)"/><path class="cls-17" d="M490.25,102.89c-1.83-.56-25.66,7.07-41.12,5.78a23.73,23.73,0,0,1-7-1.51c-.28-.12-.55-.24-.81-.38a9.7,9.7,0,0,1-5-5.4c-.06-.18-.12-.36-.17-.55-.82-2.51-.9-5.77,0-9.93,0,0,15.45-28.17,35.86-12.87a36,36,0,0,1,3.53,3A57.83,57.83,0,0,1,482.77,90c.36.53.72,1.07,1.07,1.62C485.38,94,488.68,99.89,490.25,102.89Z" transform="translate(-335.35 -73.48)"/><path class="cls-19" d="M475.5,81.06c-8.77-.29-22.39,2.28-36.92,17.8-.75.8-1.51,1.64-2.27,2.52-.06-.18-.12-.36-.17-.55.62-.83,1.32-1.72,2.09-2.67C445.15,89.64,457.69,77.29,472,78A36,36,0,0,1,475.5,81.06Z" transform="translate(-335.35 -73.48)"/><path class="cls-19" d="M483.84,91.57c-6.86-1.33-22.56-2.72-40,13.86-.59.55-1.17,1.13-1.76,1.73-.28-.12-.55-.24-.81-.38.56-.67,1.16-1.35,1.77-2C451.93,94.8,466.8,82.8,482.77,90,483.13,90.48,483.49,91,483.84,91.57Z" transform="translate(-335.35 -73.48)"/><path class="cls-19" d="M449.13,108.67a23.73,23.73,0,0,1-7-1.51c-.28-.12-.55-.24-.81-.38a9.7,9.7,0,0,1-5-5.4c-.06-.18-.12-.36-.17-.55-.82-2.51-.9-5.77,0-9.93a22.45,22.45,0,0,0,2.12,7.26c.12.23.23.47.35.7a21.64,21.64,0,0,0,4.48,5.87c.26.24.53.48.8.7A21.5,21.5,0,0,0,449.13,108.67Z" transform="translate(-335.35 -73.48)"/><rect class="cls-4" x="83.53" y="462.97" width="11.31" height="157.5"/><path class="cls-5" d="M434.75,694a6,6,0,0,1-6,6h-8.43a6,6,0,0,1-6-6h0a6,6,0,0,1,6-6h8.43a6,6,0,0,1,6,6Z" transform="translate(-335.35 -73.48)"/><polygon class="cls-6" points="89.18 525.88 83.53 525.88 83.53 470.34 89.18 525.88"/><polygon class="cls-6" points="94.83 470.34 94.83 525.88 89.18 525.88 94.83 470.34"/><path class="cls-4" d="M450,432.1v5.46c0,2.29-2.73,4.13-6.1,4.13H405.22c-3.37,0-6.1-1.84-6.1-4.13V432.1c0-2.28,2.73-4.14,6.1-4.14h38.63C447.22,428,450,429.82,450,432.1Z" transform="translate(-335.35 -73.48)"/><path class="cls-6" d="M407.41,441.69h-2.19c-3.37,0-6.1-1.84-6.1-4.13V432.1c0-2.28,2.73-4.14,6.1-4.14h2V439.9Z" transform="translate(-335.35 -73.48)"/><path class="cls-6" d="M450,432.1v5.46c0,2.29-2.73,4.13-6.1,4.13h-2.19l.18-1.79V428h2C447.22,428,450,429.82,450,432.1Z" transform="translate(-335.35 -73.48)"/><polygon class="cls-4" points="89.18 532.12 79.9 532.12 60.21 350.56 60.21 219.25 70.61 219.25 70.61 349.65 89.18 532.12"/><polygon class="cls-4" points="118.15 219.25 118.15 350.56 98.46 532.12 89.18 532.12 107.75 349.65 107.75 219.25 118.15 219.25"/><rect class="cls-6" x="59.62" y="216.1" width="10.62" height="15.81"/><rect class="cls-6" x="108.12" y="216.1" width="10.61" height="15.81"/><path class="cls-7" d="M471.58,284.54v10.09c0,4.22-5.06,7.66-11.3,7.66h-71.5c-6.23,0-11.29-3.44-11.29-7.66V284.54c0-4.24,5.06-7.67,11.29-7.67h71.5c4.27,0,8,1.61,9.91,4A5.84,5.84,0,0,1,471.58,284.54Z" transform="translate(-335.35 -73.48)"/><path class="cls-5" d="M470.19,280.85v8.23c0,4.23-5.06,7.66-11.29,7.66H387.4c-4.27,0-8-1.6-9.91-4v-8.22c0-4.24,5.06-7.67,11.29-7.67h71.5C464.55,276.87,468.26,278.48,470.19,280.85Z" transform="translate(-335.35 -73.48)"/><path class="cls-8" d="M419,280.45a1,1,0,0,1-1,1H389.2a1,1,0,0,1-1-1h0a1,1,0,0,1,1-1H418a1,1,0,0,1,1,1Z" transform="translate(-335.35 -73.48)"/><path class="cls-2" d="M390,297.18s.28,41.77,2.75,53.83c3.94,19.18,23.7,74.71,23.7,74.71l16.94-5.9s-16.07-51.56-17.49-71.54c-.8-11.34,3.33-50.49,3.33-50.49Z" transform="translate(-335.35 -73.48)"/><path class="cls-2" d="M416.43,425.72s-2.84,5.3-3.32,7.23c-.67,2.74-.48,9.32,1.66,11.17,4.64,4,20.19,4.33,24.52,0,3.54-3.54,2.29-15.57,0-20-.84-1.64-5.92-4.28-5.92-4.28Z" transform="translate(-335.35 -73.48)"/><path class="cls-3" d="M401.07,222.12c17.22-9.33,23.1,38.1,24.82,81-12.12-.27-41.44.12-41.44.12S376.16,235.62,401.07,222.12Z" transform="translate(-335.35 -73.48)"/></g><g id="nurse"><path class="cls-20" d="M752.67,125.62c0,.12,0,.26,0,.38h0c0,.28,0,.55.07.83.15,1.71.29,3.5.44,5.34,0,.39,0,.78.09,1.18.14,2,.28,4,.43,6.09,0,.5.07,1,.09,1.51h0l0,.6a5.85,5.85,0,0,0,0,.59c0,.15,0,.31,0,.48h0c0,.4.05.78.06,1.16,0,.86.09,1.72.13,2.56.73,17.42-.65,30-5.07,40.18a0,0,0,0,1,0,0h0c-.37.84-.86,1.79-1.43,2.8-.1.18-.21.35-.32.54-1.37,2.38-3.07,4.92-4.22,6.59h0c-.8,1.15-1.34,1.9-1.34,1.9s-.13.23-.31.59h0l0,0-.41.78L738.81,204l-.62,1.19c-1.8,3.51-3.64,7.08-3.68,7.11l-.46.64-.1.15c-.71,1-2.08,2.94-4,5.27-7,8.69-20.89,23.09-33.5,17.46-51.72-23.09-13.94-53.86-10.94-84.22a34,34,0,0,0,.2-3.63c0-.76,0-1.52-.07-2.29-.21-3.18-.26-6.26-.16-9.2,0-.25,0-.5,0-.74,0-.7.07-1.39.11-2.07,1-13.19,5.1-23.7,11.42-31.26A39.26,39.26,0,0,1,701.45,98a38.27,38.27,0,0,1,15.38-8.19,42.08,42.08,0,0,1,8.24-1.37,43.57,43.57,0,0,1,4.68-.06c9.54.48,15,4.87,18.27,13.12.32.8.62,1.65.91,2.53.15.46.29.93.43,1.4h0c.25.84.48,1.7.69,2.59,0,.1,0,.18.06.26v0c.16.64.3,1.28.43,1.95.06.26.12.51.16.78C751.54,115.27,752.16,120.15,752.67,125.62Z" transform="translate(-335.35 -73.48)"/><path class="cls-21" d="M765.79,142.55c2.11,31.39-18,45.91-34.27,59.38-7.84,6.5-10.76,18.14-16.57,24-3.56,3.57-8.21,5-15.76,1.57-48.77-21.77-16-51.9-9.57-79.8,3.91-17.1,13.2-41.81,34.24-43.22a59.62,59.62,0,0,1,10.2.15C750.66,106.37,764,116.37,765.79,142.55Z" transform="translate(-335.35 -73.48)"/><path class="cls-22" d="M765.79,142.55c2.11,31.39-15.43,59.5-31.66,73-7.84,6.5-13.37,4.54-19.18,10.36-47.34-21.74-14.93-51.65-8.58-79.36,3.48-15.21,11.22-36.44,27.69-41.94C750.66,106.37,764,116.37,765.79,142.55Z" transform="translate(-335.35 -73.48)"/><path class="cls-20" d="M782.37,230.06c-16.18,10-21.88-3.84-31-15.16h0c-.1-.14-.2-.26-.31-.4a38.15,38.15,0,0,0-8-7.65.47.47,0,0,1-.09-.06c-.21-.13-.43-.29-.66-.42l-1-.61-.24-.16a1.64,1.64,0,0,1-.22-.14c-.64-.4-1.24-.82-1.84-1.25a1.65,1.65,0,0,1-.27-.19c-.61-.42-1.2-.86-1.78-1.28-1-.73-1.9-1.47-2.8-2.24-.17-.13-.31-.28-.48-.41l-.66-.58,0,0h0a1.14,1.14,0,0,0-.11-.11c-.13-.11-.24-.22-.35-.33A47.88,47.88,0,0,1,724,188.6h0c-.08-.12-.15-.23-.23-.33v0a55.17,55.17,0,0,1-3.53-7c-.5-1.16-1-2.36-1.39-3.6a80.23,80.23,0,0,1-2.51-8.81h0q-.64-2.76-1.15-5.79c-.39-2.15-.71-4.38-1-6.72h0c0-.29-.07-.57-.11-.86v0c-.22-1.82-.44-3.71-.62-5.66h0v-.13h0c0-.18,0-.34,0-.52s0-.25,0-.36h0c-.13-1.44-.25-2.9-.35-4.41-.06-.7-.11-1.41-.16-2.13v-.13c-.07-.92-.13-1.84-.19-2.74,0-.54-.06-1.07-.1-1.6h0c0-.55-.07-1.08-.1-1.61-.13-2.26-.25-4.44-.34-6.53,0-.28,0-.54,0-.82h0a2.55,2.55,0,0,1,0-.39c-.06-1.36-.1-2.69-.13-4h0c-.06-2.57-.08-5,0-7.28,0-.84,0-1.65.09-2.45,0-.35,0-.69,0-1s0-.53.06-.79h0c.05-.78.12-1.52.2-2.27.08-.92.2-1.8.33-2.67.08-.49.15-1,.24-1.45a34.1,34.1,0,0,1,1.34-5.23h0a20.11,20.11,0,0,1,3.85-6.8h0c2.72-3,6.52-5,11.74-6a41.15,41.15,0,0,1,4.62-.56A39.09,39.09,0,0,1,764,97.93c7.29,6.65,12.8,16.5,15.49,29.46.38,1.81.7,3.7,1,5.64s.49,4.11.64,6.26q.08,1.16.24,2.28a33.44,33.44,0,0,0,.66,3.57c0,.1,0,.21.07.31C789.29,175,830.38,200.38,782.37,230.06Z" transform="translate(-335.35 -73.48)"/><path class="cls-21" d="M701.24,146.88c2.11,31.38,24,43.08,41.9,54.27,8.64,5.4,13.09,16.54,19.62,21.53,4,3.06,8.8,3.81,15.84-.55,45.43-28.09,8.89-53.57-1.18-80.36-6.16-16.43-18.67-39.67-39.7-38.26A59.37,59.37,0,0,0,727.63,105C711.41,109,699.49,120.7,701.24,146.88Z" transform="translate(-335.35 -73.48)"/><path class="cls-22" d="M701.24,146.88c2.11,31.38,21,42.35,33.87,59.06,6.38,8.28,21.12,11.75,27.65,16.74,44-27.86,7.91-53.18-2.09-79.79-5.47-14.61-16-34.62-33-37.87C711.41,109,699.49,120.7,701.24,146.88Z" transform="translate(-335.35 -73.48)"/><path class="cls-2" d="M750,194.46l.67,7.92,1.48,17.75a12.69,12.69,0,0,1-25.3,2.11l-1.71-20.55-.43-5.12a12.57,12.57,0,0,1,1.88-7.76,10.56,10.56,0,0,1,1.08-1.5A12.69,12.69,0,0,1,750,194.46Z" transform="translate(-335.35 -73.48)"/><path class="cls-23" d="M750,194.46l.67,7.92-25.53-.69-.43-5.12a12.57,12.57,0,0,1,1.88-7.76,10.56,10.56,0,0,1,1.08-1.5A12.69,12.69,0,0,1,750,194.46Z" transform="translate(-335.35 -73.48)"/><path class="cls-2" d="M772.49,151.73a12.06,12.06,0,0,1-.14,2.45,9.24,9.24,0,0,1-4.26,6.74,4.81,4.81,0,0,1-2.31.59c-2,21.48-12.19,37.72-33.29,39.14a33.9,33.9,0,0,1-17.08-3c-14.52-6.88-21.81-24.74-23.24-46a72.39,72.39,0,0,1,.07-10.53c1.9-23.61,15.56-42.19,33.34-43.37,19.84-1.34,37.48,19.43,40.13,46.78a4.55,4.55,0,0,1,2-.06,3.71,3.71,0,0,1,.67.2C770.74,145.57,772.34,148.38,772.49,151.73Z" transform="translate(-335.35 -73.48)"/><polygon class="cls-24" points="369.4 42.26 392.12 38.73 436.81 73.41 410.28 67.23 377.98 49.22 356.66 73.25 355.98 65.77 362.31 40.73 369.4 42.26"/><path class="cls-20" d="M774.23,126.76l-13.11-17.2-6.46-4.64-9-4.69L734.26,94.5l-17.57-.16L699,111.19l.86,1.55-4.33-1.31-4.66,24.08s-8.13,12,1.21,8.08c12-8.15,18.1-27.71,18.1-27.71S748,143.55,781.25,150C783.86,146.45,774.23,126.76,774.23,126.76Z" transform="translate(-335.35 -73.48)"/><path class="cls-13" d="M747.78,118c-8-4.44-17.73-5.8-27.22-5.59-9.48.4-19.09,2.38-26.81,7.32,0,0-1-1.54-2.39-4-4.33-7.42-12.69-23.17-9-28.52,10.55-15.43,64.92-18.36,74.73-2.44l0,0C761.59,92.2,747.78,118,747.78,118Z" transform="translate(-335.35 -73.48)"/><rect class="cls-12" x="717.59" y="84.34" width="4.76" height="19.09" transform="translate(-338 -50.31) rotate(-1.84)"/><rect class="cls-12" x="710.42" y="91.51" width="19.09" height="4.76" transform="translate(-337.99 -50.38) rotate(-1.83)"/><path class="cls-25" d="M747.78,118c-8-4.44-17.73-5.8-27.22-5.59-9.48.4-19.09,2.38-26.81,7.32,0,0-1-1.54-2.39-4a309.44,309.44,0,0,0,30.2-12.38l1.08-.5c13.8-6.5,26-13.21,34.43-18.08l0,0C761.59,92.2,747.78,118,747.78,118Z" transform="translate(-335.35 -73.48)"/><path class="cls-13" d="M678.85,229.39l-18.38,99.54-24,12.66s-10.62,13.86,1.43,20.19C651,368.66,695,357.63,695,357.63Z" transform="translate(-335.35 -73.48)"/><polygon class="cls-26" points="339.39 212.91 334.09 258.63 345.79 268.08 339.39 212.91"/><polygon class="cls-27" points="425.38 162.91 425.38 141.31 415.28 133.37 389.75 133.37 379.63 137.77 381.58 150.24 383.57 162.91 378.96 162.91 378.96 324.04 429.98 324.04 429.98 162.91 425.38 162.91"/><path class="cls-2" d="M760.73,214.79v2.34a35.84,35.84,0,0,1-43.8,6.59L715,211.25l10.13-4.41h25.52Z" transform="translate(-335.35 -73.48)"/><path class="cls-28" d="M687.79,684c3.22-3.64,10.91-6.08,15-7.16h.08l0-.08,12.87-14.61a3.46,3.46,0,0,1,3,.36c1,.81,1.53,2.56,1.55,4.71l3.26,32-.91.25-4.17-25a17.27,17.27,0,0,1-1.55,2.48c-.69.89-1.37,1.71-2.06,2.49L705.43,700l-22.23-.54A18.75,18.75,0,0,1,687.79,684Z" transform="translate(-335.35 -73.48)"/><path class="cls-2" d="M706.58,648.13c0-.2,0-.41,0-.63h10.28c.16,4,1.49,14.73,1.49,14.73v0l.15,1.47S707.16,684.6,700.14,685c-1.45.09-4.28-2.46-4.32-3.92a9.63,9.63,0,0,1,.29-2.11C697.86,671.05,706.23,656.27,706.58,648.13Z" transform="translate(-335.35 -73.48)"/><path class="cls-28" d="M739.22,684c3.22-3.64,10.91-6.08,15-7.16h.07a.41.41,0,0,0,0-.08l12.87-14.61a3.46,3.46,0,0,1,3.05.36c1,.81,1.53,2.56,1.55,4.71l3.25,32-.9.25-4.17-25a17.27,17.27,0,0,1-1.55,2.48c-.69.89-1.37,1.71-2.06,2.49L756.86,700l-22.24-.54A18.78,18.78,0,0,1,739.22,684Z" transform="translate(-335.35 -73.48)"/><path class="cls-2" d="M758,648.13c0-.2,0-.41,0-.63h10.28c.16,4,1.49,14.73,1.49,14.73v0l.15,1.47S758.59,684.6,751.56,685c-1.45.09-4.27-2.46-4.31-3.92a9.63,9.63,0,0,1,.29-2.11C749.28,671.05,757.65,656.27,758,648.13Z" transform="translate(-335.35 -73.48)"/><polygon class="cls-28" points="451 319.45 446.11 416.61 437.93 578.68 416.04 578.68 406.18 428.52 401.01 349.74 399.17 349.74 395.2 428.62 387.63 578.68 365.74 578.68 355.16 417.46 348.71 319.39 384.53 319.39 399.02 319.44 399.02 319.39 434.84 319.39 451 319.45"/><path class="cls-29" d="M786.35,392.93l-4.89,97.15A93.38,93.38,0,0,1,741.54,502l-5.18-78.77h-1.84l-4,78.88a93.82,93.82,0,0,1-40-11.16l-6.44-98.07h35.82l14.48.05v-.05h35.82Z" transform="translate(-335.35 -73.48)"/><path class="cls-13" d="M765.1,211.24,796,225S810.7,429.21,800,467c-8.9,31.3-55.38,24-55.38,24l-4-195.81Z" transform="translate(-335.35 -73.48)"/><rect class="cls-30" x="417.53" y="342.98" width="33.22" height="34.62"/><path class="cls-31" d="M740.56,295.17l28.56-40.92-7.16-11h7.18l.35-2.28s-10.72-7.61-12.08-7.1S740.56,295.17,740.56,295.17Z" transform="translate(-335.35 -73.48)"/><path class="cls-30" d="M765.1,211.24C768,214.9,769.49,241,769.49,241L757.91,242l8.89,10.81-26.24,42.34,9.29-48.2,6.84-39.42S763.28,209,765.1,211.24Z" transform="translate(-335.35 -73.48)"/><path class="cls-13" d="M708.5,211.24l-29.65,18.15S662.43,429.21,673.16,467c8.9,31.3,55.38,24,55.38,24L733,295.17Z" transform="translate(-335.35 -73.48)"/><rect class="cls-30" x="351.31" y="342.98" width="33.22" height="34.62"/><polygon class="cls-31" points="368.76 167.48 379.63 172.9 370.77 181.85 397.69 221.7 383.47 161.44 368.76 167.48"/><path class="cls-30" d="M708.5,211.24c-2.89,3.66-4.39,29.72-4.39,29.72L715.69,242l-8.89,10.81L733,295.17,723.75,247l-6.84-39.42S710.31,209,708.5,211.24Z" transform="translate(-335.35 -73.48)"/><polygon class="cls-2" points="388.8 271.25 397.16 274.48 396.1 290.57 387.41 286.37 388.8 271.25"/><polygon class="cls-28" points="366.13 281.18 362.81 287.57 362.89 280.31 366.13 281.18"/><path class="cls-32" d="M706.78,319.61l-8.53,34.19a1.72,1.72,0,0,0,1.19,2.1,1.67,1.67,0,0,0,2-1.24L710,320.48a1.74,1.74,0,0,0-1.2-2.11A1.66,1.66,0,0,0,706.78,319.61Z" transform="translate(-335.35 -73.48)"/><polygon class="cls-32" points="369.19 249.57 370.48 249.91 371.42 246.13 370.13 245.79 369.19 249.57"/><polygon class="cls-32" points="366.77 256.52 368.06 256.87 370.77 245.96 369.48 245.62 366.77 256.52"/><path class="cls-32" d="M708.81,318.37l-9.37,37.53a1.67,1.67,0,0,0,2-1.24L710,320.48A1.74,1.74,0,0,0,708.81,318.37Z" transform="translate(-335.35 -73.48)"/><path class="cls-13" d="M830.56,341.56c-.36,6.6-1.81,12.13-4.69,16.07-12.46,17-74.56,11.16-93.87,8.9h-.15c-2.51-.3-4.27-.52-5.09-.63-.33,0-.5-.08-.5-.08l-2.11-23.74,36.19-4.91h0l26.16-3.54s-1.43-7.94-2.6-19.75v0c-2.47-25-3.78-67.39,12.1-88.85C796,225,832.68,302.19,830.56,341.56Z" transform="translate(-335.35 -73.48)"/><path class="cls-2" d="M724.15,344.73l-1.38,15.11s-11.25-.09-14.71-1.41a65.42,65.42,0,0,1-8-3.81c-3.52-2-7-4.38-8.36-6.59s-3.34-8.51-1.92-10.87c2.16-3.52,11.72-4.32,16.7-3.73a12,12,0,0,1,1.69.29C713.5,335.09,724.15,344.73,724.15,344.73Z" transform="translate(-335.35 -73.48)"/><path class="cls-33" d="M706.52,333.43a44.16,44.16,0,0,0-6.42,21.19c-3.52-2-7-4.38-8.36-6.59s-3.34-8.51-1.92-10.87C692,333.64,701.54,332.84,706.52,333.43Z" transform="translate(-335.35 -73.48)"/><path class="cls-26" d="M830.56,341.56c-.36,6.6-1.81,12.13-4.69,16.07-12.46,17-74.56,11.16-93.87,8.9C749.6,368.38,803.27,371.22,830.56,341.56Z" transform="translate(-335.35 -73.48)"/><path class="cls-26" d="M760.37,337.16l26.16-3.54s-1.43-7.94-2.6-19.75l5.61,20.69Z" transform="translate(-335.35 -73.48)"/><rect class="cls-30" x="422.91" y="200.24" width="35.62" height="19.26"/><rect class="cls-34" x="425.38" y="205.58" width="10.02" height="8.59"/><rect class="cls-34" x="438.08" y="206.2" width="17.97" height="1.25"/><rect class="cls-34" x="438.08" y="209.24" width="17.97" height="1.25"/><rect class="cls-34" x="438.08" y="212.29" width="17.97" height="1.25"/><rect class="cls-13" x="438.84" y="196.83" width="3.76" height="5.16"/><polygon class="cls-35" points="254.59 235.75 312.67 235.75 381.43 291.47 323.76 291.62 254.59 235.75"/><polygon class="cls-36" points="252.44 235.75 310.52 235.75 379.29 291.47 321.62 291.62 252.44 235.75"/><path class="cls-2" d="M628.13,339.72s15.62-17.51,24.52,16.83c-4.34,5.66-5.83,5.66-5.83,5.66S617.7,345.1,628.13,339.72Z" transform="translate(-335.35 -73.48)"/><path class="cls-37" d="M712.07,303.34,702,297.87c-8.64-8.26-14.76-38.9-15-40.2l1.3-.51c.06.31,6.2,31.11,14.4,39.07l9.85,5.32Z" transform="translate(-335.35 -73.48)"/><path class="cls-38" d="M714.41,305.06A1,1,0,0,1,714,305l-3.2-1.68a1.56,1.56,0,0,1-.72-.93,2.42,2.42,0,0,1,0-1.36c.24-.89,1-1.38,1.62-1.05l3.21,1.68a1.57,1.57,0,0,1,.71.93,2.42,2.42,0,0,1,0,1.36A1.36,1.36,0,0,1,714.41,305.06Z" transform="translate(-335.35 -73.48)"/><path class="cls-37" d="M695,303.34l-.49-1.79,9.84-5.32c8.21-8,14.35-38.76,14.41-39.07l1.3.51c-.25,1.3-6.36,31.94-15,40.2l-.14.1Z" transform="translate(-335.35 -73.48)"/><path class="cls-38" d="M692.63,305.06a1.37,1.37,0,0,1-1.18-1.16,2.42,2.42,0,0,1,0-1.36,1.57,1.57,0,0,1,.71-.93l3.21-1.68c.63-.33,1.38.16,1.62,1.05a2.42,2.42,0,0,1,0,1.36,1.53,1.53,0,0,1-.7.93L693.07,305A1,1,0,0,1,692.63,305.06Z" transform="translate(-335.35 -73.48)"/><path class="cls-39" d="M719.54,258c-.74,0-1.35-.85-1.35-1.9,0-6.78-2.28-12.3-6.33-15.56a13.17,13.17,0,0,0-16.76.09c-2.8,2.3-6.12,6.85-6.09,15.44,0,1.05-.6,1.91-1.34,1.92h0c-.75,0-1.35-.85-1.36-1.9,0-8.12,2.61-14.78,7.43-18.76a15.29,15.29,0,0,1,19.47-.1c4.93,4,7.67,10.65,7.69,18.85,0,1.05-.59,1.91-1.34,1.92Z" transform="translate(-335.35 -73.48)"/><path class="cls-39" d="M704.92,235.41l-3,0c0-.32.25-33.18,23.21-33.18l.31,3.75C705.42,206,704.92,235.12,704.92,235.41Z" transform="translate(-335.35 -73.48)"/><path class="cls-39" d="M777.75,294.89c-.21-56.33-10.4-77.37-18.91-85.1-4.57-4.14-8.06-3.65-7.92-4l-.24-3.43s4.39.08,9.94,5c9.07,8,19.91,29.72,20.12,87.51Z" transform="translate(-335.35 -73.48)"/><path class="cls-40" d="M786.12,297.88a7.22,7.22,0,1,1-7.21-7.22A7.21,7.21,0,0,1,786.12,297.88Z" transform="translate(-335.35 -73.48)"/><path class="cls-38" d="M785.37,297.88a6.47,6.47,0,1,1-6.46-6.47A6.47,6.47,0,0,1,785.37,297.88Z" transform="translate(-335.35 -73.48)"/><path class="cls-5" d="M783.4,297.88a4.5,4.5,0,1,1-4.49-4.5A4.49,4.49,0,0,1,783.4,297.88Z" transform="translate(-335.35 -73.48)"/></g></svg>