<svg xmlns="http://www.w3.org/2000/svg" width="1920" height="312" viewBox="0 0 1920 312"><g transform="translate(59.59 -1306.816)"><g transform="translate(1510.045 1306.816)"><path d="M32.965,118.307V85.341H0V32.965H32.965V0H85.341V32.965h32.965V85.341H85.341v32.965Z" transform="translate(0 91.34)" fill="#dedede" opacity="0.132"/><path d="M32.965,118.307V85.341H0V32.965H32.965V0H85.341V32.965h32.965V85.341H85.341v32.965Z" transform="translate(90.915 30.403)" fill="#dedede" opacity="0.132"/><path d="M32.965,118.307V85.341H0V32.965H32.965V0H85.341V32.965h32.965V85.341H85.341v32.965Z" transform="translate(232.058)" fill="#dbd7d7" opacity="0.154"/><path d="M32.965,118.307V85.341H0V32.965H32.965V0H85.341V32.965h32.965V85.341H85.341v32.965Z" transform="translate(90.91 153.693)" fill="#dbd7d7" opacity="0.154"/><path d="M32.965,118.307V85.341H0V32.965H32.965V0H85.341V32.965h32.965V85.341H85.341v32.965Z" transform="translate(232.058 184.233)" fill="#dbd7d7" opacity="0.154"/><path d="M32.965,118.307V85.341H0V32.965H32.965V0H85.341V32.965h32.965V85.341H85.341v32.965Z" transform="translate(177.111 91.761)" fill="#dbd7d7" opacity="0.154"/></g><g transform="translate(-59.59 1308.22)"><path d="M32.965,118.307V85.341H0V32.965H32.965V0H85.341V32.965h32.965V85.341H85.341v32.965Z" transform="translate(59.09 90.95)" fill="#dedede" opacity="0.132"/><path d="M32.965,118.307V85.341H0V32.965H32.965V0H85.341V32.965h32.965V85.341H85.341v32.965Z" transform="translate(0.005)" fill="#dedede" opacity="0.132"/><path d="M32.965,118.307V85.341H0V32.965H32.965V0H85.341V32.965h32.965V85.341H85.341v32.965Z" transform="translate(259.149 98.294)" fill="#dbd7d7" opacity="0.154"/><path d="M32.965,118.307V85.341H0V32.965H32.965V0H85.341V32.965h32.965V85.341H85.341v32.965Z" transform="translate(0 192.29)" fill="#dbd7d7" opacity="0.154"/><path d="M32.965,118.307V85.341H0V32.965H32.965V0H85.341V32.965h32.965V85.341H85.341v32.965Z" transform="translate(150.149 156.829)" fill="#dbd7d7" opacity="0.154"/><path d="M32.965,118.307V85.341H0V32.965H32.965V0H85.341V32.965h32.965V85.341H85.341v32.965Z" transform="translate(150.201 31.652)" fill="#dbd7d7" opacity="0.154"/></g></g></svg>