<svg xmlns="http://www.w3.org/2000/svg" width="77.645" height="117.332" viewBox="0 0 77.645 117.332">
  <g id="notification" transform="translate(-80.833 3)">
    <g id="Rectangle_170" data-name="Rectangle 170" transform="translate(80.833 -3)" fill="#fff" stroke="#000" stroke-width="2">
      <rect width="64.813" height="117.332" rx="7" stroke="none"/>
      <rect x="1" y="1" width="62.813" height="115.332" rx="6" fill="none"/>
    </g>
    <path id="Path_201" data-name="Path 201" d="M82.833,137.086H147.76V49.7H134.465a1.5,1.5,0,0,0-1.315.729l-1.216,2.183a1.5,1.5,0,0,1-1.314.729H99.973a1.5,1.5,0,0,1-1.315-.729L97.442,50.43a1.5,1.5,0,0,0-1.315-.729H82.833Z" transform="translate(1.106 -35.869)" fill="#45c2c6"/>
    <path id="Path_202" data-name="Path 202" d="M201.253,464.65h-8.116a1.837,1.837,0,1,0,0,3.674h8.116a1.837,1.837,0,0,0,0-3.674Z" transform="translate(-83.503 -359.182)" fill="#222831"/>
    <path id="Path_203" data-name="Path 203" d="M180.46,25.633H168.286a1.837,1.837,0,1,0,0,3.674H180.46a1.837,1.837,0,1,0,0-3.674Z" transform="translate(-64.311 -17.696)" fill="#222831"/>
    <path id="Path_204" data-name="Path 204" d="M244.866,25.633h-2.029a1.837,1.837,0,1,0,0,3.674h2.029a1.837,1.837,0,0,0,0-3.674Z" transform="translate(-121.845 -17.696)" fill="#929aab"/>
    <path id="Path_205" data-name="Path 205" d="M330.532,52.234V49.7H324.9v87.385h5.634Z" transform="translate(-186.92 -35.869)" fill="#31abaf"/>
    <path id="Path_206" data-name="Path 206" d="M239.044,168.719a4.058,4.058,0,0,1-4.058,4.058H217.46a1.469,1.469,0,0,0-1.176.588l-4.47,5.96a1.47,1.47,0,0,1-2.351,0l-4.47-5.96a1.469,1.469,0,0,0-1.176-.588H186.291a4.058,4.058,0,0,1-4.058-4.058V120.024a4.058,4.058,0,0,1,4.058-4.058h48.695a4.058,4.058,0,0,1,4.058,4.058Z" transform="translate(-80.566 -91.12)" fill="#eef2f5"/>
    <path id="Path_207" data-name="Path 207" d="M289.529,348.488,286.7,352.26l1.641,2.188a1.47,1.47,0,0,0,2.351,0l4.47-5.96a1.47,1.47,0,0,1,1.176-.588H290.7A1.47,1.47,0,0,0,289.529,348.488Z" transform="translate(-157.53 -268.505)" fill="#d3e6f5"/>
    <path id="Path_208" data-name="Path 208" d="M380.234,115.966H374.6a4.058,4.058,0,0,1,4.058,4.058v48.695a4.058,4.058,0,0,1-4.058,4.058h5.634a4.058,4.058,0,0,0,4.058-4.058V120.024A4.058,4.058,0,0,0,380.234,115.966Z" transform="translate(-225.814 -90.592)" fill="#d3e6f5"/>
    <path id="Path_209" data-name="Path 209" d="M260.339,168.552v-7.079A12.3,12.3,0,0,0,248.374,149.1a12.174,12.174,0,0,0-12.382,12.172v7.507a1.47,1.47,0,0,1-.43,1.039l-3.2,3.2a1.47,1.47,0,0,0-.43,1.039v6.037a1.47,1.47,0,0,0,1.47,1.47h29.524a1.47,1.47,0,0,0,1.47-1.47v-6.063a1.469,1.469,0,0,0-.4-1.007l-3.259-3.463a1.468,1.468,0,0,1-.4-1.007Z" transform="translate(-117.3 -115.262)" fill="#e5292e"/>
    <path id="Path_210" data-name="Path 210" d="M305.3,173.023l-3.259-3.463a1.469,1.469,0,0,1-.4-1.007v-7.079a12.181,12.181,0,0,0-15.006-12.042,12.374,12.374,0,0,1,9.373,12.042v7.079a1.469,1.469,0,0,0,.4,1.007l3.259,3.463a1.469,1.469,0,0,1,.4,1.007v6.063a1.47,1.47,0,0,1-1.47,1.47h5.634a1.47,1.47,0,0,0,1.47-1.47V174.03A1.471,1.471,0,0,0,305.3,173.023Z" transform="translate(-158.775 -115.262)" fill="#bf171c"/>
    <ellipse id="Ellipse_26" data-name="Ellipse 26" cx="4.058" cy="4.058" rx="4.058" ry="4.058" transform="translate(128.13 64.463)" fill="#e5292e"/>
    <path id="Path_211" data-name="Path 211" d="M132.2,389.149a4.058,4.058,0,1,0,0-8.116H120.024a4.058,4.058,0,1,0,0,8.116Z" transform="translate(-23.912 -294.265)" fill="#47d583"/>
    <path id="Path_212" data-name="Path 212" d="M164.867,381.034h-5.634a4.058,4.058,0,1,1,0,8.116h5.634a4.058,4.058,0,1,0,0-8.116Z" transform="translate(-58.517 -294.266)" fill="#28b463"/>
    <path id="Path_213" data-name="Path 213" d="M242.837,224.433v1.228a1.47,1.47,0,0,1-.43,1.039L241,228.107h28.152l-1.568-1.666a1.469,1.469,0,0,1-.4-1.007v-1Z" transform="translate(-123.256 -172.625)" fill="#bf171c"/>
  </g>
</svg>
