<svg xmlns="http://www.w3.org/2000/svg" width="477.89" height="633.642" viewBox="0 0 477.89 633.642">
  <g id="doctor_and_patient" data-name="doctor and patient" transform="translate(0 -5.668)">
    <path id="shadow" d="M813.24,700c0,7.06-107,12.79-238.94,12.79S335.35,707,335.35,700s107-12.79,238.95-12.79S813.24,692.88,813.24,700Z" transform="translate(-335.35 -73.48)" fill="#28b463"/>
    <g id="nurse" transform="translate(-134.44 5)">
      <path id="Path_61" data-name="Path 61" d="M752.67,125.62V126h0a3.328,3.328,0,0,0,.07.83c.15,1.71.29,3.5.44,5.34a5.261,5.261,0,0,0,.09,1.18c.14,2,.28,4,.43,6.09,0,.5.07,1,.09,1.51h0v.6a5.853,5.853,0,0,0,0,.59q0,.225,0,.48h0c0,.4.05.78.06,1.16,0,.86.09,1.72.13,2.56.73,17.42-.65,30-5.07,40.18h0c-.37.84-.86,1.79-1.43,2.8-.1.18-.21.35-.32.54-1.37,2.38-3.07,4.92-4.22,6.59h0c-.8,1.15-1.34,1.9-1.34,1.9s-.13.23-.31.59h0l-.41.78L738.81,204l-.62,1.19c-1.8,3.51-3.64,7.08-3.68,7.11l-.46.64-.1.15c-.71,1-2.08,2.94-4,5.27-7,8.69-20.89,23.09-33.5,17.46-51.72-23.09-13.94-53.86-10.94-84.22a33.989,33.989,0,0,0,.2-3.63c0-.76,0-1.52-.07-2.29-.21-3.18-.26-6.26-.16-9.2v-.74c0-.7.07-1.39.11-2.07,1-13.19,5.1-23.7,11.42-31.26A39.266,39.266,0,0,1,701.45,98a38.271,38.271,0,0,1,15.38-8.19,42.08,42.08,0,0,1,8.24-1.37,43.57,43.57,0,0,1,4.68-.06c9.54.48,15,4.87,18.27,13.12.32.8.62,1.65.91,2.53.15.46.29.93.43,1.4h0c.25.84.48,1.7.69,2.59a.389.389,0,0,0,.06.26h0c.16.64.3,1.28.43,1.95.06.26.12.51.16.78C751.54,115.27,752.16,120.15,752.67,125.62Z" transform="translate(-335.35 -73.48)" fill="#5f4218"/>
      <path id="Path_62" data-name="Path 62" d="M765.79,142.55c2.11,31.39-18,45.91-34.27,59.38-7.84,6.5-10.76,18.14-16.57,24-3.56,3.57-8.21,5-15.76,1.57-48.77-21.77-16-51.9-9.57-79.8,3.91-17.1,13.2-41.81,34.24-43.22a59.621,59.621,0,0,1,10.2.15C750.66,106.37,764,116.37,765.79,142.55Z" transform="translate(-335.35 -73.48)" fill="#473212"/>
      <path id="Path_63" data-name="Path 63" d="M765.79,142.55c2.11,31.39-15.43,59.5-31.66,73-7.84,6.5-13.37,4.54-19.18,10.36-47.34-21.74-14.93-51.65-8.58-79.36,3.48-15.21,11.22-36.44,27.69-41.94C750.66,106.37,764,116.37,765.79,142.55Z" transform="translate(-335.35 -73.48)" fill="#35260e"/>
      <path id="Path_64" data-name="Path 64" d="M782.37,230.06c-16.18,10-21.88-3.84-31-15.16h0c-.1-.14-.2-.26-.31-.4a38.151,38.151,0,0,0-8-7.65.47.47,0,0,1-.09-.06c-.21-.13-.43-.29-.66-.42l-1-.61-.24-.16a1.643,1.643,0,0,1-.22-.14c-.64-.4-1.24-.82-1.84-1.25a1.648,1.648,0,0,1-.27-.19c-.61-.42-1.2-.86-1.78-1.28-1-.73-1.9-1.47-2.8-2.24-.17-.13-.31-.28-.48-.41l-.66-.58h0a1.136,1.136,0,0,0-.11-.11c-.13-.11-.24-.22-.35-.33A47.881,47.881,0,0,1,724,188.6h0c-.08-.12-.15-.23-.23-.33h0a55.164,55.164,0,0,1-3.53-7,37.8,37.8,0,0,1-1.39-3.6,80.23,80.23,0,0,1-2.51-8.81h0q-.64-2.76-1.15-5.79c-.39-2.15-.71-4.38-1-6.72h0a6.326,6.326,0,0,0-.11-.86h0c-.22-1.82-.44-3.71-.62-5.66h0v-.13h0v-.88h0c-.13-1.44-.25-2.9-.35-4.41-.06-.7-.11-1.41-.16-2.13v-.13c-.07-.92-.13-1.84-.19-2.74,0-.54-.06-1.07-.1-1.6h0c0-.55-.07-1.08-.1-1.61-.13-2.26-.25-4.44-.34-6.53v-.82h0a2.552,2.552,0,0,1,0-.39c-.06-1.36-.1-2.69-.13-4h0c-.06-2.57-.08-5,0-7.28a21.926,21.926,0,0,1,.09-2.45v-1a3.3,3.3,0,0,1,.06-.79h0c.05-.78.12-1.52.2-2.27.08-.92.2-1.8.33-2.67.08-.49.15-1,.24-1.45a34.1,34.1,0,0,1,1.34-5.23h0a20.109,20.109,0,0,1,3.85-6.8h0c2.72-3,6.52-5,11.74-6a41.153,41.153,0,0,1,4.62-.56A39.09,39.09,0,0,1,764,97.93c7.29,6.65,12.8,16.5,15.49,29.46.38,1.81.7,3.7,1,5.64s.49,4.11.64,6.26q.08,1.16.24,2.28a33.46,33.46,0,0,0,.66,3.57.5.5,0,0,0,.07.31C789.29,175,830.38,200.38,782.37,230.06Z" transform="translate(-335.35 -73.48)" fill="#5f4218"/>
      <path id="Path_65" data-name="Path 65" d="M701.24,146.88c2.11,31.38,24,43.08,41.9,54.27,8.64,5.4,13.09,16.54,19.62,21.53,4,3.06,8.8,3.81,15.84-.55,45.43-28.09,8.89-53.57-1.18-80.36-6.16-16.43-18.67-39.67-39.7-38.26A59.371,59.371,0,0,0,727.63,105C711.41,109,699.49,120.7,701.24,146.88Z" transform="translate(-335.35 -73.48)" fill="#473212"/>
      <path id="Path_66" data-name="Path 66" d="M701.24,146.88c2.11,31.38,21,42.35,33.87,59.06,6.38,8.28,21.12,11.75,27.65,16.74,44-27.86,7.91-53.18-2.09-79.79-5.47-14.61-16-34.62-33-37.87C711.41,109,699.49,120.7,701.24,146.88Z" transform="translate(-335.35 -73.48)" fill="#35260e"/>
      <path id="Path_67" data-name="Path 67" d="M750,194.46l.67,7.92,1.48,17.75a12.694,12.694,0,0,1-25.3,2.11l-1.71-20.55-.43-5.12a12.57,12.57,0,0,1,1.88-7.76,10.57,10.57,0,0,1,1.08-1.5A12.69,12.69,0,0,1,750,194.46Z" transform="translate(-335.35 -73.48)" fill="#fcae88"/>
      <path id="Path_68" data-name="Path 68" d="M750,194.46l.67,7.92-25.53-.69-.43-5.12a12.57,12.57,0,0,1,1.88-7.76,10.57,10.57,0,0,1,1.08-1.5A12.69,12.69,0,0,1,750,194.46Z" transform="translate(-335.35 -73.48)" fill="#f58d86" opacity="0.6"/>
      <path id="Path_69" data-name="Path 69" d="M772.49,151.73a12.059,12.059,0,0,1-.14,2.45,9.24,9.24,0,0,1-4.26,6.74,4.809,4.809,0,0,1-2.31.59c-2,21.48-12.19,37.72-33.29,39.14a33.9,33.9,0,0,1-17.08-3c-14.52-6.88-21.81-24.74-23.24-46a72.394,72.394,0,0,1,.07-10.53c1.9-23.61,15.56-42.19,33.34-43.37,19.84-1.34,37.48,19.43,40.13,46.78a4.55,4.55,0,0,1,2-.06,3.711,3.711,0,0,1,.67.2C770.74,145.57,772.34,148.38,772.49,151.73Z" transform="translate(-335.35 -73.48)" fill="#fcae88"/>
      <path id="Path_70" data-name="Path 70" d="M369.4,42.26l22.72-3.53,44.69,34.68-26.53-6.18-32.3-18.01L356.66,73.25l-.68-7.48,6.33-25.04Z" fill="#bd8366" opacity="0.28"/>
      <path id="Path_71" data-name="Path 71" d="M774.23,126.76l-13.11-17.2-6.46-4.64-9-4.69-11.4-5.73-17.57-.16L699,111.19l.86,1.55-4.33-1.31-4.66,24.08s-8.13,12,1.21,8.08c12-8.15,18.1-27.71,18.1-27.71S748,143.55,781.25,150C783.86,146.45,774.23,126.76,774.23,126.76Z" transform="translate(-335.35 -73.48)" fill="#5f4218"/>
      <path id="Path_72" data-name="Path 72" d="M747.78,118c-8-4.44-17.73-5.8-27.22-5.59-9.48.4-19.09,2.38-26.81,7.32,0,0-1-1.54-2.39-4-4.33-7.42-12.69-23.17-9-28.52,10.55-15.43,64.92-18.36,74.73-2.44h0C761.59,92.2,747.78,118,747.78,118Z" transform="translate(-335.35 -73.48)" fill="#f1f2f2"/>
      <rect id="Rectangle_8" data-name="Rectangle 8" width="4.76" height="19.09" transform="translate(381.925 10.944) rotate(-1.84)" fill="#45c2c6"/>
      <rect id="Rectangle_9" data-name="Rectangle 9" width="19.09" height="4.76" transform="matrix(0.999, -0.032, 0.032, 0.999, 374.99, 18.4)" fill="#45c2c6"/>
      <path id="Path_73" data-name="Path 73" d="M747.78,118c-8-4.44-17.73-5.8-27.22-5.59-9.48.4-19.09,2.38-26.81,7.32,0,0-1-1.54-2.39-4a309.452,309.452,0,0,0,30.2-12.38l1.08-.5c13.8-6.5,26-13.21,34.43-18.08h0C761.59,92.2,747.78,118,747.78,118Z" transform="translate(-335.35 -73.48)" fill="#d1d3d4" opacity="0.33"/>
      <path id="Path_74" data-name="Path 74" d="M678.85,229.39l-18.38,99.54-24,12.66s-10.62,13.86,1.43,20.19c13.1,6.88,57.1-4.15,57.1-4.15Z" transform="translate(-335.35 -73.48)" fill="#f1f2f2"/>
      <path id="Path_75" data-name="Path 75" d="M339.39,212.91l-5.3,45.72,11.7,9.45Z" fill="#b5b6b6" opacity="0.28"/>
      <path id="Path_76" data-name="Path 76" d="M425.38,162.91v-21.6l-10.1-7.94H389.75l-10.12,4.4,1.95,12.47,1.99,12.67h-4.61V324.04h51.02V162.91Z" fill="#e5292e"/>
      <path id="Path_77" data-name="Path 77" d="M760.73,214.79v2.34a35.84,35.84,0,0,1-43.8,6.59L715,211.25l10.13-4.41h25.52Z" transform="translate(-335.35 -73.48)" fill="#fcae88"/>
      <path id="Path_78" data-name="Path 78" d="M687.79,684c3.22-3.64,10.91-6.08,15-7.16h.08v-.08l12.87-14.61a3.46,3.46,0,0,1,3,.36c1,.81,1.53,2.56,1.55,4.71l3.26,32-.91.25-4.17-25a17.27,17.27,0,0,1-1.55,2.48c-.69.89-1.37,1.71-2.06,2.49L705.43,700l-22.23-.54A18.751,18.751,0,0,1,687.79,684Z" transform="translate(-335.35 -73.48)" fill="#414042"/>
      <path id="Path_79" data-name="Path 79" d="M706.58,648.13v-.63h10.28c.16,4,1.49,14.73,1.49,14.73h0l.15,1.47s-11.34,20.9-18.36,21.3c-1.45.09-4.28-2.46-4.32-3.92a9.628,9.628,0,0,1,.29-2.11C697.86,671.05,706.23,656.27,706.58,648.13Z" transform="translate(-335.35 -73.48)" fill="#fcae88"/>
      <path id="Path_80" data-name="Path 80" d="M739.22,684c3.22-3.64,10.91-6.08,15-7.16h.07a.408.408,0,0,0,0-.08l12.87-14.61a3.461,3.461,0,0,1,3.05.36c1,.81,1.53,2.56,1.55,4.71l3.25,32-.9.25-4.17-25a17.265,17.265,0,0,1-1.55,2.48c-.69.89-1.37,1.71-2.06,2.49L756.86,700l-22.24-.54a18.78,18.78,0,0,1,4.6-15.46Z" transform="translate(-335.35 -73.48)" fill="#414042"/>
      <path id="Path_81" data-name="Path 81" d="M758,648.13v-.63h10.28c.16,4,1.49,14.73,1.49,14.73h0l.15,1.47s-11.33,20.9-18.36,21.3c-1.45.09-4.27-2.46-4.31-3.92a9.631,9.631,0,0,1,.29-2.11C749.28,671.05,757.65,656.27,758,648.13Z" transform="translate(-335.35 -73.48)" fill="#fcae88"/>
      <path id="Path_82" data-name="Path 82" d="M451,319.45l-4.89,97.16-8.18,162.07H416.04l-9.86-150.16-5.17-78.78h-1.84l-3.97,78.88-7.57,150.06H365.74L355.16,417.46l-6.45-98.07h35.82l14.49.05v-.05h35.82Z" fill="#414042"/>
      <path id="Path_83" data-name="Path 83" d="M786.35,392.93l-4.89,97.15A93.378,93.378,0,0,1,741.54,502l-5.18-78.77h-1.84l-4,78.88a93.819,93.819,0,0,1-40-11.16l-6.44-98.07H719.9l14.48.05v-.05H770.2Z" transform="translate(-335.35 -73.48)" fill="#313032"/>
      <path id="Path_84" data-name="Path 84" d="M765.1,211.24,796,225s14.7,204.21,4,242c-8.9,31.3-55.38,24-55.38,24l-4-195.81Z" transform="translate(-335.35 -73.48)" fill="#f1f2f2"/>
      <rect id="Rectangle_10" data-name="Rectangle 10" width="33.22" height="34.62" transform="translate(417.53 342.98)" fill="#fff"/>
      <path id="Path_85" data-name="Path 85" d="M740.56,295.17l28.56-40.92-7.16-11h7.18l.35-2.28s-10.72-7.61-12.08-7.1S740.56,295.17,740.56,295.17Z" transform="translate(-335.35 -73.48)" fill="#b5b6b6"/>
      <path id="Path_86" data-name="Path 86" d="M765.1,211.24c2.9,3.66,4.39,29.76,4.39,29.76l-11.58,1,8.89,10.81-26.24,42.34,9.29-48.2,6.84-39.42S763.28,209,765.1,211.24Z" transform="translate(-335.35 -73.48)" fill="#fff"/>
      <path id="Path_87" data-name="Path 87" d="M708.5,211.24l-29.65,18.15S662.43,429.21,673.16,467c8.9,31.3,55.38,24,55.38,24L733,295.17Z" transform="translate(-335.35 -73.48)" fill="#f1f2f2"/>
      <rect id="Rectangle_11" data-name="Rectangle 11" width="33.22" height="34.62" transform="translate(351.31 342.98)" fill="#fff"/>
      <path id="Path_88" data-name="Path 88" d="M368.76,167.48l10.87,5.42-8.86,8.95,26.92,39.85-14.22-60.26Z" fill="#b5b6b6"/>
      <path id="Path_89" data-name="Path 89" d="M708.5,211.24c-2.89,3.66-4.39,29.72-4.39,29.72L715.69,242l-8.89,10.81L733,295.17,723.75,247l-6.84-39.42S710.31,209,708.5,211.24Z" transform="translate(-335.35 -73.48)" fill="#fff"/>
      <path id="Path_90" data-name="Path 90" d="M388.8,271.25l8.36,3.23-1.06,16.09-8.69-4.2Z" fill="#fcae88"/>
      <path id="Path_91" data-name="Path 91" d="M366.13,281.18l-3.32,6.39.08-7.26Z" fill="#414042"/>
      <path id="Path_92" data-name="Path 92" d="M706.78,319.61l-8.53,34.19a1.72,1.72,0,0,0,1.19,2.1,1.67,1.67,0,0,0,2-1.24L710,320.48a1.74,1.74,0,0,0-1.2-2.11,1.66,1.66,0,0,0-2.02,1.24Z" transform="translate(-335.35 -73.48)" fill="#808285"/>
      <path id="Path_93" data-name="Path 93" d="M369.19,249.57l1.29.34.94-3.78-1.29-.34Z" fill="#808285"/>
      <path id="Path_94" data-name="Path 94" d="M366.77,256.52l1.29.35,2.71-10.91-1.29-.34Z" fill="#808285"/>
      <path id="Path_95" data-name="Path 95" d="M708.81,318.37l-9.37,37.53a1.67,1.67,0,0,0,2-1.24L710,320.48a1.74,1.74,0,0,0-1.19-2.11Z" transform="translate(-335.35 -73.48)" fill="#808285"/>
      <path id="Path_96" data-name="Path 96" d="M830.56,341.56c-.36,6.6-1.81,12.13-4.69,16.07-12.46,17-74.56,11.16-93.87,8.9h-.15c-2.51-.3-4.27-.52-5.09-.63a1.273,1.273,0,0,1-.5-.08l-2.11-23.74,36.19-4.91h0l26.16-3.54s-1.43-7.94-2.6-19.75h0c-2.47-25-3.78-67.39,12.1-88.85C796,225,832.68,302.19,830.56,341.56Z" transform="translate(-335.35 -73.48)" fill="#f1f2f2"/>
      <path id="Path_97" data-name="Path 97" d="M724.15,344.73l-1.38,15.11s-11.25-.09-14.71-1.41a65.418,65.418,0,0,1-8-3.81c-3.52-2-7-4.38-8.36-6.59s-3.34-8.51-1.92-10.87c2.16-3.52,11.72-4.32,16.7-3.73a12,12,0,0,1,1.69.29C713.5,335.09,724.15,344.73,724.15,344.73Z" transform="translate(-335.35 -73.48)" fill="#fcae88"/>
      <path id="Path_98" data-name="Path 98" d="M706.52,333.43a44.16,44.16,0,0,0-6.42,21.19c-3.52-2-7-4.38-8.36-6.59s-3.34-8.51-1.92-10.87C692,333.64,701.54,332.84,706.52,333.43Z" transform="translate(-335.35 -73.48)" fill="#fdbea0"/>
      <path id="Path_99" data-name="Path 99" d="M830.56,341.56c-.36,6.6-1.81,12.13-4.69,16.07-12.46,17-74.56,11.16-93.87,8.9C749.6,368.38,803.27,371.22,830.56,341.56Z" transform="translate(-335.35 -73.48)" fill="#b5b6b6" opacity="0.28"/>
      <path id="Path_100" data-name="Path 100" d="M760.37,337.16l26.16-3.54s-1.43-7.94-2.6-19.75l5.61,20.69Z" transform="translate(-335.35 -73.48)" fill="#b5b6b6" opacity="0.28"/>
      <rect id="Rectangle_12" data-name="Rectangle 12" width="35.62" height="19.26" transform="translate(422.91 200.24)" fill="#fff"/>
      <rect id="Rectangle_13" data-name="Rectangle 13" width="10.02" height="8.59" transform="translate(425.38 205.58)" fill="#d1d3d4"/>
      <rect id="Rectangle_14" data-name="Rectangle 14" width="17.97" height="1.25" transform="translate(438.08 206.2)" fill="#d1d3d4"/>
      <rect id="Rectangle_15" data-name="Rectangle 15" width="17.97" height="1.25" transform="translate(438.08 209.24)" fill="#d1d3d4"/>
      <rect id="Rectangle_16" data-name="Rectangle 16" width="17.97" height="1.25" transform="translate(438.08 212.29)" fill="#d1d3d4"/>
      <rect id="Rectangle_17" data-name="Rectangle 17" width="3.76" height="5.16" transform="translate(438.84 196.83)" fill="#f1f2f2"/>
      <path id="Path_101" data-name="Path 101" d="M254.59,235.75h58.08l68.76,55.72-57.67.15Z" fill="#888989"/>
      <path id="Path_102" data-name="Path 102" d="M252.44,235.75h58.08l68.77,55.72-57.67.15Z" fill="#89959b"/>
      <path id="Path_103" data-name="Path 103" d="M628.13,339.72s15.62-17.51,24.52,16.83c-4.34,5.66-5.83,5.66-5.83,5.66S617.7,345.1,628.13,339.72Z" transform="translate(-335.35 -73.48)" fill="#fcae88"/>
      <path id="Path_104" data-name="Path 104" d="M712.07,303.34,702,297.87c-8.64-8.26-14.76-38.9-15-40.2l1.3-.51c.06.31,6.2,31.11,14.4,39.07l9.85,5.32Z" transform="translate(-335.35 -73.48)" fill="#5e5f60"/>
      <path id="Path_105" data-name="Path 105" d="M714.41,305.06A1,1,0,0,1,714,305l-3.2-1.68a1.56,1.56,0,0,1-.72-.93,2.419,2.419,0,0,1,0-1.36c.24-.89,1-1.38,1.62-1.05l3.21,1.68a1.57,1.57,0,0,1,.71.93,2.419,2.419,0,0,1,0,1.36A1.36,1.36,0,0,1,714.41,305.06Z" transform="translate(-335.35 -73.48)" fill="#bcbec0"/>
      <path id="Path_106" data-name="Path 106" d="M695,303.34l-.49-1.79,9.84-5.32c8.21-8,14.35-38.76,14.41-39.07l1.3.51c-.25,1.3-6.36,31.94-15,40.2l-.14.1Z" transform="translate(-335.35 -73.48)" fill="#5e5f60"/>
      <path id="Path_107" data-name="Path 107" d="M692.63,305.06a1.37,1.37,0,0,1-1.18-1.16,2.42,2.42,0,0,1,0-1.36,1.57,1.57,0,0,1,.71-.93l3.21-1.68c.63-.33,1.38.16,1.62,1.05a2.42,2.42,0,0,1,0,1.36,1.53,1.53,0,0,1-.7.93L693.07,305A1,1,0,0,1,692.63,305.06Z" transform="translate(-335.35 -73.48)" fill="#bcbec0"/>
      <path id="Path_108" data-name="Path 108" d="M719.54,258c-.74,0-1.35-.85-1.35-1.9,0-6.78-2.28-12.3-6.33-15.56a13.17,13.17,0,0,0-16.76.09c-2.8,2.3-6.12,6.85-6.09,15.44,0,1.05-.6,1.91-1.34,1.92h0c-.75,0-1.35-.85-1.36-1.9,0-8.12,2.61-14.78,7.43-18.76a15.29,15.29,0,0,1,19.47-.1c4.93,4,7.67,10.65,7.69,18.85,0,1.05-.59,1.91-1.34,1.92Z" transform="translate(-335.35 -73.48)" fill="#231f20"/>
      <path id="Path_109" data-name="Path 109" d="M704.92,235.41h-3c0-.32.25-33.18,23.21-33.18l.31,3.75C705.42,206,704.92,235.12,704.92,235.41Z" transform="translate(-335.35 -73.48)" fill="#231f20"/>
      <path id="Path_110" data-name="Path 110" d="M777.75,294.89c-.21-56.33-10.4-77.37-18.91-85.1-4.57-4.14-8.06-3.65-7.92-4l-.24-3.43s4.39.08,9.94,5c9.07,8,19.91,29.72,20.12,87.51Z" transform="translate(-335.35 -73.48)" fill="#231f20"/>
      <path id="Path_111" data-name="Path 111" d="M786.12,297.88a7.21,7.21,0,1,1-2.108-5.1A7.22,7.22,0,0,1,786.12,297.88Z" transform="translate(-335.35 -73.48)" fill="#8d8f90"/>
      <path id="Path_112" data-name="Path 112" d="M785.37,297.88a6.47,6.47,0,1,1-6.46-6.47,6.47,6.47,0,0,1,6.46,6.47Z" transform="translate(-335.35 -73.48)" fill="#bcbec0"/>
      <path id="Path_113" data-name="Path 113" d="M783.4,297.88a4.49,4.49,0,1,1-1.312-3.181,4.5,4.5,0,0,1,1.312,3.181Z" transform="translate(-335.35 -73.48)" fill="#58595b"/>
    </g>
  </g>
</svg>
