<svg xmlns="http://www.w3.org/2000/svg" width="477.89" height="639.312" viewBox="0 0 477.89 639.312">
  <g id="doctor_and_patient" data-name="doctor and patient" transform="translate(0 0.002)">
    <path id="shadow" d="M813.24,700c0,7.06-107,12.79-238.94,12.79S335.35,707,335.35,700s107-12.79,238.95-12.79S813.24,692.88,813.24,700Z" transform="translate(-335.35 -73.48)" fill="#28b463"/>
    <g id="broken_leg_man" data-name="broken leg man" transform="translate(113.589)">
      <path id="Path_1" data-name="Path 1" d="M495.14,297.18S495.43,339,497.9,351c3.94,19.18,23.7,74.71,23.7,74.71l16.93-5.9s-16.06-51.56-17.48-71.54c-.81-11.34,3.33-50.49,3.33-50.49Z" transform="translate(-335.35 -73.48)" fill="#fcae88"/>
      <path id="Path_2" data-name="Path 2" d="M521.6,425.72s-2.85,5.3-3.32,7.23c-.67,2.74-.48,9.32,1.66,11.17,4.64,4,20.18,4.33,24.52,0,3.54-3.54,2.29-15.57,0-20-.84-1.64-5.93-4.28-5.93-4.28Z" transform="translate(-335.35 -73.48)" fill="#fcae88"/>
      <path id="Path_3" data-name="Path 3" d="M509,225.33c13.08,1.33,29,80.06,29,80.06H510.73S490.41,223.45,509,225.33Z" transform="translate(-335.35 -73.48)" fill="#299696"/>
      <rect id="Rectangle_1" data-name="Rectangle 1" width="11.31" height="157.51" transform="matrix(0.998, -0.055, 0.055, 0.998, 190.489, 462.683)" fill="#a97c50"/>
      <path id="Path_4" data-name="Path 4" d="M550.45,692.51a6,6,0,0,1-5.66,6.33l-8.42.47a6,6,0,0,1-6.32-5.66h0a6,6,0,0,1,5.66-6.33l8.41-.47a6,6,0,0,1,6.33,5.66Z" transform="translate(-335.35 -73.48)" fill="#58595b"/>
      <path id="Path_5" data-name="Path 5" d="M199.65,525.15l-5.65.32-3.08-55.45Z" fill="#7f5d3c"/>
      <path id="Path_6" data-name="Path 6" d="M202.21,469.39l3.08,55.45-5.64.31Z" fill="#7f5d3c"/>
      <path id="Path_7" data-name="Path 7" d="M551,428l.3,5.45c.13,2.29-2.5,4.28-5.86,4.47l-38.57,2.14c-3.36.19-6.19-1.5-6.32-3.79l-.3-5.45c-.13-2.28,2.49-4.28,5.86-4.47l38.57-2.14C548,424,550.84,425.71,551,428Z" transform="translate(-335.35 -73.48)" fill="#a97c50"/>
      <path id="Path_8" data-name="Path 8" d="M509,439.93l-2.19.12c-3.36.19-6.19-1.5-6.32-3.79l-.3-5.45c-.13-2.28,2.49-4.28,5.86-4.47l2-.11.67,11.92Z" transform="translate(-335.35 -73.48)" fill="#7f5d3c"/>
      <path id="Path_9" data-name="Path 9" d="M551,428l.3,5.45c.13,2.29-2.5,4.28-5.86,4.47l-2.19.12.09-1.8-.67-11.92,2-.11C548,424,550.84,425.71,551,428Z" transform="translate(-335.35 -73.48)" fill="#7f5d3c"/>
      <path id="Path_10" data-name="Path 10" d="M199.99,531.38l-9.26.52L160.99,351.71,153.7,220.6l10.39-.57,7.24,130.2Z" fill="#a97c50"/>
      <path id="Path_11" data-name="Path 11" d="M211.56,217.39l7.29,131.11-9.59,182.37-9.27.51,8.41-183.21-7.23-130.2Z" fill="#a97c50"/>
      <rect id="Rectangle_2" data-name="Rectangle 2" width="10.61" height="15.81" transform="matrix(0.998, -0.055, 0.055, 0.998, 152.931, 217.533)" fill="#7f5d3c"/>
      <rect id="Rectangle_3" data-name="Rectangle 3" width="10.61" height="15.81" transform="matrix(0.998, -0.055, 0.055, 0.998, 201.367, 214.811)" fill="#7f5d3c"/>
      <path id="Path_12" data-name="Path 12" d="M564.5,281.69l.56,10.07c.23,4.22-4.63,7.93-10.86,8.28l-71.38,4c-6.23.34-11.47-2.81-11.7-7l-.56-10.07c-.24-4.23,4.62-7.93,10.85-8.28l71.38-4c4.27-.24,8.06,1.16,10.12,3.42a5.88,5.88,0,0,1,1.59,3.58Z" transform="translate(-335.35 -73.48)" fill="#424344"/>
      <path id="Path_13" data-name="Path 13" d="M562.91,278.09l.45,8.21c.24,4.22-4.62,7.94-10.85,8.28l-71.38,4c-4.26.24-8.08-1.16-10.12-3.43l-.45-8.21c-.24-4.23,4.62-7.93,10.85-8.28l71.38-4C557.06,274.43,560.85,275.83,562.91,278.09Z" transform="translate(-335.35 -73.48)" fill="#58595b"/>
      <path id="Path_14" data-name="Path 14" d="M511.77,280.53a1,1,0,0,1-1,1.09l-28.7,1.6a1,1,0,0,1-1.1-1h0a1,1,0,0,1,1-1.1l28.71-1.59a1,1,0,0,1,1.1,1Z" transform="translate(-335.35 -73.48)" fill="#9b9b9d"/>
      <path id="Path_15" data-name="Path 15" d="M517.94,439.45s16.7-12,24.7,0Z" transform="translate(-335.35 -73.48)" fill="#fcae88"/>
      <path id="Path_16" data-name="Path 16" d="M517.6,684.32a7.2,7.2,0,0,1-7.2,7.2H489.21a7.2,7.2,0,0,1-7.2-7.2h0a7.19,7.19,0,0,1,7.2-7.19H510.4a7.2,7.2,0,0,1,7.2,7.19Z" transform="translate(-335.35 -73.48)" fill="#fcae88"/>
      <path id="Path_17" data-name="Path 17" d="M171.49,609.52l-2-45.77H149.84l1.34,45.77Z" fill="#fcae88"/>
      <path id="Path_18" data-name="Path 18" d="M554.68,694.66c-1.11-3-3.26-6.84-7-6.78-16.17.24-38.19-22.08-42.07-19.47,0,0,3.6,21-25.83,18a6.353,6.353,0,0,0-.5,1.47c-.87,4,.88,10.36.88,10.36h75.57a22.461,22.461,0,0,0-1.05-3.58Z" transform="translate(-335.35 -73.48)" fill="#866c57"/>
      <rect id="Rectangle_4" data-name="Rectangle 4" width="75.57" height="1.68" transform="translate(144.77 624.79)" fill="#474849"/>
      <path id="Path_19" data-name="Path 19" d="M555.69,698.27H480.12s-3.37-12.2,1.56-13.5c0,0,46.17,18.45,73,9.89A22.468,22.468,0,0,1,555.69,698.27Z" transform="translate(-335.35 -73.48)" fill="#655141"/>
      <path id="Path_20" data-name="Path 20" d="M522.58,663H470.2L463,463.78h-5.08s1.84,72.67-2.65,86.17c-.05.15-.11.3-.17.44a6.789,6.789,0,0,1-3.53,3.31c-7.76,3.7-25.2,1.38-37.34-.93-7.47-1.41-12.94-2.82-12.94-2.82L400,422.23v-1.32l-.15-14.55H514.09l.29,8.86.76,22.87Z" transform="translate(-335.35 -73.48)" fill="#299696"/>
      <path id="Path_21" data-name="Path 21" d="M164.42,589.54H134.85L127.64,390.3l15.01,14.5Z" fill="#45c2c6"/>
      <path id="Path_22" data-name="Path 22" d="M455.74,552.77a19,19,0,0,1-2.08,6.35A88.782,88.782,0,0,1,445.52,572q-1.27,1.75-2.69,3.59c-3.18,4.14-6.78,8.52-10.61,13q-1.43,1.68-2.9,3.36-1.74,2.01-3.53,4l-3.15,3.52c-3.52,3.88-7.08,7.72-10.56,11.42q-1.54,1.65-3.08,3.25c-3.08,3.24-6.08,6.35-8.9,9.24l-2.44,2.48c-2.25,2.3-4.37,4.43-6.28,6.35l-2.27,2.27c-5.2,5.17-8.48,8.34-8.48,8.34l-18.2-8.57,6.25-13.56,1.08-2.33,10.79-23.42,2.78-6,9.85-21.37,1.81-3.91,2.34-5.09,3.95-8.58s44.86-11.11,53.39-.85a6.147,6.147,0,0,1,.59.85,4.74,4.74,0,0,1,.48,2.78Z" transform="translate(-335.35 -73.48)" fill="#299696"/>
      <path id="Path_23" data-name="Path 23" d="M414.07,667.74c0,1.26-2.86,2.8-4.12,2.91-2.18.19-8.64-.41-16.37-1.92-1.06-.21-2.14-.43-3.24-.67-10.74-2.35-23-6.34-29.67-12.25a18.459,18.459,0,0,1-1.92-1.94c-4.42-5.19-4.52-11.69,3.68-19.64l16.9,7.95,1.3.62,1.76.92c2.23,1.18,6.34,3.4,10.86,6.1,1.48.88,3,1.8,4.52,2.76l2.09,1.34c1.22.81,2.43,1.62,3.59,2.44C409.35,660.53,414.08,664.79,414.07,667.74Z" transform="translate(-335.35 -73.48)" fill="#299696"/>
      <path id="Path_24" data-name="Path 24" d="M414.07,667.74c0,1.26-2.86,2.8-4.12,2.91-2.18.19-8.64-.41-16.37-1.92-1.06-.21-2.14-.43-3.24-.67l9.52-14.14c1.22.81,2.43,1.62,3.59,2.44C409.35,660.53,414.08,664.79,414.07,667.74Z" transform="translate(-335.35 -73.48)" fill="#f1f2f2"/>
      <path id="Path_25" data-name="Path 25" d="M414.07,667.74c0,1.26-2.86,2.8-4.12,2.91-2.18.19-8.64-.41-16.37-1.92a97.725,97.725,0,0,1,9.87-12.37C409.35,660.53,414.08,664.79,414.07,667.74Z" transform="translate(-335.35 -73.48)" fill="#fcae88"/>
      <path id="Path_26" data-name="Path 26" d="M453.66,559.12c-2.58-22.82-56.33-.59-56.33-.59l3.95-8.58s44.86-11.11,53.39-.85a37.255,37.255,0,0,1,1.07,3.67C456.69,556.85,456.23,559.31,453.66,559.12Z" transform="translate(-335.35 -73.48)" fill="#f1f2f2"/>
      <path id="Path_27" data-name="Path 27" d="M442.83,575.57,403.29,569l28.93,19.53q-1.43,1.68-2.9,3.36L393.18,567.5l1.81-3.91.38.06,50.15,8.3Q444.25,573.73,442.83,575.57Z" transform="translate(-335.35 -73.48)" fill="#85d5d0" opacity="0.4"/>
      <path id="Path_28" data-name="Path 28" d="M422.64,599.45l-36.42-6,25.86,17.45q-1.54,1.65-3.08,3.25l-28.45-19.2,2.78-6,42.46,7Z" transform="translate(-335.35 -73.48)" fill="#85d5d0" opacity="0.4"/>
      <path id="Path_29" data-name="Path 29" d="M397.66,625.84l-20.79-3.44,14.51,9.79-2.27,2.27-19.71-13.3-.72-.49,1.08-2.33,1.45.24,28.89,4.78Z" transform="translate(-335.35 -73.48)" fill="#85d5d0" opacity="0.4"/>
      <path id="Path_30" data-name="Path 30" d="M397.77,652.58l-36.6,3.19h-.5a18.465,18.465,0,0,1-1.92-1.94l2.2-1.25,18.38-10.44,1.3.62,1.76.92L367.75,652l25.5-2.21C394.73,650.7,396.25,651.62,397.77,652.58Z" transform="translate(-335.35 -73.48)" fill="#85d5d0" opacity="0.4"/>
      <path id="Path_31" data-name="Path 31" d="M514.38,415.22c-16,28.68-81.24,14.89-114.35,5.69l-.15-14.55H514.09Z" transform="translate(-335.35 -73.48)" fill="#4d9893" opacity="0.47"/>
      <path id="Path_32" data-name="Path 32" d="M131.49,137.31l-28.75.16-1.16-23.75,29.85-.08Z" fill="#fcae88"/>
      <path id="Path_33" data-name="Path 33" d="M515.3,413.44c-12.08,7.41-42.74,8.41-70.06,7.59-26.63-.8-50.12-3.33-50.12-3.33l.45-136.7,3.29-57.47,38.23-15.27,1.63-.63,26.55-.11,2.22.79,43.64,17.16S528.38,405.42,515.3,413.44Z" transform="translate(-335.35 -73.48)" fill="#45c2c6"/>
      <path id="Path_34" data-name="Path 34" d="M132.14,134.82l-11.05,35.89-19.36-35.94,1.64-.63,26.54-.11Z" fill="#fcae88"/>
      <path id="Path_35" data-name="Path 35" d="M445.24,421c-26.63-.8-50.12-3.33-50.12-3.33L395.57,281C398.49,297.52,415.46,387,445.24,421Z" transform="translate(-335.35 -73.48)" fill="#66cac4" opacity="0.66"/>
      <path id="Path_36" data-name="Path 36" d="M432.07,95.29s-1.79-15.05,11.52-17.13c-2.43,1.51-10.54,6.6-6.19,16.35C434.14,95,432.07,95.29,432.07,95.29Z" transform="translate(-335.35 -73.48)" fill="#482b0e"/>
      <path id="Path_37" data-name="Path 37" d="M486,103.17c7.78,11,2.58,30.41,2.58,30.41l-18.79-14.51.8-16.64S483.75,100,486,103.17Z" transform="translate(-335.35 -73.48)" fill="#482b0e"/>
      <path id="Path_38" data-name="Path 38" d="M493,143.94v.21c.09,2.36.08,4.78,0,7.22a87.189,87.189,0,0,1-2,14.84c-.32,1.38-.66,2.73-1,4.06h0a73.67,73.67,0,0,1-2.86,8.23c-6.57,15.71-17.81,25.93-30,25.33-12.47-.6-22.8-12.22-27.72-28.94-.55-1.85-1-3.76-1.44-5.73-.13-.64-.26-1.29-.37-1.93h0c-.25-1.35-.45-2.72-.63-4.13a86.745,86.745,0,0,1-.57-15c.12-2.43.34-4.82.64-7.15,3.43-26.39,18.41-46.14,35.32-45.32S492,117.47,493,143.94Z" transform="translate(-335.35 -73.48)" fill="#fcae88"/>
      <path id="Path_39" data-name="Path 39" d="M489.89,170.27h0a73.688,73.688,0,0,1-2.86,8.23c-6.57,15.71-17.81,25.93-30,25.33-12.47-.6-22.8-12.22-27.72-28.94-.55-1.85-1-3.76-1.44-5.73,0,0,8.66-3,11.61-2.6C452,168.15,473.82,184,489.89,170.27Z" transform="translate(-335.35 -73.48)" fill="#482b0e"/>
      <path id="Path_40" data-name="Path 40" d="M414.88,102.1l5,47.28,13.8-5.1,15-37.06s-8.54-15.53-12.86-14.87C433,92.78,414.88,102.1,414.88,102.1Z" transform="translate(-335.35 -73.48)" fill="#482b0e"/>
      <path id="Path_41" data-name="Path 41" d="M419.7,153.73c3.12,7.42,9.15,12,13.45,10.15s5.27-9.3,2.15-16.71-9.15-12-13.45-10.15S416.58,146.32,419.7,153.73Z" transform="translate(-335.35 -73.48)" fill="#fcae88"/>
      <path id="Path_42" data-name="Path 42" d="M429.12,144.06s-15.59-2.8-.6,12.35C428.64,153.79,422.24,151,429.12,144.06Z" transform="translate(-335.35 -73.48)" fill="#b06d4d"/>
      <path id="Path_43" data-name="Path 43" d="M490.25,102.89c-1.83-.56-25.66,7.07-41.12,5.78a23.73,23.73,0,0,1-7-1.51c-.28-.12-.55-.24-.81-.38a9.7,9.7,0,0,1-5-5.4c-.06-.18-.12-.36-.17-.55-.82-2.51-.9-5.77,0-9.93,0,0,15.45-28.17,35.86-12.87a36,36,0,0,1,3.53,3A57.833,57.833,0,0,1,482.77,90c.36.53.72,1.07,1.07,1.62C485.38,94,488.68,99.89,490.25,102.89Z" transform="translate(-335.35 -73.48)" fill="#482b0e"/>
      <path id="Path_44" data-name="Path 44" d="M475.5,81.06c-8.77-.29-22.39,2.28-36.92,17.8-.75.8-1.51,1.64-2.27,2.52-.06-.18-.12-.36-.17-.55.62-.83,1.32-1.72,2.09-2.67C445.15,89.64,457.69,77.29,472,78a36,36,0,0,1,3.5,3.06Z" transform="translate(-335.35 -73.48)" fill="#36200b"/>
      <path id="Path_45" data-name="Path 45" d="M483.84,91.57c-6.86-1.33-22.56-2.72-40,13.86-.59.55-1.17,1.13-1.76,1.73-.28-.12-.55-.24-.81-.38.56-.67,1.16-1.35,1.77-2C451.93,94.8,466.8,82.8,482.77,90,483.13,90.48,483.49,91,483.84,91.57Z" transform="translate(-335.35 -73.48)" fill="#36200b"/>
      <path id="Path_46" data-name="Path 46" d="M449.13,108.67a23.73,23.73,0,0,1-7-1.51c-.28-.12-.55-.24-.81-.38a9.7,9.7,0,0,1-5-5.4c-.06-.18-.12-.36-.17-.55-.82-2.51-.9-5.77,0-9.93a22.449,22.449,0,0,0,2.12,7.26c.12.23.23.47.35.7a21.64,21.64,0,0,0,4.48,5.87c.26.24.53.48.8.7a21.5,21.5,0,0,0,5.23,3.24Z" transform="translate(-335.35 -73.48)" fill="#36200b"/>
      <rect id="Rectangle_5" data-name="Rectangle 5" width="11.31" height="157.5" transform="translate(83.53 462.97)" fill="#a97c50"/>
      <path id="Path_47" data-name="Path 47" d="M434.75,694a6,6,0,0,1-6,6h-8.43a6,6,0,0,1-6-6h0a6,6,0,0,1,6-6h8.43A6,6,0,0,1,434.75,694Z" transform="translate(-335.35 -73.48)" fill="#58595b"/>
      <path id="Path_48" data-name="Path 48" d="M89.18,525.88H83.53V470.34Z" fill="#7f5d3c"/>
      <path id="Path_49" data-name="Path 49" d="M94.83,470.34v55.54H89.18Z" fill="#7f5d3c"/>
      <path id="Path_50" data-name="Path 50" d="M450,432.1v5.46c0,2.29-2.73,4.13-6.1,4.13H405.22c-3.37,0-6.1-1.84-6.1-4.13V432.1c0-2.28,2.73-4.14,6.1-4.14h38.63C447.22,428,450,429.82,450,432.1Z" transform="translate(-335.35 -73.48)" fill="#a97c50"/>
      <path id="Path_51" data-name="Path 51" d="M407.41,441.69h-2.19c-3.37,0-6.1-1.84-6.1-4.13V432.1c0-2.28,2.73-4.14,6.1-4.14h2V439.9Z" transform="translate(-335.35 -73.48)" fill="#7f5d3c"/>
      <path id="Path_52" data-name="Path 52" d="M450,432.1v5.46c0,2.29-2.73,4.13-6.1,4.13h-2.19l.18-1.79V428h2C447.22,428,450,429.82,450,432.1Z" transform="translate(-335.35 -73.48)" fill="#7f5d3c"/>
      <path id="Path_53" data-name="Path 53" d="M89.18,532.12H79.9L60.21,350.56V219.25h10.4v130.4Z" fill="#a97c50"/>
      <path id="Path_54" data-name="Path 54" d="M118.15,219.25V350.56L98.46,532.12H89.18l18.57-182.47V219.25Z" fill="#a97c50"/>
      <rect id="Rectangle_6" data-name="Rectangle 6" width="10.62" height="15.81" transform="translate(59.62 216.1)" fill="#7f5d3c"/>
      <rect id="Rectangle_7" data-name="Rectangle 7" width="10.61" height="15.81" transform="translate(108.12 216.1)" fill="#7f5d3c"/>
      <path id="Path_55" data-name="Path 55" d="M471.58,284.54v10.09c0,4.22-5.06,7.66-11.3,7.66h-71.5c-6.23,0-11.29-3.44-11.29-7.66V284.54c0-4.24,5.06-7.67,11.29-7.67h71.5c4.27,0,8,1.61,9.91,4a5.84,5.84,0,0,1,1.39,3.67Z" transform="translate(-335.35 -73.48)" fill="#424344"/>
      <path id="Path_56" data-name="Path 56" d="M470.19,280.85v8.23c0,4.23-5.06,7.66-11.29,7.66H387.4c-4.27,0-8-1.6-9.91-4v-8.22c0-4.24,5.06-7.67,11.29-7.67h71.5C464.55,276.87,468.26,278.48,470.19,280.85Z" transform="translate(-335.35 -73.48)" fill="#58595b"/>
      <path id="Path_57" data-name="Path 57" d="M419,280.45a1,1,0,0,1-1,1H389.2a1,1,0,0,1-1-1h0a1,1,0,0,1,1-1H418A1,1,0,0,1,419,280.45Z" transform="translate(-335.35 -73.48)" fill="#9b9b9d"/>
      <path id="Path_58" data-name="Path 58" d="M390,297.18s.28,41.77,2.75,53.83c3.94,19.18,23.7,74.71,23.7,74.71l16.94-5.9s-16.07-51.56-17.49-71.54c-.8-11.34,3.33-50.49,3.33-50.49Z" transform="translate(-335.35 -73.48)" fill="#fcae88"/>
      <path id="Path_59" data-name="Path 59" d="M416.43,425.72s-2.84,5.3-3.32,7.23c-.67,2.74-.48,9.32,1.66,11.17,4.64,4,20.19,4.33,24.52,0,3.54-3.54,2.29-15.57,0-20-.84-1.64-5.92-4.28-5.92-4.28Z" transform="translate(-335.35 -73.48)" fill="#fcae88"/>
      <path id="Path_60" data-name="Path 60" d="M401.07,222.12c17.22-9.33,23.1,38.1,24.82,81-12.12-.27-41.44.12-41.44.12S376.16,235.62,401.07,222.12Z" transform="translate(-335.35 -73.48)" fill="#299696"/>
    </g>
  </g>
</svg>
