<svg xmlns="http://www.w3.org/2000/svg" width="454.094" height="512" viewBox="0 0 454.094 512">
  <g id="doctor" transform="translate(-0.001)">
    <g id="Group_10" data-name="Group 10">
      <path id="Path_15" data-name="Path 15" d="M140.543,166.219V138.164H123.43A14.732,14.732,0,0,0,108.7,152.9v11.395a14.732,14.732,0,0,0,14.73,14.734h17.113Zm0,0" fill="#e2ebf9"/>
      <path id="Path_16" data-name="Path 16" d="M330.664,138.164H313.551v40.863h17.113A14.735,14.735,0,0,0,345.4,164.293V152.9A14.735,14.735,0,0,0,330.664,138.164Zm0,0" fill="#e2ebf9"/>
      <path id="Path_17" data-name="Path 17" d="M261.625,357.406l52.793-49.586-20.961-3.895c-10.113-2.031-17.395-13.77-17.395-24.086V233.855H178.031V279.84c0,10.316-7.277,22.055-17.395,24.086l-20.961,3.895,52.793,49.586A50.512,50.512,0,0,0,261.625,357.406Zm0,0" fill="#e2ebf9"/>
    </g>
    <path id="Path_18" data-name="Path 18" d="M252.324,233.855v69.727c0,10.316,7.277,22.055,17.391,24.086l18.066,5.172,26.637-25.02-20.961-3.895c-10.113-2.031-17.395-13.77-17.395-24.086V233.855Zm0,0" fill="#c1c8d2"/>
    <path id="Path_19" data-name="Path 19" d="M288.242,301.406l-61.2,45.738-61.2-45.738a12.893,12.893,0,0,0-11.449-2.02L51.594,330.406a30.471,30.471,0,0,0-21.23,24.035L7.715,487.043A14.94,14.94,0,0,0,22.441,504.5H431.652a14.94,14.94,0,0,0,14.727-17.457l-22.648-132.6a30.471,30.471,0,0,0-21.23-24.035l-102.8-31.02A12.9,12.9,0,0,0,288.242,301.406Zm0,0" fill="#76ffda"/>
    <path id="Path_20" data-name="Path 20" d="M154.4,299.387l-17.687,5.336,39.031,54.621a11.277,11.277,0,0,0,13.586,3.82l37.715-16.02-61.2-45.738A12.891,12.891,0,0,0,154.4,299.387Zm0,0" fill="#5de1c0"/>
    <path id="Path_21" data-name="Path 21" d="M264.766,363.164a11.273,11.273,0,0,0,13.582-3.82l39.031-54.621-.094-.027-17.59-5.309a12.9,12.9,0,0,0-11.453,2.02l-61.2,45.738Zm0,0" fill="#5de1c0"/>
    <path id="Path_22" data-name="Path 22" d="M227.047,347.145l-29.66,12.6,17.34,20.156h24.641l17.34-20.156Zm0,0" fill="#28b463"/>
    <path id="Path_23" data-name="Path 23" d="M239.367,379.9H214.727L191.969,504.5h70.156Zm0,0" fill="#28b463"/>
    <path id="Path_24" data-name="Path 24" d="M289.949,42.621c-14.758-12.707-35.5-11.883-62.9-12.187-27.4.3-48.145-.52-62.9,12.188-18.82,16.207-29.02,40.273-29.02,65.113v72.2c0,24.84,31.219,90.723,91.922,90.723s91.922-65.883,91.922-90.723v-72.2C318.969,82.895,308.77,58.828,289.949,42.621Zm0,0" fill="#fff"/>
    <path id="Path_25" data-name="Path 25" d="M289.949,42.621c-5.863-5.047-12.672-7.957-20.465-9.652,0,.039,0,.07,0,.109V179.938c0,21.2-22.758,72.313-67.184,86.82a79.346,79.346,0,0,0,24.742,3.9c60.7,0,91.922-65.883,91.922-90.723v-72.2C318.969,82.895,308.77,58.828,289.949,42.621Zm0,0" fill="#e2ebf9"/>
    <path id="Path_26" data-name="Path 26" d="M227.047,481.367S158.32,298.2,154.4,299.387L51.594,330.406a30.471,30.471,0,0,0-21.23,24.035L7.715,487.043A14.94,14.94,0,0,0,22.441,504.5H431.652a14.94,14.94,0,0,0,14.727-17.457l-22.648-132.6a30.471,30.471,0,0,0-21.23-24.035l-102.8-31.02C295.773,298.2,227.047,481.367,227.047,481.367Zm0,0" fill="#fff"/>
    <path id="Path_27" data-name="Path 27" d="M446.379,487.043l-22.648-132.6a30.46,30.46,0,0,0-21.23-24.035l-102.8-31.02c-1.066-.32-6.922,12.98-14.883,32.52l74.563,22.5a15.529,15.529,0,0,1,10.816,12.246L393.738,504.5h37.914A14.94,14.94,0,0,0,446.379,487.043Zm0,0" fill="#e2ebf9"/>
    <path id="Path_28" data-name="Path 28" d="M282.348,7.5h-110.6a51.528,51.528,0,0,0-51.527,51.527v84.59s14.191-.32,23.309,8.7a3.018,3.018,0,0,0,5.125-2.164V80.941A22.777,22.777,0,0,1,171.43,58.164h20.7a23.543,23.543,0,0,1,14.891,5.313l2.027,1.66a28.448,28.448,0,0,0,36.008,0l2.031-1.66a23.527,23.527,0,0,1,14.891-5.312h20.7a22.776,22.776,0,0,1,22.773,22.777v69.215a3.018,3.018,0,0,0,5.125,2.164c9.117-9.023,23.309-8.7,23.309-8.7V59.027A51.528,51.528,0,0,0,282.348,7.5Zm0,0" fill="#45c2c6"/>
    <path id="Path_29" data-name="Path 29" d="M282.348,7.5H232.863a51.52,51.52,0,0,1,51.508,50.734,22.775,22.775,0,0,1,21.07,22.707v69.215a3.018,3.018,0,0,0,5.125,2.164c9.117-9.023,23.309-8.7,23.309-8.7V59.027A51.528,51.528,0,0,0,282.348,7.5Zm0,0" fill="#069da2"/>
    <path id="Path_30" data-name="Path 30" d="M367.543,398.371a31.3,31.3,0,1,1-31.3-31.3A31.3,31.3,0,0,1,367.543,398.371Zm0,0" fill="#e22a2e"/>
    <path id="Path_31" data-name="Path 31" d="M350.035,398.371a13.789,13.789,0,1,1-13.789-13.785A13.789,13.789,0,0,1,350.035,398.371Zm0,0" fill="#45c2c6"/>
    <path id="Path_32" data-name="Path 32" d="M453.773,485.781l-22.648-132.6a37.744,37.744,0,0,0-26.457-29.953l-61.09-18.434A68.145,68.145,0,0,0,296.3,245.621c1.934-2.145,3.727-4.281,5.371-6.371,14.527-18.477,22.3-38.832,24.285-52.723h4.711A22.26,22.26,0,0,0,352.9,164.293V152.9a22.387,22.387,0,0,0-11.523-19.445v-27.4a7.5,7.5,0,0,0-15,0v30.762a46.324,46.324,0,0,0-9.969,2.883,7.751,7.751,0,0,0-1.055.473c-.8.367-1.609.754-2.41,1.188V80.941a30.311,30.311,0,0,0-30.277-30.277h-20.7a31.1,31.1,0,0,0-19.637,7.008L240.3,59.328a20.939,20.939,0,0,1-26.508,0l-2.031-1.66a31.106,31.106,0,0,0-19.641-7.008h-20.7a30.31,30.31,0,0,0-30.273,30.277v60.414c-.8-.434-1.609-.82-2.414-1.187a6.922,6.922,0,0,0-1.055-.469,46.1,46.1,0,0,0-9.965-2.887V59.027A44.076,44.076,0,0,1,171.746,15h110.6a44.076,44.076,0,0,1,44.027,44.027V70.813a7.5,7.5,0,0,0,15,0V59.027A59.1,59.1,0,0,0,282.348,0h-110.6a59.1,59.1,0,0,0-59.027,59.027v74.426A22.391,22.391,0,0,0,101.2,152.9v11.395a22.257,22.257,0,0,0,22.23,22.234h4.711c1.98,13.891,9.758,34.246,24.285,52.723,1.645,2.086,3.434,4.223,5.363,6.367a68.385,68.385,0,0,0-47.273,59.176l-61.09,18.434A37.75,37.75,0,0,0,22.969,353.18l-9.2,53.848a7.5,7.5,0,0,0,14.785,2.523l9.2-53.848a22.819,22.819,0,0,1,16-18.117l56.5-17.047v20.93a7.5,7.5,0,0,0,15,0V316.012l25.77-7.773c2.426,5.105,7.313,16.348,17.133,40.961,9.109,22.855,20.242,51.59,30.93,79.547a7.492,7.492,0,0,0,.273.715c7.379,19.313,14.539,38.223,20.66,54.539a7.5,7.5,0,0,0,14.043,0c6.121-16.316,13.281-35.23,20.664-54.539.1-.234.191-.469.27-.711,10.859-28.406,22.176-57.609,31.363-80.637,9.535-23.859,14.313-34.848,16.7-39.875l25.77,7.773v51.063a7.5,7.5,0,0,0,15,0V320.539l56.5,17.047a22.835,22.835,0,0,1,16,18.117l22.648,132.6a7.44,7.44,0,0,1-7.336,8.7H22.445a7.435,7.435,0,0,1-7.336-8.7l7.473-43.762A7.5,7.5,0,0,0,7.8,442.02L.324,485.781A22.439,22.439,0,0,0,22.445,512H431.652a22.444,22.444,0,0,0,22.121-26.219ZM327.789,300.031l-25.906-7.816c-.008,0-.016,0-.023-.008s-.008,0-.012,0a20.455,20.455,0,0,0-13.168.492,19.82,19.82,0,0,1-5.113-12.855V258.008A52.84,52.84,0,0,1,327.789,300.031Zm-45.535,18.4c-.336.8-.676,1.625-1.027,2.469-.109.27-.223.543-.336.813q-.439,1.066-.9,2.18c-.082.2-.156.379-.238.574-.09.219-.184.453-.277.676-.156.379-.312.766-.473,1.152-.2.488-.4.977-.6,1.477-.148.355-.3.727-.445,1.09-.4.98-.809,1.984-1.227,3.008-.152.379-.3.754-.457,1.137-.23.563-.461,1.141-.691,1.715-.168.41-.332.82-.5,1.238-.223.555-.449,1.109-.676,1.676-.207.52-.422,1.051-.633,1.578-.2.508-.406,1.012-.613,1.527-.395.988-.8,1.988-1.2,3.008-.152.387-.312.785-.469,1.18-.3.746-.594,1.492-.9,2.254-.18.457-.363.922-.547,1.387-.285.715-.57,1.434-.859,2.164-.184.465-.371.934-.559,1.406l-1.055,2.676c-.125.313-.246.617-.367.93-.035.09-.07.176-.105.262l-7.355-3.125c-.039-.02-.078-.035-.117-.051l-17.637-7.492,42.234-31.562c-.2.457-.395.926-.6,1.4-.352.832-.715,1.7-1.086,2.59C282.441,317.988,282.348,318.211,282.254,318.434Zm-27.348,68.793q-2.238,5.789-4.465,11.559l-3.051-16.711,11.43-13.285,2.793,1.188Q258.408,378.18,254.906,387.227Zm-55.719,0q-3.5-9.059-6.707-17.25l2.8-1.187L206.7,382.074l-3.051,16.711C202.172,394.945,200.684,391.082,199.188,387.227Zm-12.652-32.4c-.359-.906-.715-1.809-1.066-2.7-.187-.469-.371-.934-.555-1.395q-.428-1.078-.844-2.137c-.2-.488-.391-.98-.582-1.465-.281-.7-.555-1.395-.832-2.082-.176-.441-.352-.891-.527-1.324q-.6-1.518-1.191-2.988c-.227-.566-.449-1.121-.676-1.676-.18-.453-.359-.906-.539-1.352-.246-.6-.484-1.2-.723-1.789-.16-.4-.32-.8-.48-1.191-.234-.582-.469-1.164-.7-1.73-.152-.375-.3-.738-.445-1.105q-.615-1.506-1.2-2.949c-.164-.4-.328-.8-.488-1.2-.191-.465-.375-.918-.562-1.375-.18-.437-.359-.871-.531-1.3-.082-.2-.172-.414-.25-.609-.07-.172-.137-.328-.207-.5-.367-.891-.727-1.77-1.082-2.617-.027-.07-.059-.145-.086-.211-.41-.988-.8-1.937-1.191-2.867-.055-.121-.105-.246-.156-.367-.395-.937-.777-1.855-1.148-2.734-.2-.477-.4-.945-.6-1.4l42.234,31.566-17.645,7.5c-.035.012-.066.027-.1.039L187,356.008c-.035-.086-.07-.172-.105-.262Zm-1-87.07a88.045,88.045,0,0,0,83.031,0V279.84a35.557,35.557,0,0,0,7.6,21.23l-49.117,36.711L177.93,301.07a35.557,35.557,0,0,0,7.6-21.23ZM218.168,372.4l-8.4-9.766,17.281-7.34,17.281,7.34-8.4,9.77H218.168ZM337.9,164.293a7.244,7.244,0,0,1-7.234,7.234h-4.2V152.094a32.391,32.391,0,0,1,7.238-.98,7.709,7.709,0,0,0,3.66-.867,7.123,7.123,0,0,1,.531,2.652Zm-221.7,0V152.9a7.136,7.136,0,0,1,.527-2.652,7.668,7.668,0,0,0,3.664.867,33.037,33.037,0,0,1,7.234.98v19.434h-4.2A7.24,7.24,0,0,1,116.2,164.293Zm26.426,15.645v-19.7a10.523,10.523,0,0,0,13.527-10.086V80.941A15.3,15.3,0,0,1,171.43,65.664h20.7a16.061,16.061,0,0,1,10.141,3.617l2.031,1.66a35.939,35.939,0,0,0,45.5,0l2.031-1.66a16.08,16.08,0,0,1,10.145-3.617h20.7a15.3,15.3,0,0,1,15.277,15.277v69.215a10.524,10.524,0,0,0,13.527,10.094v19.688c0,10.945-7.57,32.2-21.594,50.039a98.84,98.84,0,0,1-17.965,17.8,7.282,7.282,0,0,0-.684.516,73.082,73.082,0,0,1-88.363,0,7.282,7.282,0,0,0-.684-.516,99.092,99.092,0,0,1-17.965-17.8C150.2,212.141,142.625,190.883,142.625,179.938Zm27.906,78.082v21.82a19.8,19.8,0,0,1-5.117,12.855,20.464,20.464,0,0,0-13.18-.488s-.008,0-.012,0l-25.887,7.809A53.259,53.259,0,0,1,170.531,258.02Zm56.66,201.707a7.322,7.322,0,0,0-.766-1.254c-3.387-8.957-7.684-20.285-12.445-32.75l7-38.32h12.133l7,38.32C235.129,438.777,230.648,450.586,227.191,459.727Zm0,0" fill="#434c54"/>
    <path id="Path_33" data-name="Path 33" d="M142.555,459.793h-9.348a7.5,7.5,0,0,1,0-15h9.348a4.061,4.061,0,0,0,4.047-4.375l-5.461-70.1a23.011,23.011,0,0,0-1.754-7.2,22.461,22.461,0,0,0-20.93-13.422h-.176l-1.234.012a22.665,22.665,0,0,0-21.219,14.445,22.955,22.955,0,0,0-1.348,6.164l-5.461,70.1a4.061,4.061,0,0,0,4.047,4.375h9.348a7.5,7.5,0,0,1,0,15H93.066a19.062,19.062,0,0,1-19-20.543l5.465-70.094a38.018,38.018,0,0,1,2.223-10.184c5.3-14.4,19.445-24.152,35.191-24.266l1.234-.008h.285A37.413,37.413,0,0,1,153.2,357.27a37.949,37.949,0,0,1,2.9,11.887l5.461,70.094a19.056,19.056,0,0,1-19,20.543Zm0,0" fill="#aab2b9"/>
  </g>
</svg>
