<?xml version="1.0"?>
<svg xmlns="http://www.w3.org/2000/svg" xmlns:xlink="http://www.w3.org/1999/xlink" version="1.1" id="Capa_1" x="0px" y="0px" viewBox="0 0 512 512" style="enable-background:new 0 0 512 512;" xml:space="preserve" width="512px" height="512px" class=""><g><rect x="25.6" y="196.267" style="fill:#45C2C6" width="119.467" height="307.2" data-original="#A6D5FA" class="" data-old_color="#A6D5FA"/><rect x="145.067" y="8.533" style="fill:#FFFFFF" width="221.867" height="494.933" data-original="#FB4239" class="" data-old_color="#FB4239"/><rect x="196.267" y="332.8" style="fill:#28B463" width="119.467" height="170.667" data-original="#B7E5FF" class="" data-old_color="#B7E5FF"/><rect x="251.733" y="332.8" style="fill:#FFFFFF" width="8.533" height="170.667" data-original="#4DAAF5" class="" data-old_color="#4DAAF5"/><rect x="366.933" y="196.267" style="fill:#45C2C6" width="119.467" height="307.2" data-original="#A6D5FA" class="" data-old_color="#A6D5FA"/><g>
	<rect x="401.067" y="230.4" style="fill:#FFFFFF" width="51.2" height="34.133" data-original="#4DAAF5" class="" data-old_color="#4DAAF5"/>
	<rect x="401.067" y="298.667" style="fill:#FFFFFF" width="51.2" height="34.133" data-original="#4DAAF5" class="" data-old_color="#4DAAF5"/>
	<rect x="401.067" y="366.933" style="fill:#FFFFFF" width="51.2" height="34.133" data-original="#4DAAF5" class="" data-old_color="#4DAAF5"/>
	<rect x="401.067" y="435.2" style="fill:#FFFFFF" width="51.2" height="34.133" data-original="#4DAAF5" class="" data-old_color="#4DAAF5"/>
</g><polygon style="fill:#28B463" points="281.6,42.667 230.4,42.667 230.4,93.867 179.2,93.867 179.2,145.067 230.4,145.067   230.4,196.267 281.6,196.267 281.6,145.067 332.8,145.067 332.8,93.867 281.6,93.867 " data-original="#B7E5FF" class="" data-old_color="#B7E5FF"/><g>
	<rect x="59.733" y="230.4" style="fill:#FFFFFF" width="51.2" height="34.133" data-original="#4DAAF5" class="" data-old_color="#4DAAF5"/>
	<rect x="59.733" y="298.667" style="fill:#FFFFFF" width="51.2" height="34.133" data-original="#4DAAF5" class="" data-old_color="#4DAAF5"/>
	<rect x="59.733" y="366.933" style="fill:#FFFFFF" width="51.2" height="34.133" data-original="#4DAAF5" class="" data-old_color="#4DAAF5"/>
	<rect x="59.733" y="435.2" style="fill:#FFFFFF" width="51.2" height="34.133" data-original="#4DAAF5" class="" data-old_color="#4DAAF5"/>
</g><g>
	<path style="fill:#45C2C6" d="M221.867,503.467h29.867v-24.627C242.159,487.484,232.201,495.693,221.867,503.467z" data-original="#A6D5FA" class="" data-old_color="#A6D5FA"/>
	<path style="fill:#45C2C6" d="M260.267,470.793v32.674h55.467v-97.28C299.435,429.508,280.858,451.149,260.267,470.793z" data-original="#A6D5FA" class="" data-old_color="#A6D5FA"/>
</g><path style="fill:#E3F2FF;" d="M256,474.863c-1.425,1.323-2.825,2.671-4.267,3.977v24.627h8.533v-32.674  C258.842,472.149,257.442,473.523,256,474.863z" data-original="#2195F2" class=""/><path d="M460.8,221.867h-68.267v51.2H460.8V221.867z M443.733,256H409.6v-17.067h34.133V256z" data-original="#000000" class="active-path" data-old_color="#000000" style="fill:#434C54"/><path d="M460.8,290.133h-68.267v51.2H460.8V290.133z M443.733,324.267H409.6V307.2h34.133V324.267z" data-original="#000000" class="active-path" data-old_color="#000000" style="fill:#434C54"/><path d="M460.8,358.4h-68.267v51.2H460.8V358.4z M443.733,392.533H409.6v-17.067h34.133V392.533z" data-original="#000000" class="active-path" data-old_color="#000000" style="fill:#434C54"/><path d="M460.8,426.667h-68.267v51.2H460.8V426.667z M443.733,460.8H409.6v-17.067h34.133V460.8z" data-original="#000000" class="active-path" data-old_color="#000000" style="fill:#434C54"/><path d="M290.133,34.133h-68.267v51.2h-51.2V153.6h51.2v51.2h68.267v-51.2h51.2V85.333h-51.2V34.133z M324.267,102.4v34.133h-51.2  v51.2h-34.133v-51.2h-51.2V102.4h51.2V51.2h34.133v51.2H324.267z" data-original="#000000" class="active-path" data-old_color="#000000" style="fill:#434C54"/><path d="M375.467,187.733V0H136.533v187.733H17.067V512h477.867V187.733H375.467z M136.533,494.933h-102.4V204.8h102.4V494.933z   M204.8,494.933v-153.6h42.667v153.6H204.8z M264.533,494.933v-153.6H307.2v153.6H264.533z M358.4,494.933h-34.133V324.267H187.733  v170.667H153.6V17.067h204.8V494.933z M477.867,494.933h-102.4V204.8h102.4V494.933z" data-original="#000000" class="active-path" data-old_color="#000000" style="fill:#434C54"/><path d="M119.467,221.867H51.2v51.2h68.267V221.867z M102.4,256H68.267v-17.067H102.4V256z" data-original="#000000" class="active-path" data-old_color="#000000" style="fill:#434C54"/><path d="M119.467,290.133H51.2v51.2h68.267V290.133z M102.4,324.267H68.267V307.2H102.4V324.267z" data-original="#000000" class="active-path" data-old_color="#000000" style="fill:#434C54"/><path d="M119.467,358.4H51.2v51.2h68.267V358.4z M102.4,392.533H68.267v-17.067H102.4V392.533z" data-original="#000000" class="active-path" data-old_color="#000000" style="fill:#434C54"/><path d="M119.467,426.667H51.2v51.2h68.267V426.667z M102.4,460.8H68.267v-17.067H102.4V460.8z" data-original="#000000" class="active-path" data-old_color="#000000" style="fill:#434C54"/></g> </svg>
